<?xml version="1.0" encoding="UTF-8"?>
<svg width="1076px" height="198px" viewBox="0 0 1076 198" version="1.1" xmlns="http://www.w3.org/2000/svg" xmlns:xlink="http://www.w3.org/1999/xlink">
    <!-- Generator: Sketch 52.2 (67145) - http://www.bohemiancoding.com/sketch -->
    <title>nika-feature</title>
    <desc>Created with Sketch.</desc>
    <g id="nika-feature" stroke="none" stroke-width="1" fill="none" fill-rule="evenodd">
        <rect fill="#3E2B2F" x="0" y="0" width="1076" height="198"></rect>
        <g id="Nika-Feature-mobile" transform="translate(538.000000, 33.500000)" fill="#FFFFFF">
            <g id="Group" transform="translate(0.000000, 0.500000)">
                <path d="M98.8286408,108.456257 L98.8286408,110.36738 L68.7606796,110.36738 L68.7606796,108.456257 L83.3990291,102.563626 L73.1126214,76.1264182 L26.0325243,76.1264182 L15.5878641,102.722887 L30.0679612,108.535887 L30.0679612,110.447011 L0,110.447011 L0,108.535887 L14.084466,102.722887 L48.5834951,14.0149055 L50.3242718,14.0149055 L84.9024272,102.722887 L98.8286408,108.456257 Z M72.5587379,74.7727058 L49.4538835,15.3686179 L26.4281553,74.7727058 L72.5587379,74.7727058 Z" id="Shape" fill-rule="nonzero"></path>
                <path d="M147.174757,75.7282675 C147.174757,95.9543242 157.461165,109.730339 174.394175,109.730339 C177.559223,109.730339 180.566019,109.172928 183.572816,108.058106 L194.492233,94.0432008 L199.951942,100.811763 C198.448544,101.608065 197.103398,102.324736 195.995631,103.041407 C188.08301,108.137736 181.515534,111.163682 174.394175,111.163682 C159.914078,111.163682 150.023301,100.971023 146.779126,86.7968576 C145.671359,95.6358037 137.363107,110.606271 121.458738,110.606271 C112.042718,110.606271 103.417961,104.71364 103.417961,92.530228 C103.417961,78.196802 118.214563,74.4541852 130.241748,74.4541852 L145.592233,74.4541852 L145.592233,63.0670745 C145.592233,51.3614433 139.816019,42.9206479 127.076699,42.9206479 C122.803883,42.9206479 119.401456,43.7169494 116.552913,44.9910317 L109.748058,61.3948415 L102.626699,58.5281563 L101.677184,57.5725945 C106.187379,51.9188543 112.042718,41.5669355 127.155825,41.5669355 C141.398544,41.5669355 147.016505,51.6003337 147.016505,64.420787 L147.174757,64.420787 C150.735437,49.6892102 160.626214,40.4521135 174.552427,40.4521135 C191.801942,40.4521135 200.031068,54.3873888 200.426699,74.3745551 L200.426699,75.7282675 L147.174757,75.7282675 Z M130.083495,75.7282675 C118.68932,75.5690072 104.921359,79.7097747 104.921359,92.530228 C104.921359,104.39512 113.783495,109.172928 121.61699,109.172928 C136.571845,109.172928 145.03835,93.8839405 145.671359,85.2042547 L145.671359,75.7282675 L130.083495,75.7282675 Z M198.765049,74.2949249 C198.369417,54.8651696 191.089806,41.8058259 174.394175,41.8058259 C157.856796,41.8058259 147.728641,54.8651696 147.174757,74.2949249 L198.765049,74.2949249 Z" id="Shape" fill-rule="nonzero"></path>
                <path d="M248.218932,14.8112069 C245.212136,14.2537959 241.809709,13.8556452 237.695146,13.8556452 C224.243689,13.8556452 215.777184,20.4649472 215.777184,32.0113181 C215.777184,47.4595662 232.868447,54.6262792 241.414078,58.4485261 C254.153398,64.6596774 266.734466,70.7115684 266.734466,88.0709399 C266.734466,92.7691185 265.468447,96.7506257 263.72767,100.095092 C264.518932,102.165476 265.072816,104.63401 265.072816,107.261805 C265.072816,119.763737 255.656796,126.85082 241.493204,126.85082 C225.509709,126.85082 219.337864,122.152642 213.56165,116.658162 L219.891748,110.20812 L230.969417,124.541546 C233.976214,125.098957 237.378641,125.497108 241.493204,125.497108 C254.94466,125.497108 263.569417,118.887806 263.569417,107.341435 C263.569417,91.8931869 246.082524,84.7264739 237.536893,80.9042269 C224.797573,74.6930756 212.453883,68.6411846 212.453883,51.2818131 C212.453883,46.5836346 213.719903,42.6021274 215.46068,39.2576613 C214.669417,37.1872775 214.19466,34.718743 214.19466,32.0909483 C214.19466,19.5890156 223.531553,12.5019327 237.616019,12.5019327 C253.599515,12.5019327 259.771359,17.2001112 265.547573,22.6945912 L259.217476,29.1446329 L248.218932,14.8112069 Z M262.936408,98.4228587 C264.281553,95.5561735 265.151942,92.0524472 265.151942,88.0709399 C265.151942,72.9412125 255.182039,66.4115406 240.781068,59.7226085 C234.05534,56.5374027 221.078641,51.4410734 216.172816,40.8502642 C214.82767,43.7169494 213.957282,47.2206758 213.957282,51.202183 C213.957282,66.3319105 223.689806,72.8615823 238.01165,79.5505145 C244.737379,82.7357202 258.030583,87.8320495 262.936408,98.4228587 Z" id="Shape" fill-rule="nonzero"></path>
                <path d="M348.392718,108.456257 L348.392718,110.36738 L318.245631,110.36738 L318.245631,108.456257 L332.330097,102.643256 L332.330097,63.0670745 C332.330097,51.3614433 326.553883,42.9206479 313.814563,42.9206479 C299.334466,42.9206479 293.795631,51.9984844 289.601942,58.0503754 L289.601942,102.563626 L304.082039,108.456257 L304.082039,110.36738 L273.934951,110.36738 L273.934951,108.456257 L288.17767,102.563626 L288.17767,25.1631257 L279.632039,3.50372636 L288.256796,0.159260289 L289.601942,0.159260289 L289.601942,55.9799917 C293.4,50.3262514 299.176214,41.4873053 313.814563,41.4873053 C328.057282,41.4873053 333.833495,50.7244021 333.833495,62.9874444 L333.833495,102.563626 L348.392718,108.456257 Z" id="Path"></path>
                <path d="M360.024272,24.0483037 C365.800485,18.5538237 371.97233,12.5019327 387.955825,12.5019327 C402.040291,12.5019327 411.535437,21.8982898 411.535437,35.7539349 C411.535437,49.6892102 401.802913,56.9355534 386.768932,59.7226085 C402.515049,61.3948415 414.304854,70.0745273 414.304854,85.2042547 C414.304854,100.493242 402.119417,111.243312 386.689806,111.243312 C369.282039,111.243312 363.110194,105.191421 357.413107,99.696941 L363.980583,93.4857898 L374.504369,108.376627 C377.82767,109.332189 381.783981,109.8896 386.689806,109.8896 C401.486408,109.8896 412.801456,99.5376808 412.801456,85.2042547 C412.801456,68.4022942 397.371845,59.5633482 376.957282,60.8374305 L376.957282,59.483718 C397.371845,58.2096357 410.111165,51.202183 410.111165,35.7539349 C410.111165,22.7742214 401.486408,13.8556452 388.034951,13.8556452 C383.762136,13.8556452 380.359709,14.4130562 377.352913,15.1297275 L366.670874,30.2594549 L360.024272,24.0483037 Z" id="Path"></path>
                <path d="M437.251456,56.1392519 C442.711165,46.7428949 451.889806,40.4521135 461.859709,40.4521135 C478.159709,40.4521135 489,56.4577725 489,75.7282675 C489,95.1580228 478.159709,111.163682 461.859709,111.163682 C449.120388,111.163682 442.315534,104.39512 437.251456,100.413612 L437.251456,130.195286 L451.731553,136.087917 L451.731553,137.999041 L421.50534,137.999041 L421.50534,136.087917 L435.748058,130.195286 L435.748058,66.4911707 L427.123301,44.8317714 L435.748058,41.4873053 L437.251456,41.4873053 L437.251456,56.1392519 Z M437.251456,98.7413793 C442.473786,102.722887 448.88301,109.730339 461.859709,109.730339 C477.28932,109.730339 487.496602,94.2820912 487.496602,75.7282675 C487.496602,57.0151835 477.368447,41.8058259 461.859709,41.8058259 C451.335922,41.8058259 444.056311,47.8577169 437.251456,58.368896 L437.251456,98.7413793 Z" id="Shape" fill-rule="nonzero"></path>
            </g>
        </g>
    </g>
</svg>