<?xml version="1.0" encoding="UTF-8"?>
<svg width="1076px" height="198px" viewBox="0 0 1076 198" version="1.1" xmlns="http://www.w3.org/2000/svg" xmlns:xlink="http://www.w3.org/1999/xlink">
    <!-- Generator: Sketch 52.2 (67145) - http://www.bohemiancoding.com/sketch -->
    <title>sylph-sans-feature</title>
    <desc>Created with Sketch.</desc>
    <g id="sylph-sans-feature" stroke="none" stroke-width="1" fill="none" fill-rule="evenodd">
        <rect fill="#101820" x="0" y="0" width="1076" height="198"></rect>
        <g id="Sylph-Sans-Feature-mobile" transform="translate(538.000000, 39.000000)" fill="#FFFFFF">
            <path d="M14.0701017,100.315997 C9.13600685,98.3038947 4.42135754,95.7923441 0,92.8206846 L4.40311418,86.2096038 C8.250358,88.9786442 12.3550472,91.3723761 16.6606557,93.3578349 C20.8234869,95.220718 25.3415634,96.1596021 29.9031044,96.1096972 C35.5035566,96.1096972 40.2322143,94.7103518 44.0890775,91.911661 C47.80305,89.4030847 49.9855288,85.1817884 49.8826488,80.705879 C49.9468491,77.676438 48.9221244,74.7242405 46.9941397,72.3841811 C45.0418516,70.0409152 42.6808368,68.0698843 40.0253011,66.56643 C37.3161168,65.0073168 33.346141,62.9441087 28.1153738,60.3768057 C23.6220923,58.3437427 19.2527787,56.0479175 15.0301792,53.5012817 C11.7832987,51.5388533 8.95430229,48.9584708 6.70398963,45.9068026 C4.51784845,42.8401108 3.38274611,39.1501579 3.46786624,35.3869203 C3.2925762,29.6526981 5.85805851,24.1768054 10.3787691,20.6359464 C15.0136262,16.8786488 21.32586,15 29.3154707,15 C37.5218493,15.0108295 45.5855804,17.1432488 52.7214987,21.1896244 L49.2784621,27.2387633 C42.105469,23.4814657 35.4842447,21.6028169 29.4147891,21.6028169 C24.2723048,21.6028169 20.004374,22.8644315 16.6109965,25.3876607 C13.3909165,27.560617 11.4763727,31.2007459 11.5126538,35.0811579 C11.4828751,38.9669243 13.3318812,42.6285017 16.478572,44.9151405 C19.7891842,47.5265174 24.6999256,50.3913191 31.2107962,53.5095455 C36.4107579,55.8901701 41.4878876,58.529653 46.4230591,61.4180509 C49.7340139,63.3676937 52.5964095,65.9919949 54.8237374,69.11996 C56.9871035,72.3432407 58.0947325,76.1576959 57.9936486,80.0365071 C57.9936486,87.2756406 55.3534354,92.9115869 50.073009,96.9443462 C44.7925826,100.977105 37.9313389,102.993485 29.4892778,102.993485 C24.2258987,103.086742 18.9929051,102.178051 14.0701017,100.315997 Z" id="Path"></path>
            <path d="M114.036563,91.8932102 C108.010167,85.7288842 103.102221,78.5543738 99.5340729,70.6932475 L92.6588182,70.6932475 L92.6588182,102.177765 L72,102.177765 L72,16 L101.004981,16 C112.645536,16 121.490265,18.2328857 127.539167,22.698657 C133.588069,27.1644283 136.618029,33.9543928 136.629047,43.0685506 C136.76439,48.4336372 135.147832,53.6957716 132.026262,58.0512964 C128.766385,62.3924558 124.429632,65.7984643 119.449174,67.9291177 C122.158168,72.5966366 125.74835,76.6879434 130.018225,79.9734191 C134.709209,83.5279604 139.725655,86.6269631 145,89.2286887 L132.216323,105 C126.283111,102.659205 120.223191,98.2902754 114.036563,91.8932102 Z M99.5340729,53.9839582 C104.93842,53.9839582 109.039884,53.0874837 111.838465,51.2945346 C114.637046,49.5015855 116.033582,47.1773923 116.028073,44.3219549 C116.070262,41.5471367 114.624886,38.9635567 112.243378,37.5568924 C109.720248,35.8967543 105.985133,35.0666853 101.038035,35.0666853 L92.6588182,35.0666853 L92.6588182,53.9839582 L99.5340729,53.9839582 Z" id="Shape" fill-rule="nonzero"></path>
            <path d="M162.017833,99.7831265 C158.123425,97.1254929 155.057098,93.4379389 153.166539,89.1385914 C150.979233,84.2072185 149.901074,78.8618779 150.00713,73.4747487 C150.00713,65.7560961 151.744943,59.080062 155.220567,53.4466465 C158.651889,47.8546616 163.631723,43.3607611 169.565767,40.5012543 C175.993977,37.4303929 183.055536,35.8911425 190.188539,36.0059852 C195.220495,36.0059852 201.443073,36.8684655 208.856272,38.5934261 L208.856272,77.7161865 C208.837702,81.6884472 209.536159,85.631889 210.918549,89.3596702 C212.071242,92.6476646 213.79062,95.7119007 216,98.4157131 L205.276159,104 C202.956869,101.844577 201.131124,99.2197568 199.922487,96.3031823 C198.418093,93.1212897 197.576367,89.6706697 197.447755,86.1581216 L196.895064,86.1581216 C195.494211,91.0021028 192.733159,95.3501952 188.934674,98.6941087 C185.141783,101.982468 180.242457,103.735988 175.208157,103.606971 C170.522379,103.690148 165.921966,102.356499 162.017833,99.7831265 Z M187.746803,85.8633499 C190.853967,81.7747567 193.23246,76.4388423 194.882282,69.8556067 C196.560021,62.970358 197.298046,55.8925498 197.076545,48.8121797 C194.035786,47.9913317 190.898001,47.5782575 187.746803,47.5839641 C183.404577,47.5297805 179.115566,48.5364585 175.257652,50.5153053 C171.474053,52.4979512 168.350778,55.5270233 166.266124,59.235636 C163.929129,63.4679381 162.767587,68.2408182 162.900487,73.0653435 C162.900487,78.5240794 164.159851,83.0411834 166.678579,86.6166554 C169.197307,90.1921275 172.513449,91.9853222 176.627004,91.9962397 C180.92754,92.0126159 184.634139,89.9765074 187.746803,85.8879142 L187.746803,85.8633499 Z" id="Shape" fill-rule="nonzero"></path>
            <path d="M241.070535,133.669638 C236.703646,132.146307 232.614578,129.929573 228.962695,127.105827 L231.188462,123.923625 C234.684293,126.608191 238.554226,128.774421 242.677104,130.354498 C246.944458,131.8524 251.447717,132.578429 255.973136,132.498123 C263.22501,132.498123 269.419784,131.06904 274.557458,128.210874 C279.695132,125.352708 282.269547,120.974064 282.280704,115.074943 C282.280704,110.466427 280.632297,106.866025 277.335483,104.273735 C274.03867,101.681445 269.746118,100.390839 264.457829,100.401917 C262.352453,100.389746 260.251681,100.598622 258.190536,101.025064 C256.243687,101.440495 253.923087,102.016559 251.228737,102.753257 C246.68237,104.138027 243.156844,104.830412 240.652158,104.830412 C236.815349,104.958592 233.074054,103.627154 230.192724,101.10815 C227.420252,98.6582636 225.88738,95.1118239 226.008951,91.4286056 C225.859075,87.5691455 227.598666,83.8761033 230.678042,81.5164199 C233.785191,79.0736852 237.938284,77.8523178 243.137319,77.8523178 L243.137319,77.4368867 C239.2554,76.2814796 235.81258,73.9947106 233.255247,70.8730755 C230.466064,67.6050177 229.071473,63.3426947 229.071473,58.0861067 C228.979273,53.7246683 230.219058,49.4377006 232.627681,45.7893466 C234.994598,42.287934 238.298,39.5113254 242.166684,37.7715267 C246.270528,35.9035298 250.739275,34.9587641 255.253527,35.0047557 C262.491906,34.8924443 269.469843,37.6843333 274.607663,42.7483911 C275.336885,40.1160658 276.697811,37.6984746 278.57388,35.7026799 C280.400305,33.6067792 282.719891,31.9913637 285.326491,31 L287,34.8718177 C284.44883,35.6159076 282.158763,37.0551102 280.389638,39.0261286 C278.746257,40.8161877 277.616441,43.0111315 277.117927,45.3822242 C279.499745,49.1958703 280.709456,53.6166048 280.598827,58.102724 C280.598827,64.8327076 278.186184,70.2471594 273.360899,74.3460794 C268.535613,78.4449995 261.900149,80.4944595 253.454505,80.4944595 C248.718473,80.4944595 245.329617,80.5858543 243.287935,80.768644 C238.825244,81.1397624 235.531219,82.2226528 233.405862,84.0173151 C231.309675,85.7276169 230.12682,88.3035984 230.201092,90.9965573 C230.065735,93.8283912 231.213839,96.5717539 233.330554,98.4743168 C235.32431,100.28262 237.935307,101.271554 240.635423,101.241088 C242.2141,101.241088 245.137163,100.642867 249.404612,99.4464256 C252.751631,98.5269381 255.582651,97.834553 257.897672,97.3692701 C260.3289,96.8989269 262.800935,96.667936 265.277848,96.6796545 C271.771065,96.6796545 276.922684,98.3413789 280.732707,101.664828 C284.54273,104.988276 286.444953,109.419541 286.439374,114.958622 C286.439374,121.960021 283.538625,127.222148 277.737126,130.745004 C271.935626,134.267859 264.683753,136.018209 255.981504,135.996052 C250.914479,136.063065 245.872693,135.276444 241.070535,133.669638 Z M270.859002,71.6707032 C274.847533,68.0758396 276.841798,63.4230114 276.841798,57.7122188 C277.008801,52.3832822 274.760988,47.2606962 270.716754,43.7537343 C266.633391,40.1588707 261.481771,38.3614388 255.261895,38.3614388 C249.042018,38.3614388 243.776042,40.1117885 239.463966,43.6124877 C235.146312,47.113187 232.987485,51.821406 232.987485,57.7371446 C232.987485,63.6528833 235.146312,68.3611022 239.463966,71.8618015 C243.78162,75.3625008 249.081067,77.1128504 255.362305,77.1128504 C261.643544,77.1128504 266.803531,75.2988014 270.842267,71.6707032 L270.859002,71.6707032 Z" id="Shape" fill-rule="nonzero"></path>
            <path d="M351.772256,54.0753512 C347.663172,59.3676825 342.828026,64.0413507 337.412747,67.9553001 L356.835483,92.9508301 L340.971801,104 L323.053237,75.9661558 C320.680534,76.8848446 318.85854,77.5295871 317.587253,77.9003831 L312.524026,103.310983 L295,100.961686 L301.838644,70.4374202 C303.115411,64.5434227 305.257967,53.148361 308.266313,36.252235 C311.274659,19.356109 313.285702,7.27203065 314.299444,0 L332.489251,2.49042146 L320.480526,62.9827586 C325.861575,60.7690507 330.579582,56.9697744 334.634547,51.5849298 C338.571501,46.3995034 341.898089,40.7693155 344.547294,34.8077905 L360,39.9214559 C358.432811,44.2437207 355.690229,48.9616858 351.772256,54.0753512 Z" id="Path"></path>
            <path d="M428.484077,101.092205 C423.37316,98.1630662 418.857237,95.4101158 414.936308,92.8333543 C410.647963,99.6111181 403.439486,103 393.310876,103 C385.737725,103 379.626012,100.847193 374.975735,96.5415784 C370.325458,92.235964 368.00032,86.4547683 368.00032,79.1979911 C367.978337,74.9725541 369.089265,70.819036 371.216579,67.1731039 C373.213211,63.6114011 376.117464,60.6469956 379.631495,58.5838987 C377.889189,55.4262282 376.948419,51.8862629 376.892329,48.2768525 C376.892329,42.1432791 378.71844,37.5623697 382.370662,34.5341243 C386.022884,31.5058788 390.958319,29.9945091 397.176967,30.000015 C403.931011,29.9984013 410.470629,32.3809717 415.651946,36.7309786 L411.687146,44.2878274 C409.456053,42.6076553 407.047933,41.1785669 404.506088,40.0262602 C402.22935,39.0864735 399.786419,38.6200822 397.32503,38.655291 C394.03474,38.655291 391.410734,39.3875758 389.453011,40.8521454 C387.495289,42.316715 386.513685,44.6071697 386.508202,47.7235095 C386.508202,52.0291239 388.811405,56.9981993 393.417811,62.6307357 C398.644905,68.8869494 404.579998,74.5105778 411.10312,79.3879447 C411.925692,75.6329204 412.336978,70.3665263 412.336978,63.5887625 C412.336978,60.4779286 412.290366,58.0966265 412.197141,56.4448563 L429.717936,56.4448563 L429.717936,64.2742471 L420.957538,64.2742471 C420.957538,72.3348858 420.134966,79.2172617 418.489821,84.9213749 C423.143858,88.1468642 427.989589,91.0842148 433,93.7170513 L428.484077,101.092205 Z M407.919764,87.8780436 C397.242773,80.0927 389.304948,72.659734 384.10629,65.5791456 C381.935913,67.2653451 380.121215,69.3680916 378.767794,71.7650251 C377.518154,74.2524329 376.915437,77.016778 377.015715,79.8008872 C376.891702,83.9426954 378.687248,87.9081948 381.877118,90.5373937 C385.190026,93.3155436 389.39907,94.7839225 393.713937,94.6668192 C400.376774,94.6447956 405.123018,92.3901293 407.952667,87.9028202 L407.919764,87.8780436 Z" id="Shape" fill-rule="nonzero"></path>
            <path d="M481.986591,102.657309 L437.510057,102.657309 L436,97.2718927 C443.840999,90.336884 451.181511,82.8497691 457.965962,74.8672316 C463.525849,68.2375415 468.274273,60.9606777 472.109335,53.1927966 C475.939093,45.1923794 478.713124,36.7231203 480.361011,28 L485.716349,28 C482.784253,42.4496234 477.932267,55.0349576 471.160392,65.7560028 C464.388516,76.477048 454.962352,86.9878766 442.881898,97.2884887 L443.022176,97.4295551 L483.249097,97.2884887 L492.8623,52.8359816 L498.489943,52.8359816 L488.876741,97.2884887 L500,97.2884887 L498.902527,102.673905 L487.622486,102.673905 L483.496648,122 L477.869005,122 L481.986591,102.657309 Z" id="Path"></path>
        </g>
    </g>
</svg>