<?xml version="1.0" encoding="UTF-8"?>
<svg width="1076px" height="198px" viewBox="0 0 1076 198" version="1.1" xmlns="http://www.w3.org/2000/svg" xmlns:xlink="http://www.w3.org/1999/xlink">
    <!-- Generator: Sketch 52.2 (67145) - http://www.bohemiancoding.com/sketch -->
    <title>tribune-feature</title>
    <desc>Created with Sketch.</desc>
    <g id="tribune-feature" stroke="none" stroke-width="1" fill="none" fill-rule="evenodd">
        <rect fill="#212721" x="0" y="0" width="1076" height="198"></rect>
        <g id="Tribune-Feature-mobile" transform="translate(538.000000, 55.000000)" fill="#FFFFFF">
            <polygon id="Path" points="39 93 29.4539573 93 29.4539573 51.3542356 9.5460427 51.3542356 9.5460427 93 0 93 0 0 9.5460427 0 9.5460427 42.1781913 29.4539573 42.1781913 29.4539573 0 39 0"></polygon>
            <path d="M61.1203778,71.4426083 L58.2035772,92.9667709 L49,92.9667709 L63.4933682,0 L75.5066318,0 L90,93 L80.7552251,93 L77.8549035,71.4426083 L61.1203778,71.4426083 Z M69.5576768,9.26261724 L62.306873,62.4292095 L76.6684084,62.4292095 L69.5576768,9.26261724 Z" id="Shape" fill-rule="nonzero"></path>
            <polygon id="Path" points="173.983405 9.0024133 167.212701 9.0024133 167.212701 83.9560243 173.983405 83.9560243 173.983405 93 151.041008 93 151.041008 83.9560243 157.811712 83.9560243 157.811712 51.4126743 138.155098 51.4126743 138.155098 83.9560243 144.925802 83.9560243 144.925802 93 122 93 122 83.9560243 128.770704 83.9560243 128.770704 9.0024133 122 9.0024133 122 0 144.958992 0 144.958992 9.0024133 138.188288 9.0024133 138.188288 42.2523239 157.828307 42.2523239 157.828307 9.0024133 151.041008 9.0024133 151.041008 0 174 0"></polygon>
            <path d="M223.425187,83.9560243 L231,83.9560243 L231,93 L207.694825,93 L207.694825,83.9560243 L214.293329,83.9560243 L212.542706,71.4873078 L195.440461,71.4873078 L193.689838,83.9560243 L200.288342,83.9560243 L200.288342,93 L177,93 L177,83.9560243 L184.574813,83.9560243 L197.864401,0 L210.110349,0 L223.425187,83.9560243 Z M196.652431,62.4516446 L211.322319,62.4516446 L204.050499,9.25178763 L196.652431,62.4516446 Z" id="Shape" fill-rule="nonzero"></path>
            <polygon id="Path" points="312 1.29581994 304.877275 4.08681672 304.877275 88.8799571 312 91.6709539 312 93 287.423238 93 287.423238 91.6709539 295.35231 88.8799571 295.35231 48.1779207 275.462436 48.1779207 275.462436 88.8799571 282.585161 91.6709539 282.585161 93 258 93 258 91.6709539 265.929071 88.8799571 265.929071 4.15326902 258 1.36227224 258 0 282.585161 0 282.585161 1.32904609 275.462436 4.12004287 275.462436 45.2706324 295.34391 45.2706324 295.34391 4.08681672 287.414839 1.29581994 287.414839 0 312 0"></polygon>
            <path d="M354.914973,88.4713188 L363,91.6621694 L363,92.9916905 L338.753204,92.9916905 L338.753204,91.6621694 L345.777899,89.1693174 L342.596905,65.0883667 L325.896686,65.0883667 L322.45061,88.2137241 L331.562832,91.6704789 L331.562832,93 L310,93 L310,91.6704789 L319.402157,88.2137241 L333.186465,0 L341.006408,0 L354.914973,88.4713188 Z M326.294311,62.4293245 L342.190997,62.4293245 L334.735542,7.27912795 L326.294311,62.4293245 Z" id="Shape" fill-rule="nonzero"></path>
            <polygon id="Path" points="432.928768 91.6621694 439 91.6621694 439 92.9916905 416.988693 92.9916905 416.988693 91.6621694 423.578905 91.6621694 423.578905 47.2810936 404.071879 47.2810936 404.071879 91.6704789 410.003069 91.6704789 410.003069 93 388 93 388 91.6704789 394.722016 91.6704789 394.722016 1.29628306 388 1.29628306 388 0 410.003069 0 410.003069 1.32952109 404.071879 1.32952109 404.071879 45.9515726 423.570667 45.9515726 423.570667 1.29628306 416.980455 1.29628306 416.980455 0 439 0 439 1.32952109 432.937005 1.32952109"></polygon>
            <path d="M489,93 L466.848731,93 L466.848731,91.6703601 L473.483331,91.6703601 L468.971803,62.1689751 L452.128214,62.1689751 L446.820534,91.6703601 L454.118593,91.6703601 L454.118593,93 L439,93 L439,91.6703601 L445.501907,91.6703601 L460.346824,7.94459834 L459.144303,0 L468.424448,0 L483.41035,91.7036011 L489,91.7036011 L489,93 Z M461.142976,12.199446 L452.393598,60.8393352 L468.706419,60.8393352 L461.142976,12.199446 Z" id="Shape" fill-rule="nonzero"></path>
        </g>
    </g>
</svg>