<svg xmlns="http://www.w3.org/2000/svg" xmlns:xlink="http://www.w3.org/1999/xlink" id="Layer_1" x="0px" y="0px" viewBox="0 0 2801 1855" style="enable-background:new 0 0 2801 1855;" xml:space="preserve"> <style type="text/css"> .st0{fill:#F1F2F2;} .st1{fill:#231F20;} .st2{fill:#FF4612;} </style> <g id="ad2"> </g> <rect class="st0" width="2800" height="1856.3"></rect> <path class="st1" d="M1606.6,775.6c-21.6-13.9-26.3-49.1-26.3-49.1c-47.3-15.3-88-36.7-88-36.7c-19.8-13.2-24.3-21-54-29.5l0,0l0,0 c63.6-53.3,40.6-140.9,34.1-110.5c-4.9,24.1-50.3,79.9-70.1,103.5c-1.2,0-4.3,0.7-5.7,0.7c47-56.6,27.1-141.6,22-121.9 c-8.1,31.4-87.3,154.2-87.3,154.2s-46.4,41.8-51.5,53.9c0,0,10.9-2.7,16.9-2.2c0,0-43,78-43.7,112.7c0,0,7-7.6,11.2-10.3 c-0.1,10.5,11.5,82.5,16.3,110.2c5.4,32,5.2,66-27.2,77.1c-6,2.1-10.1,14.8-5.2,21.9c54.4,79.1,144.5,239.1,144.5,239.1 c45.7-32.3,74.7-77,82.5-98.8c1.2,0.1,14.7,6.1,14.7,6.1c27.5-53.9,16.2-121.6,7.3-138.9c13.8,8.1,18.7,6.9,18.7,6.9 c-1.5-14.2-25.8-72.6-25.8-72.6c16,2.1,20.4-3.1,20.4-3.1c-29.8-20.1-46.6-75.5-46.6-75.5c4.2,2.5,7.2,4,12,6.4c3,1.6,7-2.9,4.5-7.4 c-22.2-40.1-50.7-75.2-50.7-75.2c19.2,5.8,47.3-14.5,59.7-20.7c13.5-6.6,29.8-11.1,29.8-11.1c12.1,0.3,26.9,10.8,38,10.2 c13.6-0.9,42.1-31.4,46-31.1C1607.4,784.1,1610.1,778,1606.6,775.6 M1442.6,715.3c-0.1,0-0.1,0-0.3,0h-0.1c-1.8,0.4-3.7,1.2-5.8,2.2 c-1.2,0.6-2.4,1.2-3.7,1.6c-1.8,0.7-3.7,1.5-5.5,1.8c-3.7,0.9-7.3,1-10.8,0.6c-13-1.6-23.1-12.1-29.3-25.3l0,0l0,0 c2.7,0.7,7.6,1.5,13.6,1.9c10.9,0.7,25.3,0.4,34.4-0.9c0.9-0.1,1.8-0.1,2.5-0.1c12.1,0.6,16,20.4,16,20.4S1450.1,713.6,1442.6,715.3 "></path> <path class="st1" d="M1501.5,1165.8c0,0-6.3,39.2-28.3,65.1l-23.1-16.6l29.5-58.1L1501.5,1165.8z"></path> <path class="st2" d="M1748.2,1135.2c-0.4-35.9-0.7-71.9-1.6-107.6c2.7-28.3,1.5-81.9,0.4-102.9c-0.1-1.8-0.4-3.7-1.2-5.4 c-1.3-14.1-3.9-27.8-9.4-30.5c-2.4-5.8-4-9.7-6.3-15.7c-1.2-3.1-1.3-5.7-1.8-9.1c-0.9-5.7-1.8-10.3-2.8-16c-0.4-5.1-3.4-5.2-3.3,1.6 c-0.1,4,0.4,6.6,0.1,10.6c-0.4,8.2,0.4,19.2,1.5,36.7c0.1,36.7-1.5,148.4-1.5,220.5c-0.7,19.9-1.6,39.8-2.4,59.6 c-0.1,1.9-0.1,3.9-0.1,5.8c0,8.1,1.2,8.5,7,4.6c4.6-3.3,9.6-5.5,14.4-8.5c6-3.7,7.5-6.4,7.5-15 C1748.9,1154.2,1748.3,1144.8,1748.2,1135.2z M1520.6,940.1c-1.9-0.7-7.2-1.8-8.2-1c-1.2,0.7-0.9,2.1-1.3,3.3 c-0.1,0.1-0.1,0.4-0.1,0.7c-7.2-0.7-9.6-0.1-11.8,3.7c-3.6,6.3-4.3,13-2.2,19.5c1,3.3,2.8,6.7,5.8,9.6c5.5,5.4,15.4,4.9,21-0.3 c4.9-4.8,5.5-10.2,5.2-15.4c-0.1-3.4-0.4-6.9-1.3-10.3C1526.8,946.3,1526.3,942.5,1520.6,940.1z M1701,968.3c-4-1.5-8.4-2.1-12.6-3 c-3.9-0.9-4.5,2.7-4.9,5.4c-0.3,1.5-0.3,3.7-0.3,6.4c-6.6,0.4-15,0.7-17.2,2.1c-6.9,4.3-13,8.8-18.9,21.4 c-19.9,43.3-21.9,73.4-19.3,128.9c0.9,21.1,9,42.1,19.6,49.3c12.7,8.4,22.8-14.1,32.8-33.1c0.1-0.3,0.3-0.7,0.4-1 c0.9,8.5-1.5,34.6-1,39.8c1,9,9.3,8.2,10.8,6.9c3.4-3,6.3-0.7,12.4-4.3c0.7-0.4,2.7-2.4,2.8-3.9c0.4-6.7-0.7-54.6-1.9-79.8 c1-33.2,4.2-85.6,4.2-89.4l0,0C1709.7,1000.3,1712.5,972.3,1701,968.3z M1679.3,1048.4c-0.4,18.1,0.6,39.8-1.8,57.3 c-3.9,27.8-18.3,42.5-21.1,41.5c-2.1-0.7,0.9-101.8,18.6-133.1C1683.4,1007.4,1679.5,1041.8,1679.3,1048.4z M1601.3,951.2 c-10,4-13.3,180.3-19.5,182.5c-4.6,1.8-17.5-130.9-16.3-155c0.1-1.2-0.7-1.9-1.8-2.7c0-1.3,0.1-2.5,0.1-3.7c0.1-2.7-1.5-6.3-5.4-4.9 c-4,1.3-8.4,2.2-12.3,4c-15.7,4.6-7.9,28.3-4.3,42.4c7.9,131,26.3,186.7,38.9,177.1c11.5-19.5,24.6-16,27.5-70.1 c1.9-34,9.6-67.1,15.7-131.4C1617.9,984.9,1606.8,949,1601.3,951.2z M1372.2,1077.9c0,0,0.7-1.8-1.2-2.1c0,0-2.2,3.6-7,0 c0,0-17.8-10.6-23.4,14.5c0,0.1-0.1,0.1-0.1,0.3c-2.5,11.2-17.7,60-19.8,56.6c-6.3-10-12-21.1-6.1-32.2 c24-45.1,39.2-95.2,33.5-128.5c-0.9-5.7-2.5-11.5-5.7-16.6c-6.6-10.5-18.7-4-29.2,4.3c-10.5,8.4-19.9,19.9-23.8,34.1 c-4.9,20.2-8.4,41.2-10.5,61.8c-2.1,20.2-2.4,40.4-3.3,60.6c-0.1,2.1,0.3,5.4,1.8,6c4.9,2.1,4.3,5.7,5.4,9.1 c3.7,12.9,5.1,20.8,16.9,30.7c9.1,7.8,24.4,7.9,32.2-0.7c11.7-12.4,28.6-55.4,34.7-78.5L1372.2,1077.9z M1317.2,1006.9 c3.1-5.8,5.7,3.7,6,5.7c2.7,22.8-9.6,44.6-19.2,66.6C1307,1055.1,1308.2,1030.7,1317.2,1006.9z M1275.5,1193.3 c-3.7,2.1-3.3,1.8-9.6,4.9c-0.9,0.3-2.1,0.9-3.4,1.6c-1.9,0.9-3.6,1.6-4.3,2.1c-7.9,3.3-15.3,6.9-23.4,10.3 c-4.8,2.1-69.6,32.3-97.9,51.5c-0.4-14.8-1-28.7-1.6-42.8c0-0.1,0-0.4,0-0.7c0.7-0.7,1.6-1.6,2.4-2.4c7.8-9,14.4-20.8,16.9-33.7 c5.7-29.8,7.3-51.5,11.1-82.2c20.2-164.4-12.9-183.7-28.1-202.3c-3.4-4.3-9.6-11.5-12.4-14.7c-14.2-12.7-33.1-7.9-39.2-5.5 c-17.5,6.7-27.8,22.2-35.3,39.8c-31.1,72.2-31.7,107.5-18.6,199.1c4,28.1,12.3,46.9,28.6,74.1c12.4,20.8,29.2,33.7,45.2,36.5 c0.6,15.6,1.2,31.3,1.8,47.6c0.1,7.3,1.5,15,3.1,22.5c2.5,11.8,6.3,15,16.3,17.2c8.2,1.8,13.6-1.5,18.3-7.3 c6.9-8.2,13.5-17.1,21.3-24.3c1.8-1.6,3.3-3,4.6-4.2c20.2-13.8,50-34,53-35.9c8.8-5.8,8.2-10.6,15.6-19.3c4.9-6,19-13.8,22.2-17.5 l3.7-2.7c4-3.3,4.3-3.4,7.6-5.8c3.7-2.7-0.4,0.4,3.4-2.2C1281.5,1194.2,1284.1,1187.8,1275.5,1193.3z M1096.9,1170.4 c-3.1-4.3-6.4-9.3-7.9-14.1c-5.8-18.3-13.3-26.9-16.9-44.9c-8.8-45.1-12.7-60.9-10.5-103.2c2.1-39.4,3.7-52.8,18.4-85.3 c5.4-11.8,21.4-14.2,33.8-7.3c3.4,3.4,50.9,11.2,32,193.4c-2.2,21.7-6,35.9-11.2,53.7c-0.1-32.3-0.4-67.2-1.5-76.4 c-1.3-11.5,0.9-20.4-7.9-19.3c-1,0.1-6,6.1-7,6.6c-11.2,5.2-17.7,11.8-17.2,25.3c0.7,27.2,1.8,53.3,2.8,79.2 C1101.4,1176.1,1099.2,1173.4,1096.9,1170.4z M1582,912.4c0,0,3-0.4,1.3-2.1c-1.6-1.5-2.4-2.8-2.8-4c-0.1-0.6-1.2-3.7-1.5-4.9 c0,0-6.3-18.3-25.6-15.7c-8.2,1-17.5,3.4-18.6,3.7c-16,3-31.9,6-47.9,9.1c0.1-7.2-0.7-14.7-2.7-21.7c-1.9-6.6-15.9-9.1-23.7,1.9 c-4.2,5.5-7.9,11.8-9,18.1c-0.4,2.2-0.7,5.1-1.2,8.5c-1.2,0.1-2.5,0.4-3.7,0.7c-40.6,7.6-121,19-125.6,19.8 c-2.7,0.1-4.6,4.5-2.1,4.6c6.6-0.3,11.7-1.2,18.4-1.6c4-0.1,8.1-1,12.1-0.7c8.5,0.6,11.1,4.6,19.9,5.1c6.9,0.4,14.1-0.1,21,0.1 c6.6,0.1,13.3,1.5,19.8,0.7c13-1.5,25.9-3.1,38.9-4.9c-1.5,34.7-2.1,83.1-3.6,96.6c-1.2,11.7-22.3,22-31.4,30.5 c-0.3-1.5-12.6-41.6-12.6-41.6c-9.7-32.6,9.4-28.1,9.4-28.1c4.9,1.2,1.9,19.5-0.3,32.8c-0.1,1.2,0.7,3.7,3.6,2.4 c6.3-3,12.9-6.3,13.9-9.3c5.7-18,16.6-60.9-16-64.1c-19.8-1.9-45.2,22.3-41,64.7c1.5,15.7,14.1,57.8,16.2,65 c2.1,7.9-25.6,39.7-22.9,76.8c0.7,11.2,4,26.3,14.4,35.8c9.7,8.8,32.5,7.9,41.6-3.7c6.9-8.7,8.8-17.4,10.9-25.8 c6.6-27.1-4.3-64.1-9-77.7c6.3-9.3,14.7-18.9,23.7-22.5c-0.7,7-2.1,21.9-2.2,28.9c-0.4,20.5-1.3,41-0.3,61.5 c3.1,29,12.7,31.4,21.4,33.1c9.1,1.8,24.1-12.4,35-25.3c0.7,12.4,1.6,22.2,2.4,26.6c0.4,2.7,1,6.3,4.9,5.4c4.2-1,8.5-1.6,12.6-3 c11.5-4,8.7-32.2,6.9-45.7c-2.8-23.2-4.6-31.7-4.9-55.1c-0.4-32.3,2.5-52,3.7-84.3c0.3-7.2-0.3-7.9-6.4-7.5 c-1.6,0.1-3.3,0.7-4.6,1.6c-3.6,2.1-6.3,6.3-11.1,4.8c-0.7-0.1-2.5,1.3-2.7,2.4c-1.6,6.9-3.7,13.6-4.3,20.7 c-1.2,17.5,0,62.4,1.8,100.8c-9.3,11.1-21.1,24.4-25.6,23.8c-3.7-0.6-4.8-5.7-5.4-8.7c-1.2-6.6-2.1-13.3-1.5-19.9 c2.7-34.4,5.7-68.9,8.8-103.3c0.6-6.9,7.6-57.6,11.1-93.4c8.2-1,16.3-2.1,24.4-3.1c8.7-1.2,17.5-1.9,26.2-3.3 c6-0.9,29.6-1.5,40.3-4.6L1582,912.4z M1395.5,1166.5c-18.6-27.2,7.6-59.9,7.6-59.9C1414.3,1118,1395.5,1166.5,1395.5,1166.5z M1188.5,1183.3c3.1,12.9,22.2,13.9,28.6,4c4-6.3,7.6-12.9,10.9-19.5c1.9-3.9,3-8.2,4.8-13c0.1,0.9,0.4,1.6,1.2,2.1 c0.7,8.2,1.6,17.7,2.1,22.8c0.7,7.6,1.3,8.4,6.9,7.3c1.5-0.3,3-1.2,4.3-2.1c3-2.4,5.1-7.2,9.9-6c0.7,0.1,4.6-2.1,4.8-3.4 c0.4-5.8-0.7-48.2-1.8-68.6c2.1-45.4,7-126.1,7-128.2c0.3-12.7,3-41.2,0.9-41.2c-0.6-0.4-0.4,0-1.6,0.1c0,0-1.6-0.4-1.9,0.1 c-0.1,0.3-2.4,12.7-2.7,14.4c-2.1,6.1-5.5,14.1-8.8,22.5c-4.3,10.6-14.2,16-14.8,26.6c-0.9,14.4-1.8,57.8-11.5,119.5 c-0.7,5.4-2.1,12.4-3.4,17.7c-0.4,1.8-1.5,3.4-2.2,5.2c-1,2.4-8.1,6-8.1-1.5c0.9-16.8,5.1-133.4,6.1-153c0.1-1.9,0.1-8.2,0.1-10.2 c0-7.9,1.2-7.6-7.3-7.5c-4.9,0.1-6,11.4-11.7,14.4c-7,3.7-12.1,4-13,15.3c0,0.3-1.8,140.7-1.6,154.5 C1185.4,1167,1186,1172.9,1188.5,1183.3z"></path> </svg>