<svg xmlns="http://www.w3.org/2000/svg" xmlns:xlink="http://www.w3.org/1999/xlink" id="Layer_1" x="0px" y="0px" viewBox="0 0 2800 1856.3" style="enable-background:new 0 0 2800 1856.3;" xml:space="preserve"> <style type="text/css"> .st0{fill:#F1F2F2;} .st1{fill:#231F20;} </style> <g id="ad2"> </g> <rect x="-2.1" class="st0" width="2800" height="1856.3"></rect> <g> <path class="st1" d="M1839.5,1068c-0.7-43.8-1-87.7-1.9-131.4c3.2-34.5,1.9-99.9,0.4-125.6c-0.1-2.3-0.7-4.5-1.3-6.6 c-1.6-17.2-4.7-33.9-11.5-37.4c-2.9-7.2-5-11.8-7.6-19c-1.4-3.9-1.6-7-2.3-11.1c-1.1-6.9-2.3-12.6-3.4-19.4 c-0.4-6.3-4.2-6.5-3.9,1.9c-0.1,4.9,0.4,8,0.3,12.9c-0.4,10.1,0.4,23.4,1.7,44.7c0.1,44.8-1.9,181.1-1.9,269 c-1,24.3-2,48.4-2.9,72.7c-0.1,2.3-0.1,4.7-0.1,7c0,9.8,1.6,10.6,8.6,5.6c5.7-3.9,11.6-6.8,17.5-10.3c7.3-4.5,9.1-7.9,9.1-18.4 C1840.1,1091.3,1839.5,1079.7,1839.5,1068z M1561.6,829.9c-2.3-1-8.8-2.2-10.1-1.3c-1.3,1-1.1,2.6-1.7,4c-0.1,0.3-0.1,0.6-0.1,0.9 c-8.6-1-11.8-0.1-14.4,4.5c-4.5,7.8-5.2,15.8-2.7,23.9c1.3,4,3.4,8.2,7,11.6c6.6,6.5,18.8,6.2,25.6-0.3c6-5.9,6.8-12.2,6.5-18.8 c-0.3-4.2-0.7-8.5-1.6-12.6C1569.2,837.5,1568.6,832.9,1561.6,829.9z M1781.9,864.3c-4.9-1.9-10.2-2.4-15.2-3.7 c-4.7-1.1-5.5,3.3-6,6.6c-0.3,1.9-0.4,4.6-0.3,7.9c-8,0.4-18.4,1-21,2.6c-8.5,5.3-16,10.8-23,26.2c-24.1,52.7-26.7,89.5-23.6,157.4 c1.1,25.9,11.1,51.6,24,60.1c15.5,10.2,27.7-17.1,40-40.5c0.3-0.4,0.4-0.9,0.7-1.3c1.1,10.5-1.9,42.3-1.3,48.6 c1.3,11.1,11.4,9.9,13.1,8.5c4.2-3.7,7.6-1,15.2-5.5c0.9-0.6,3.3-3,3.4-4.7c0.4-8.3-1-66.5-2.3-97.3c1.3-40.5,5-104.5,5-109.1l0,0 C1792.4,903.4,1796,869.3,1781.9,864.3z M1755.5,962.1c-0.6,22,0.7,48.6-2.3,70c-4.7,33.9-22.4,51.9-25.7,50.6 c-2.4-1,1.1-124.3,22.6-162.4C1760.3,912.1,1755.6,954.1,1755.5,962.1z M1660,843.6c-12.2,5-16.2,220-23.9,222.9 c-5.7,2.2-21.4-159.7-20-189c0.1-1.3-0.7-2.4-2.3-3.3c0.1-1.6,0.1-3.2,0.3-4.6c0.3-3.3-1.9-7.6-6.5-6.2c-5,1.6-10.2,2.7-14.9,4.9 c-19.3,5.5-9.6,34.5-5.3,51.9c9.6,159.8,32.2,227.6,47.6,216.3c14.2-23.7,29.9-19.5,33.6-85.5c2.3-41.4,11.8-81.9,19.1-160.4 C1680.3,884.7,1666.8,840.7,1660,843.6z M1380.7,998.1c0,0,0.9-2.2-1.6-2.4c0,0-2.9,4.3-8.6,0c0,0-21.7-13.1-28.6,17.8 c0,0.1-0.1,0.3-0.1,0.3c-3,13.8-21.6,73.3-24.1,69.1c-7.6-12.2-14.7-25.6-7.5-39.1c29.2-54.9,47.9-116.3,41-156.6 c-1.1-6.9-3.2-14.1-7-20.3c-8-12.6-22.9-4.9-35.6,5.3c-12.8,10.2-24.1,24.3-29.2,41.7c-5.9,24.6-10.2,50.3-12.9,75.3 c-2.7,24.6-2.9,49.4-3.9,74c-0.1,2.6,0.3,6.6,2.2,7.5c6,2.4,5.5,7,6.6,11.1c4.5,15.8,6.2,25.4,20.6,37.5c11.2,9.5,29.7,9.6,39.2-1 c14.2-15.2,34.9-67.5,42.5-95.7L1380.7,998.1z M1313.4,911.4c3.9-7.2,7,4.5,7.2,7c3.3,27.9-11.8,54.5-23.6,81.2 C1301.2,970.2,1302.5,940.6,1313.4,911.4z M1262.5,1139c-4.6,2.4-4,2.3-11.8,6c-1.1,0.4-2.4,1.1-4.2,2c-2.3,1.1-4.3,2-5.5,2.4 c-9.6,4-18.8,8.5-28.5,12.5c-5.9,2.4-84.8,39.4-119.4,62.9c-0.7-18-1.3-35.1-1.9-52.2c0-0.3,0-0.6,0-0.9c1-0.9,1.9-1.9,2.9-3 c9.6-10.9,17.5-25.3,20.6-41.2c6.9-36.4,9.1-62.8,13.7-100.3c24.6-200.5-15.8-224-34.3-246.8c-4.3-5.2-11.8-14.1-15.1-17.8 c-17.4-15.5-40.4-9.6-47.9-6.8c-21.3,8.2-33.9,27-43.3,48.6c-37.9,88.1-38.7,131.1-22.6,242.9c4.9,34.3,15.1,57.2,34.9,90.5 c15.1,25.6,35.6,41.2,55.2,44.6c0.7,19,1.4,38.1,2.2,58.1c0.3,8.9,1.9,18.4,3.9,27.4c3.2,14.4,7.8,18.4,20,21.1 c9.9,2.3,16.5-1.9,22.4-8.9c8.5-10.1,16.5-20.8,26-29.6c2.2-2,3.9-3.7,5.6-5.2c24.7-16.8,60.9-41.5,64.7-43.8 c10.8-7.2,10.1-13.1,19-23.6c6.2-7.3,23.3-16.8,27-21.4l4.6-3.4c4.9-3.9,5.2-4.2,9.2-7.2c4.5-3.3-0.4,0.4,4-2.9 C1269.9,1140,1272.9,1132.1,1262.5,1139z M1044.8,1111c-3.9-5.3-7.9-11.4-9.6-17.2c-7-22.1-16.4-32.9-20.7-54.8 c-10.8-54.9-15.7-74.3-12.8-125.7c2.6-48,4.6-64.5,22.6-104.3c6.5-14.4,26.2-17.4,41.4-8.9c4,4,62.1,13.8,39.1,236.1 c-2.7,26.4-7.3,43.8-13.8,65.5c-0.3-39.4-0.6-82.1-1.9-93.1c-1.6-13.9,1.1-24.9-9.8-23.6c-1.3,0.1-7.5,7.5-8.5,8 c-13.8,6.3-21.6,14.5-21,30.8c1,33.3,2.3,65,3.4,96.6C1050.1,1117.8,1047.4,1114.6,1044.8,1111z M1636.5,796c0,0,3.6-0.4,1.6-2.4 c-2-1.9-3-3.6-3.4-5c-0.1-0.7-1.4-4.6-1.9-6.2c0,0-7.6-22.4-31.3-19.3c-10.1,1.3-21.4,4.3-22.6,4.5c-19.4,3.7-38.9,7.5-58.5,11.1 c0.3-8.8-0.9-17.8-3.3-26.6c-2.3-8-19.4-11.2-28.9,2.3c-5,6.8-9.6,14.4-10.9,22.1c-0.4,2.7-0.9,6.3-1.3,10.5 c-1.6,0.3-3,0.6-4.6,0.9c-49.4,9.3-147.7,23.1-153.2,24.1c-3.3,0.3-5.7,5.5-2.6,5.7c8.2-0.3,14.2-1.6,22.4-1.9 c4.9-0.3,9.9-1.3,14.8-0.9c10.5,0.7,13.7,5.6,24.1,6.2c8.5,0.4,17.1-0.1,25.6,0.1c8,0.1,16.4,1.9,24.1,0.9 c15.8-1.9,31.6-3.9,47.4-5.9c-1.9,42.4-2.6,101.5-4.5,117.8c-1.6,14.2-27.2,26.9-38.5,37.2c-0.4-1.9-15.2-50.7-15.2-50.7 c-11.9-39.8,11.5-34.3,11.5-34.3c6,1.6,2.3,23.6-0.3,40c-0.3,1.4,1,4.6,4.5,2.9c7.5-3.9,15.8-7.6,17-11.4c7-22,20.3-74.3-19.4-78.2 c-24.1-2.3-55.2,27.2-50,79c1.9,19,17.4,70.6,19.7,79.2c2.7,9.6-31.3,48.4-28,93.7c1,13.8,4.9,32.2,17.5,43.7 c11.8,10.6,39.7,9.6,50.7-4.5c8.5-10.6,10.8-21.1,13.2-31.3c8-33.1-5.3-78-11.1-94.9c7.8-11.4,17.8-23,28.7-27.3 c-1,8.6-2.4,26.6-2.7,35.2c-0.6,25-1.6,50-0.4,75c3.9,35.5,15.4,38.5,26.2,40.5c11.1,2.3,29.3-15.1,42.8-30.8c1,15.2,2,27,2.9,32.6 c0.6,3.3,1.3,7.8,6,6.6c5.2-1.3,10.3-1.9,15.2-3.7c14.2-5,10.6-39.1,8.5-55.6c-3.6-28.2-5.7-38.7-6.2-67.1 c-0.4-39.5,3.2-63.4,4.6-102.8c0.3-8.6-0.4-9.8-7.8-9.1c-1.9,0.3-3.9,1-5.7,2c-4.5,2.4-7.8,7.6-13.7,5.9c-0.9-0.3-3,1.7-3.3,3 c-2,8.3-4.6,16.7-5.3,25.1c-1.4,21.4,0,76.2,2.3,122.9c-11.4,13.7-25.7,29.7-31.3,29.2c-4.5-0.7-5.9-7-6.5-10.6 c-1.4-8-2.4-16.4-1.9-24.3c3.3-42.1,7-84.1,10.8-126c0.7-8.5,9.2-70.4,13.5-114.1c9.9-1.3,20-2.6,29.7-3.9 c10.6-1.3,21.4-2.3,31.9-3.9c7.2-1.1,36.2-1.9,49.1-5.6L1636.5,796z M1409.1,1106.3c-22.6-33.2,9.2-73.1,9.2-73.1 C1432,1046.9,1409.1,1106.3,1409.1,1106.3z M1156.6,1126.7c3.9,15.8,27.2,17,34.9,5c4.9-7.6,9.3-15.7,13.4-23.7 c2.3-4.7,3.7-9.9,5.9-15.8c0.3,1.1,0.7,2,1.3,2.4c0.9,10.1,2,21.6,2.4,27.9c0.7,9.2,1.7,10.2,8.5,8.9c1.9-0.3,3.6-1.3,5.2-2.6 c3.9-3,6.3-8.8,12.2-7.5c0.9,0.3,5.6-2.7,5.9-4c0.7-7-1-58.8-2.3-83.6c2.4-55.2,8.5-153.8,8.6-156.4c0.4-15.7,3.9-50.2,1.1-50.2 c-0.7-0.6-0.4,0-2,0.3c0,0-2-0.4-2.3,0.3c-0.3,0.3-3,15.7-3.3,17.5c-2.6,7.5-6.8,17.1-10.9,27.4c-5.2,12.9-17.4,19.7-18.1,32.5 c-1.1,17.5-2.2,70.4-14.2,145.9c-1,6.5-2.7,15.2-4.3,21.6c-0.6,2.3-1.9,4.3-2.7,6.5c-1.3,3-9.9,7.2-9.8-1.9 c1.1-20.4,6.3-162.8,7.5-186.7c0.1-2.3,0.3-10.1,0.3-12.4c0-9.6,1.3-9.3-8.9-9.1c-6.2,0.1-7.3,13.8-14.2,17.4 c-8.6,4.5-14.8,4.9-16,18.7c0,0.3-2.2,171.7-2,188.6C1152.7,1106.7,1153.4,1113.9,1156.6,1126.7z"></path> <path class="st1" d="M1808.1,645c-9.1-5.9-11.1-20.4-11.1-20.4c-19.8-6.3-36.8-15.2-36.8-15.2c-8.2-5.5-10.1-8.8-22.6-12.4l0,0l0,0 c26.6-22.3,17-58.8,14.2-46.1c-2.2,10.1-21,33.3-29.3,43.3c-0.6,0-1.9,0.3-2.3,0.3c19.7-23.6,11.2-59.2,9.2-51 c-3.3,13.2-36.5,64.5-36.5,64.5s-19.4,17.4-21.6,22.6c0,0,4.6-1.1,7-0.9c0,0-17.8,32.6-18.4,47.1c0,0,2.9-3.2,4.7-4.3 c-0.1,4.5,4.9,34.5,6.8,46c2.3,13.4,2.2,27.6-11.4,32.2c-2.4,0.9-5.2,1.3-7.9,1.1c21.4,28.5,66.1,107.9,66.1,107.9 c19.1-13.5,31.2-32.2,34.5-41.2c0.4,0,6.2,2.6,6.2,2.6c11.5-22.6,6.8-50.7,3-58.1c5.7,3.3,7.8,2.9,7.8,2.9 c-0.7-5.9-10.8-30.3-10.8-30.3c6.6,0.9,8.5-1.3,8.5-1.3c-12.5-8.5-19.4-31.5-19.4-31.5c2.9,1.7,4.5,2.3,9.9,5.3 c-9.5-19-24.1-37.1-24.1-37.1c8,2.3,19.8-6,25-8.6c5.6-2.9,12.5-4.6,12.5-4.6c5,0.1,11.2,4.5,15.8,4.3c5.7-0.3,17.5-13.1,19.1-13.1 C1808.5,648.4,1809.6,645.8,1808.1,645z M1739.7,619.8L1739.7,619.8c-0.1,0-0.1,0-0.3,0c-0.7,0.3-1.6,0.4-2.4,0.9 c-0.6,0.3-1,0.4-1.6,0.7c-0.7,0.3-1.6,0.6-2.3,0.7c-1.6,0.3-3,0.4-4.5,0.3c-5.5-0.7-9.6-5-12.2-10.6l0,0l0,0 c1.1,0.3,3.2,0.7,5.6,0.7c4.6,0.3,10.6,0.3,14.4-0.3c0.3,0,0.7-0.1,1,0c5,0.3,6.8,8.5,6.8,8.5S1742.7,619.1,1739.7,619.8z"></path> </g> </svg>