<svg xmlns="http://www.w3.org/2000/svg" xmlns:xlink="http://www.w3.org/1999/xlink" id="Layer_1" viewBox="0 0 2800 1856.3"> <defs> <style>.cls-1,.cls-10,.cls-11,.cls-12,.cls-13,.cls-14,.cls-15,.cls-16,.cls-17,.cls-36,.cls-37,.cls-38,.cls-41,.cls-42,.cls-5,.cls-50,.cls-7,.cls-9{fill:none;}.cls-2{fill:#f1f2f2;}.cls-3{fill:#aa6089;}.cls-4{clip-path:url(#clip-path);}.cls-5{stroke:#bd6a91;}.cls-10,.cls-11,.cls-12,.cls-13,.cls-14,.cls-15,.cls-16,.cls-17,.cls-36,.cls-37,.cls-38,.cls-41,.cls-42,.cls-5,.cls-50,.cls-7,.cls-9{stroke-miterlimit:10;}.cls-41,.cls-5,.cls-9{stroke-width:3.74px;}.cls-6{fill:#cb7ea8;}.cls-10,.cls-11,.cls-12,.cls-13,.cls-14,.cls-15,.cls-16,.cls-17,.cls-7,.cls-9{stroke:#cb7ea8;}.cls-37,.cls-7{stroke-width:6.65px;}.cls-8{clip-path:url(#clip-path-3);}.cls-10{stroke-width:3.32px;}.cls-11{stroke-width:2.91px;}.cls-12{stroke-width:2.49px;}.cls-13{stroke-width:5.82px;}.cls-14,.cls-38{stroke-width:5.4px;}.cls-15,.cls-42{stroke-width:4.99px;}.cls-16{stroke-width:4.57px;}.cls-17{stroke-width:4.15px;}.cls-18{clip-path:url(#clip-path-4);}.cls-19{fill:#db92bf;}.cls-20{clip-path:url(#clip-path-5);}.cls-21{fill:#f68c28;}.cls-22{fill:#d6effb;}.cls-23{fill:#bd6a91;}.cls-24{fill:#00b4a2;}.cls-25{opacity:0.6;}.cls-26{clip-path:url(#clip-path-6);}.cls-27{fill:#abe0f9;}.cls-28{fill:#00aae5;}.cls-29{fill:#44c7f4;}.cls-30{fill:#e9f6fd;}.cls-31{fill:#c6e9fa;}.cls-32{fill:#7f79b7;}.cls-33{fill:#5956a4;}.cls-34{fill:#f9a654;}.cls-35{fill:#fad263;}.cls-36{stroke:#f9a654;stroke-width:0.39px;}.cls-37,.cls-38,.cls-41,.cls-42{stroke:#db92bf;}.cls-39{clip-path:url(#clip-path-7);}.cls-40{clip-path:url(#clip-path-8);}.cls-43{fill:#00b8f1;}.cls-44{fill:#00a8e3;}.cls-45{fill:#d85c54;}.cls-46{fill:#d33b40;}.cls-47{fill:#ec1c24;}.cls-48{fill:#cc242c;}.cls-49{clip-path:url(#clip-path-10);}.cls-50{stroke:#cc242c;stroke-width:1.66px;}.cls-51{clip-path:url(#clip-path-11);}</style> <clipPath id="clip-path"> <path class="cls-1" d="M1214.2,649.2c0,36.1,27,64.3,27,119.2s-93.9,106-93.9,204.8c0,84,69.9,153.3,146.5,153.3,126.6,0,146.6-99.1,146.6-99.1L1401.1,994s-63.5,28.1-89.5,28.1-88-1-88-62.2,70.2-125.4,70.2-187.3-47-92.1-47-126.2c0-14.9,7.9-29.2,25.4-29.2,10.9,0,36.2,4.4,50.8,6.3,6.3.8,6.8-7.3.6-9.6-13.4-4.9-37-12.6-52.9-12.6-23.1.1-56.5,11.8-56.5,47.9"></path> </clipPath> <clipPath id="clip-path-3"> <path class="cls-1" d="M968,1009.9c0,116.2,98.1,210.9,237.7,210.9,180.9,0,257.5-171.3,257.5-171.3l-89.7-2.2s-72.2,86.4-162.1,86.4c-136.7,0-199.1-66-199.1-140.2,0-47,32.5-148.9,97.7-148.9,9.5,0,31.6,3.4,44.4,4.9,5.5.6,6-5.6.6-7.4-11.7-3.8-32.4-9.7-46.2-9.7C1029.3,832.5,968,934,968,1009.9"></path> </clipPath> <clipPath id="clip-path-4"> <path class="cls-1" d="M1494.8,680.9c-6.2,2.3-5.6,10.4.6,9.6,14.6-1.9,39.9-6.3,50.8-6.3,17.4,0,25.4,14.3,25.4,29.2,0,34.1-47,85.4-47,147.3s84.6,80.8,84.6,131.7c0,54.6-37.8,53-63.8,53s-24.4-2.6-24.4-2.6l-39.3,33.4s-5.9,82.4,120.8,82.4c76.6,0,111.9-77,111.9-160.9,0-98.8-131-106.3-131-161.2s20.9-84.3,20.9-120.4-33.3-47.8-56.5-47.8c-15.9,0-39.6,7.7-53,12.6"></path> </clipPath> <clipPath id="clip-path-5"> <path class="cls-1" d="M1629.7,844.7c-6.2,2.3-5.6,10.4.6,9.6,14.6-1.9,45.1-6.3,56-6.3,74.7,0,83.9,56.2,83.9,117.4,0,81.3-74,163.3-157.5,163.3-102.8,0-91-74.4-91-74.4l-127.4-17.2s-19.3,196,236.2,196c94.3,0,201-82.7,201-234,0-98.8-52.7-166.9-143.7-166.9-15.7-.1-44.7,7.6-58.1,12.5"></path> </clipPath> <clipPath id="clip-path-6"> <rect class="cls-1" x="1312.3" y="1065.1" width="209.9" height="6.8"></rect> </clipPath> <clipPath id="clip-path-7"> <path class="cls-1" d="M1071.5,967c-6.2,2.3-5.6,10.4.6,9.6,14.6-1.9,39.9-6.3,50.8-6.3,35.5,0,62.2,19.8,62.2,54.5,0,53.1-33.7,43.9-33.7,104.8,0,67.4,61.9,120.4,157.6,120.4,169.4,0,164.6-202.4,164.6-202.4l-101.8-4.9s4.4,129.3-77.5,129.3c-44,0-76.4-18.8-76.4-61.7,0-38.9,6.1-45,6.1-77.5,0-50.6-39.4-78.3-99.7-78.3-15.7-.2-39.4,7.6-52.8,12.5"></path> </clipPath> <clipPath id="clip-path-8"> <path class="cls-1" d="M1622.7,1056.4c0,32.5,38.4,133.8-37.8,133.8-81.9,0-78.2-147.6-78.2-147.6l-128.3,4.9s-6.2,230.5,163,220.7c209.2-12.2,120.3-188.1,120.3-219.7,0-34.7,22.6-54.8,58.1-54.8,10.9,0,52.2,4.7,66.8,6.6,6.3.8,6.8-7.3.6-9.6-13.4-4.9-53.1-12.8-68.9-12.8-60.3,0-95.6,27.9-95.6,78.5"></path> </clipPath> <clipPath id="clip-path-10"> <path class="cls-1" d="M1735.3,977.9c10.3-4.8,17.8-15,18.6-25.5a17.93,17.93,0,0,0-14-6.8c-7.9,0-9.5,23.3-4.6,32.3"></path> </clipPath> <clipPath id="clip-path-11"> <path class="cls-1" d="M1679.6,963.5a17.71,17.71,0,0,0,7.1,14.2c9.3-5,16.1-14.4,17.1-24.1-1.2-4.7-3.3-8-6.3-8a17.88,17.88,0,0,0-17.9,17.9"></path> </clipPath> </defs> <title>Hint_Verizon_illustrations_1</title> <rect class="cls-2" x="-2.1" width="2800" height="1856.3"></rect> <path class="cls-3" d="M1440.4,1027.5s-19.9,99.1-146.6,99.1c-76.6,0-146.6-69.3-146.6-153.3,0-98.8,93.9-149.9,93.9-204.8s-27-83.1-27-119.2,33.3-47.8,56.5-47.8c15.8,0,39.5,7.7,52.9,12.6,6.2,2.3,5.6,10.4-.6,9.6-14.6-1.9-39.9-6.3-50.8-6.3-17.4,0-25.4,14.3-25.4,29.2,0,34.1,47,64.3,47,126.2s-70.2,126.1-70.2,187.3,62,62.2,88,62.2,89.5-28.1,89.5-28.1"></path> <g class="cls-4"> <path class="cls-5" d="M1318.3,1098.1c-98.3-26.7-139.7-82.1-139.7-135.5,0-54.1,47.5-66.3,95.9-120.5"></path> </g> <g class="cls-4"> <path class="cls-5" d="M1180,863.7c42.8-19,109.7-46.7,108.3-137.8"></path> </g> <path class="cls-6" d="M1465.5,1011.4s-65.5,196-272.4,196c-94.3,0-201-82.7-201-234,0-98.8,58-226.3,148.9-226.3,15.8,0,39.5,7.7,52.9,12.6,6.2,2.3,5.6,10.4-.6,9.6-14.6-1.9-39.9-6.3-50.8-6.3-74.7,0-89.2,115.6-89.2,176.8,0,81.3,74,163.3,157.5,163.3,102.8,0,195.7-108.6,195.7-108.6"></path> <ellipse class="cls-7" cx="1286.74" cy="1110.12" rx="7.1" ry="12.1" transform="translate(-49.79 2159.78) rotate(-78.93)"></ellipse> <path class="cls-3" d="M1463.3,1049.6s-76.6,171.3-257.5,171.3c-139.6,0-237.7-94.7-237.7-210.9,0-75.9,61.3-177.5,140.8-177.5,13.8,0,34.5,5.9,46.2,9.7,5.4,1.7,4.9,8-.5,7.4-12.8-1.5-34.9-4.9-44.4-4.9-65.3,0-97.7,101.9-97.7,148.9,0,74.2,62.4,140.2,199.1,140.2,89.9,0,162.1-86.4,162.1-86.4"></path> <g class="cls-8"> <path class="cls-5" d="M1169.1,1181.2c-75-1.4-205.3-68.4-185.9-247.1"></path> </g> <ellipse class="cls-9" cx="984.56" cy="1081.36" rx="3.8" ry="6.5" transform="translate(-310.39 401.8) rotate(-19.99)"></ellipse> <ellipse class="cls-9" cx="1176.91" cy="899.34" rx="6.5" ry="3.8" transform="translate(-100.18 1649.67) rotate(-67.82)"></ellipse> <ellipse class="cls-9" cx="1209.68" cy="880.92" rx="6.5" ry="3.8" transform="translate(-197.76 1389.32) rotate(-55.92)"></ellipse> <ellipse class="cls-9" cx="1156.13" cy="965.7" rx="6.5" ry="3.8" transform="translate(133.11 2071.44) rotate(-87.1)"></ellipse> <ellipse class="cls-9" cx="986.36" cy="1062.76" rx="3.7" ry="6.4" transform="translate(-256.42 315.85) rotate(-16.13)"></ellipse> <ellipse class="cls-9" cx="1192.3" cy="886.58" rx="6.4" ry="3.7" transform="translate(-177.32 1462.54) rotate(-59.44)"></ellipse> <ellipse class="cls-9" cx="1213.61" cy="862.22" rx="6.4" ry="3.7" transform="translate(-248.45 1142.7) rotate(-46.25)"></ellipse> <ellipse class="cls-9" cx="1174.83" cy="918.82" rx="6.4" ry="3.7" transform="translate(-123.65 1652.59) rotate(-67.5)"></ellipse> <ellipse class="cls-9" cx="1166.36" cy="952.86" rx="3.7" ry="6.4" transform="translate(-42.66 54.74) rotate(-2.64)"></ellipse> <ellipse class="cls-10" cx="975.53" cy="1047.63" rx="3.3" ry="5.6" transform="translate(-173.07 193.28) rotate(-10.4)"></ellipse> <ellipse class="cls-10" cx="1257.92" cy="839.38" rx="5.6" ry="3.3" transform="translate(-235.47 1077.54) rotate(-42.78)"></ellipse> <ellipse class="cls-10" cx="1242.52" cy="842.21" rx="5.6" ry="3.3" transform="translate(-258.1 878.43) rotate(-35.51)"></ellipse> <ellipse class="cls-10" cx="1231.8" cy="858.67" rx="5.6" ry="3.3" transform="translate(-253.51 1078.91) rotate(-43.31)"></ellipse> <ellipse class="cls-10" cx="1161.81" cy="932.13" rx="5.6" ry="3.3" transform="translate(47.65 1920.73) rotate(-80.32)"></ellipse> <ellipse class="cls-11" cx="979.51" cy="1031.01" rx="3" ry="5.1" transform="translate(-128.6 139.66) rotate(-7.65)"></ellipse> <ellipse class="cls-12" cx="971.75" cy="1016.95" rx="2.7" ry="4.7" transform="translate(-22.6 22.09) rotate(-1.29)"></ellipse> <ellipse class="cls-12" cx="975.55" cy="1003.15" rx="2.7" ry="4.7" transform="translate(-22.29 22.17) rotate(-1.29)"></ellipse> <ellipse class="cls-12" cx="971.36" cy="987.02" rx="4.7" ry="2.7" transform="translate(-80.01 1888.34) rotate(-86.06)"></ellipse> <ellipse class="cls-12" cx="1265.2" cy="825.31" rx="4.7" ry="2.7" transform="translate(-228.55 1050.23) rotate(-41.68)"></ellipse> <ellipse class="cls-12" cx="1276.94" cy="821.46" rx="4.7" ry="2.7" transform="translate(-109.23 1441.07) rotate(-56.84)"></ellipse> <ellipse class="cls-12" cx="1278.68" cy="808.25" rx="4.7" ry="2.7" transform="translate(27 1657.71) rotate(-66.46)"></ellipse> <ellipse class="cls-12" cx="1288.33" cy="798.26" rx="4.7" ry="2.7" transform="translate(194.32 1847.14) rotate(-75.58)"></ellipse> <ellipse class="cls-12" cx="1286.9" cy="785.73" rx="4.7" ry="2.7" transform="translate(293.38 1919.92) rotate(-80.19)"></ellipse> <ellipse class="cls-12" cx="1292.33" cy="773.02" rx="4.7" ry="2.7" transform="translate(417.37 1998.63) rotate(-85.36)"></ellipse> <ellipse class="cls-7" cx="1165.74" cy="1209.51" rx="7.1" ry="12.1" transform="translate(-125.94 2283.48) rotate(-85.8)"></ellipse> <ellipse class="cls-7" cx="1137.76" cy="1192.26" rx="6.6" ry="11.2" transform="translate(-212.34 2137.35) rotate(-81.33)"></ellipse> <ellipse class="cls-7" cx="1253.61" cy="1106.18" rx="6.6" ry="11.2" transform="translate(-219.76 1896.35) rotate(-69.63)"></ellipse> <ellipse class="cls-7" cx="1105.89" cy="1196.67" rx="6.2" ry="10.7" transform="translate(-348 1932.33) rotate(-74.1)"></ellipse> <ellipse class="cls-7" cx="1232.24" cy="1083.73" rx="6.2" ry="10.7" transform="translate(-289.44 1698.02) rotate(-63.31)"></ellipse> <ellipse class="cls-13" cx="1086.71" cy="1174.16" rx="5.9" ry="10.1" transform="translate(-422.27 1705.74) rotate(-66.62)"></ellipse> <ellipse class="cls-14" cx="1057.81" cy="1171.34" rx="5.3" ry="9" transform="translate(-476.51 1541.29) rotate(-61.47)"></ellipse> <ellipse class="cls-14" cx="1203.95" cy="1075.39" rx="5.3" ry="9" transform="translate(-390.33 1328.8) rotate(-50.8)"></ellipse> <ellipse class="cls-14" cx="1046.06" cy="1149.62" rx="5.1" ry="8.8" transform="translate(-496.92 1336.93) rotate(-54.62)"></ellipse> <ellipse class="cls-14" cx="1195.52" cy="1054.6" rx="5.1" ry="8.8" transform="translate(-396.04 1146.14) rotate(-44.71)"></ellipse> <ellipse class="cls-15" cx="1022.28" cy="1139.79" rx="4.8" ry="8.2" transform="translate(-506.66 1059.07) rotate(-45.09)"></ellipse> <ellipse class="cls-15" cx="1176.05" cy="1042.58" rx="4.8" ry="8.2" transform="translate(-368.85 753.86) rotate(-30.97)"></ellipse> <ellipse class="cls-16" cx="1016.5" cy="1118.29" rx="4.2" ry="7.2" transform="translate(-454.33 771.18) rotate(-34.45)"></ellipse> <ellipse class="cls-16" cx="1174.51" cy="1020.21" rx="4.2" ry="7.2" transform="translate(-305.76 541.57) rotate(-23.06)"></ellipse> <ellipse class="cls-17" cx="998.98" cy="1112.61" rx="3.9" ry="6.7" transform="translate(-432.83 681.58) rotate(-31.33)"></ellipse> <ellipse class="cls-17" cx="1160.44" cy="1004.12" rx="3.9" ry="6.7" transform="translate(-192.91 280.72) rotate(-12.74)"></ellipse> <ellipse class="cls-17" cx="999.56" cy="1093.46" rx="3.9" ry="6.7" transform="translate(-360.52 506.12) rotate(-24.21)"></ellipse> <ellipse class="cls-17" cx="1165.24" cy="985.13" rx="3.9" ry="6.7" transform="translate(-127.5 174.53) rotate(-8.12)"></ellipse> <path class="cls-3" d="M1481.6,1076.2s-5.9,82.4,120.8,82.4c76.6,0,111.9-77,111.9-160.9,0-98.8-131-106.3-131-161.2s20.9-84.3,20.9-120.4-33.3-47.8-56.5-47.8c-15.8,0-39.5,7.7-52.9,12.6-6.2,2.3-5.6,10.4.6,9.6,14.6-1.9,39.9-6.3,50.8-6.3,17.4,0,25.4,14.3,25.4,29.2,0,34.1-47,85.4-47,147.3s84.6,80.8,84.6,131.7c0,54.6-37.8,53-63.8,53s-24.4-2.6-24.4-2.6"></path> <g class="cls-18"> <path class="cls-5" d="M1614,1136c30.7-48.4,20.9-53.1,54.7-119.6,22.3-43.8-25.4-105.4-62.6-147.7"></path> </g> <path class="cls-19" d="M1394.3,1037s-19.3,196,236.2,196c94.3,0,201-82.7,201-234,0-98.8-52.7-166.9-143.7-166.9-15.8,0-44.8,7.7-58.1,12.6-6.2,2.3-5.6,10.4.6,9.6,14.6-1.9,45.1-6.3,56-6.3,74.7,0,83.9,56.2,83.9,117.4,0,81.3-74,163.3-157.5,163.3-102.8,0-91-74.4-91-74.4"></path> <g class="cls-20"> <path class="cls-9" d="M1666.6,1179.8c82.4-11.2,160.9-109.4,159.8-241.2"></path> </g> <path class="cls-19" d="M1473.6,1047.5s4.8,202.4-164.6,202.4c-95.7,0-157.6-53-157.6-120.4,0-60.9,33.7-51.7,33.7-104.8,0-34.7-26.7-54.5-62.2-54.5-10.9,0-36.2,4.4-50.8,6.3-6.3.8-6.8-7.3-.6-9.6,13.4-4.9,37-12.6,52.9-12.6,60.3,0,99.7,27.7,99.7,78.3,0,32.5-6.1,38.6-6.1,77.5,0,42.9,32.4,61.7,76.4,61.7,81.9,0,77.5-129.3,77.5-129.3"></path> <path class="cls-6" d="M1378.4,1047.5s-6.2,230.5,163,220.7c209.2-12.2,120.3-188.1,120.3-219.7,0-34.7,22.6-54.8,58.1-54.8,10.9,0,52.2,4.7,66.8,6.6,6.3.8,6.8-7.3.6-9.6-13.4-4.9-53.1-12.8-68.9-12.8-60.3,0-95.6,27.9-95.6,78.5,0,32.5,38.4,133.8-37.8,133.8-81.9,0-78.2-147.6-78.2-147.6"></path> <polygon class="cls-21" points="1523.8 602.5 1532.7 594.7 1532.7 664.6 1523.8 672.5 1523.8 602.5"></polygon> <rect class="cls-21" x="1532.7" y="594.7" width="45.5" height="70"></rect> <rect class="cls-22" x="1280.1" y="587.8" width="20.7" height="11.9"></rect> <path class="cls-19" d="M1310.5,1053.9V736.8a5.59,5.59,0,0,1,5.6-5.6h222.1a6,6,0,0,1,4,1.6l4-4a11.19,11.19,0,0,0-7.9-3.3H1316a11.18,11.18,0,0,0-11.2,11.2v317.2a11.19,11.19,0,0,0,3.3,7.9l4-4a5.52,5.52,0,0,1-1.6-3.9"></path> <path class="cls-23" d="M1546.1,728.8l-4,4a5.52,5.52,0,0,1,1.6,3.9v317.1a5.59,5.59,0,0,1-5.6,5.6H1316a5.28,5.28,0,0,1-4-1.7l-4,4a11.19,11.19,0,0,0,7.9,3.3h222.2a11.18,11.18,0,0,0,11.2-11.2v-317a10.7,10.7,0,0,0-3.2-8"></path> <path class="cls-6" d="M1542.1,732.9a5.58,5.58,0,0,0-4-1.6H1316a5.59,5.59,0,0,0-5.6,5.6V1054a5.52,5.52,0,0,0,1.6,3.9,5.66,5.66,0,0,0,4,1.7h222.1a5.59,5.59,0,0,0,5.6-5.6V736.8a5.52,5.52,0,0,0-1.6-3.9"></path> <path class="cls-3" d="M1333.1,1010h0a1.37,1.37,0,0,1,1.4-1.4h185.2a1.4,1.4,0,1,1,0,2.8H1334.5a1.37,1.37,0,0,1-1.4-1.4"></path> <path class="cls-24" d="M1222,599.7h0a2.22,2.22,0,0,1,2.2-2.2h78.9a2.2,2.2,0,0,1,0,4.4h-78.9a2.22,2.22,0,0,1-2.2-2.2"></path> <path class="cls-3" d="M1342.9,861.7h0a1.37,1.37,0,0,1,1.4-1.4h185.2a1.4,1.4,0,0,1,0,2.8H1344.3a1.37,1.37,0,0,1-1.4-1.4"></path> <path class="cls-3" d="M1342.9,869.3h0a1.37,1.37,0,0,1,1.4-1.4h185.2a1.4,1.4,0,0,1,0,2.8H1344.3a1.43,1.43,0,0,1-1.4-1.4"></path> <path class="cls-3" d="M1333.1,1021.3h0a1.37,1.37,0,0,1,1.4-1.4h185.2a1.4,1.4,0,1,1,0,2.8H1334.5a1.37,1.37,0,0,1-1.4-1.4"></path> <path class="cls-3" d="M1333.1,1032.6h0a1.37,1.37,0,0,1,1.4-1.4h185.2a1.4,1.4,0,1,1,0,2.8H1334.5a1.37,1.37,0,0,1-1.4-1.4"></path> <path class="cls-3" d="M1333.1,1043.9h0a1.37,1.37,0,0,1,1.4-1.4h185.2a1.4,1.4,0,1,1,0,2.8H1334.5a1.31,1.31,0,0,1-1.4-1.4"></path> <rect class="cls-23" x="1378.4" y="989.5" width="165.3" height="2.8"></rect> <g class="cls-25"> <g class="cls-26"> <polygon class="cls-23" points="1312.3 1072 1522.2 1072 1521.4 1065.1 1323.6 1065.1 1312.3 1072"></polygon> </g> </g> <rect class="cls-19" x="1310.5" y="989.5" width="67.9" height="2.8"></rect> <path class="cls-27" d="M1108,747.2V673.6a1.58,1.58,0,0,1,1.6-1.6h51.3a1.61,1.61,0,0,1,1.1.5l1.1-1.1a3.17,3.17,0,0,0-2.3-.9h-51.3a3.16,3.16,0,0,0-3.2,3.2v73.7a3.64,3.64,0,0,0,.9,2.3l1.2-1.2a2.84,2.84,0,0,1-.4-1.3"></path> <path class="cls-28" d="M1163.2,671.3l-1.1,1.1a1.61,1.61,0,0,1,.5,1.1v73.6a1.58,1.58,0,0,1-1.6,1.6h-51.3a1.61,1.61,0,0,1-1.1-.5l-1.2,1.2a3.17,3.17,0,0,0,2.3.9H1161a3.16,3.16,0,0,0,3.2-3.2V673.4a4.54,4.54,0,0,0-1-2.1"></path> <path class="cls-29" d="M1109.6,672a1.58,1.58,0,0,0-1.6,1.6v73.6a1.29,1.29,0,0,0,.5,1.1,1.61,1.61,0,0,0,1.1.5h51.3a1.58,1.58,0,0,0,1.6-1.6V673.6a1.72,1.72,0,0,0-1.6-1.6Zm25.7,2.4a.8.8,0,1,1-.8.8.74.74,0,0,1,.8-.8m4.8,71.2h-9.6a1.6,1.6,0,1,1,0-3.2h9.6a1.6,1.6,0,0,1,0,3.2m20.8-6.4h-51.2V678.4h51.2Z"></path> <rect class="cls-30" x="1109.7" y="678.4" width="51.2" height="60.8"></rect> <path class="cls-28" d="M1140.1,742.4h-9.6a1.6,1.6,0,1,0,0,3.2h9.6a1.6,1.6,0,0,0,0-3.2"></path> <path class="cls-27" d="M1135.3,676a.8.8,0,1,0-.8-.8.79.79,0,0,0,.8.8"></path> <rect class="cls-30" x="1109.7" y="678.4" width="51.2" height="60.8"></rect> <polygon class="cls-22" points="1160.9 678.4 1135.3 715.1 1152.1 739.2 1160.9 739.2 1160.9 678.4"></polygon> <polygon class="cls-22" points="1109.7 678.4 1109.7 739.2 1118.4 739.2 1135.3 715.1 1109.7 678.4"></polygon> <polygon class="cls-30" points="1160.9 678.4 1160.9 678.4 1109.7 678.4 1135.3 715.1 1160.9 678.4"></polygon> <polygon class="cls-31" points="1118.4 739.2 1152.1 739.2 1135.3 715.1 1118.4 739.2"></polygon> <polygon class="cls-30" points="1479.6 747.2 1323.8 746.5 1402 880.3 1479.6 747.2"></polygon> <polygon class="cls-22" points="1323.7 746.5 1323.7 975.9 1346.1 975.9 1402 880.6 1323.7 746.5"></polygon> <polygon class="cls-31" points="1346.1 975.9 1458 975.9 1402 880.9 1346.1 975.9"></polygon> <polygon class="cls-22" points="1402.2 880.6 1458 975.9 1479.9 975.9 1479.9 747.2 1402.2 880.6"></polygon> <path class="cls-23" d="M1495.5,847.6a5.39,5.39,0,0,0,3.7,2.1h26.6c2.7,0,5.6-3.1,5.6-5.8V807.5a4.7,4.7,0,0,0-1.6-3.1Z"></path> <path class="cls-19" d="M1525.8,803.1h-26.6a3.94,3.94,0,0,0-4.3,4.3v36.4a4.66,4.66,0,0,0,1,3.3l33.8-42.7a5.93,5.93,0,0,0-3.9-1.3"></path> <path class="cls-3" d="M1526,846.4h-26.6a2.48,2.48,0,0,1-2.5-2.5v-37a2.48,2.48,0,0,1,2.5-2.5H1526a2.48,2.48,0,0,1,2.5,2.5v37a2.54,2.54,0,0,1-2.5,2.5"></path> <path class="cls-6" d="M1505.1,814.6h-4a1.54,1.54,0,0,1-1.5-1.5v-4a1.54,1.54,0,0,1,1.5-1.5h4a1.54,1.54,0,0,1,1.5,1.5v4a1.37,1.37,0,0,1-1.5,1.5"></path> <path class="cls-6" d="M1514.7,814.6h-4a1.54,1.54,0,0,1-1.5-1.5v-4a1.54,1.54,0,0,1,1.5-1.5h4a1.54,1.54,0,0,1,1.5,1.5v4a1.47,1.47,0,0,1-1.5,1.5"></path> <path class="cls-6" d="M1524.2,814.6h-4a1.54,1.54,0,0,1-1.5-1.5v-4a1.54,1.54,0,0,1,1.5-1.5h4a1.54,1.54,0,0,1,1.5,1.5v4a1.47,1.47,0,0,1-1.5,1.5"></path> <path class="cls-6" d="M1505.1,824.2h-4a1.54,1.54,0,0,1-1.5-1.5v-4a1.54,1.54,0,0,1,1.5-1.5h4a1.54,1.54,0,0,1,1.5,1.5v4a1.42,1.42,0,0,1-1.5,1.5"></path> <path class="cls-6" d="M1514.7,824.2h-4a1.54,1.54,0,0,1-1.5-1.5v-4a1.54,1.54,0,0,1,1.5-1.5h4a1.54,1.54,0,0,1,1.5,1.5v4a1.54,1.54,0,0,1-1.5,1.5"></path> <path class="cls-6" d="M1524.2,824.2h-4a1.54,1.54,0,0,1-1.5-1.5v-4a1.54,1.54,0,0,1,1.5-1.5h4a1.54,1.54,0,0,1,1.5,1.5v4a1.54,1.54,0,0,1-1.5,1.5"></path> <path class="cls-6" d="M1505.1,833.7h-4a1.54,1.54,0,0,1-1.5-1.5v-4a1.54,1.54,0,0,1,1.5-1.5h4a1.54,1.54,0,0,1,1.5,1.5v4a1.42,1.42,0,0,1-1.5,1.5"></path> <path class="cls-6" d="M1514.7,833.7h-4a1.54,1.54,0,0,1-1.5-1.5v-4a1.54,1.54,0,0,1,1.5-1.5h4a1.54,1.54,0,0,1,1.5,1.5v4a1.54,1.54,0,0,1-1.5,1.5"></path> <path class="cls-6" d="M1514.7,843.2h-4a1.54,1.54,0,0,1-1.5-1.5v-4a1.54,1.54,0,0,1,1.5-1.5h4a1.54,1.54,0,0,1,1.5,1.5v4a1.54,1.54,0,0,1-1.5,1.5"></path> <path class="cls-6" d="M1524.2,833.7h-4a1.54,1.54,0,0,1-1.5-1.5v-4a1.54,1.54,0,0,1,1.5-1.5h4a1.54,1.54,0,0,1,1.5,1.5v4a1.54,1.54,0,0,1-1.5,1.5"></path> <rect class="cls-29" x="1333.1" y="762.4" width="38" height="48.7"></rect> <rect class="cls-32" x="1083.3" y="862.7" width="75.3" height="96.6"></rect> <polygon class="cls-33" points="1158.6 959.3 1083.3 959.3 1081.2 960.9 1157.1 960.9 1158.6 959.3"></polygon> <polygon class="cls-33" points="1081.2 960.9 1083.3 959.3 1083.3 862.7 1081.2 864.2 1081.2 960.9"></polygon> <rect class="cls-34" x="1534.3" y="596.4" width="42.4" height="66.7"></rect> <polygon class="cls-34" points="1525.6 670.9 1523.8 672.5 1570.6 672.5 1572.1 670.9 1525.7 670.9 1525.6 670.9"></polygon> <polygon class="cls-35" points="1532.6 664.8 1530.9 666.3 1525.6 670.9 1525.7 670.9 1572.1 670.9 1576.8 666.3 1578.3 664.8 1532.6 664.8"></polygon> <polygon class="cls-34" points="1525.5 668.8 1531.1 663.9 1531.1 598.4 1525.5 603.3 1525.5 668.8"></polygon> <rect class="cls-29" x="1382.7" y="762.4" width="38" height="48.7"></rect> <rect class="cls-29" x="1432.4" y="762.4" width="38" height="48.7"></rect> <rect class="cls-29" x="1333.1" y="821.3" width="38" height="48.7"></rect> <rect class="cls-29" x="1382.7" y="821.3" width="38" height="48.7"></rect> <rect class="cls-29" x="1432.4" y="821.3" width="38" height="48.7"></rect> <rect class="cls-29" x="1333.1" y="880.3" width="38" height="48.7"></rect> <rect class="cls-29" x="1382.7" y="880.3" width="38" height="48.7"></rect> <rect class="cls-29" x="1432.4" y="880.3" width="38" height="48.7"></rect> <path class="cls-33" d="M1090.6,875.6h0a5.34,5.34,0,0,1,5.3-5.3h50.7a5.3,5.3,0,1,1,0,10.6h-50.7a5.33,5.33,0,0,1-5.3-5.3"></path> <path class="cls-21" d="M1538.6,604.2h0a3,3,0,0,1,3-3h28.3a3,3,0,0,1,0,6h-28.3a3.08,3.08,0,0,1-3-3"></path> <path class="cls-21" d="M1538.6,613.3h0a3,3,0,0,1,3-3h28.3a3,3,0,0,1,3,3,3,3,0,0,1-3,3h-28.3a3.08,3.08,0,0,1-3-3"></path> <line class="cls-36" x1="1531.8" y1="665.5" x2="1577.6" y2="665.5"></line> <line class="cls-36" x1="1531" y1="666.2" x2="1576.8" y2="666.2"></line> <line class="cls-36" x1="1530.3" y1="666.9" x2="1576.1" y2="666.9"></line> <line class="cls-36" x1="1529.5" y1="667.6" x2="1575.3" y2="667.6"></line> <line class="cls-36" x1="1528.8" y1="668.3" x2="1574.6" y2="668.3"></line> <line class="cls-36" x1="1528" y1="669" x2="1573.8" y2="669"></line> <line class="cls-36" x1="1527.3" y1="669.7" x2="1573.1" y2="669.7"></line> <line class="cls-36" x1="1526.2" y1="670.4" x2="1572.1" y2="670.4"></line> <path class="cls-33" d="M1133.6,907.2a12.4,12.4,0,1,1-12.4-12.4,12.4,12.4,0,0,1,12.4,12.4"></path> <path class="cls-33" d="M1140.1,945.3h-37.7c-2.1,0-3.5-2.4-3-4.7,2.3-9.5,11.2-16.6,21.8-16.6s19.6,7.1,21.8,16.6c.6,2.4-.8,4.7-2.9,4.7"></path> <ellipse class="cls-9" cx="1810.2" cy="1098.84" rx="6.5" ry="3.8" transform="translate(101.03 2349.04) rotate(-67.44)"></ellipse> <ellipse class="cls-9" cx="1809.07" cy="1080.5" rx="6.4" ry="3.7" transform="translate(205.73 2447.81) rotate(-71.31)"></ellipse> <ellipse class="cls-10" cx="1820.84" cy="1065.72" rx="5.6" ry="3.3" transform="translate(374 2601.26) rotate(-77.04)"></ellipse> <ellipse class="cls-11" cx="1817.89" cy="1048.58" rx="5.1" ry="3" transform="matrix(0.18, -0.98, 0.98, 0.18, 463.62, 2651.76)"></ellipse> <ellipse class="cls-12" cx="1826.29" cy="1034.9" rx="4.7" ry="2.7" transform="translate(671.29 2787.71) rotate(-86.16)"></ellipse> <ellipse class="cls-12" cx="1825.65" cy="1019.24" rx="4.7" ry="2.7" transform="translate(686.33 2772.46) rotate(-86.16)"></ellipse> <ellipse class="cls-12" cx="1829.16" cy="1005.28" rx="4.7" ry="2.7" transform="translate(818.7 2831.59) rotate(-89.84)"></ellipse> <ellipse class="cls-7" cx="1683.9" cy="1208.5" rx="10.7" ry="6.2" transform="translate(-233.46 421.27) rotate(-13.34)"></ellipse> <ellipse class="cls-13" cx="1704.27" cy="1186.88" rx="10.1" ry="5.9" transform="translate(-310.55 683.2) rotate(-20.82)"></ellipse> <ellipse class="cls-14" cx="1733.24" cy="1185.43" rx="9" ry="5.3" transform="translate(-344.05 878.43) rotate(-25.96)"></ellipse> <ellipse class="cls-14" cx="1745.93" cy="1164.32" rx="8.8" ry="5.1" transform="translate(-352.37 1131.94) rotate(-32.81)"></ellipse> <ellipse class="cls-15" cx="1770.11" cy="1155.61" rx="8.2" ry="4.8" transform="translate(-316.54 1494.14) rotate(-42.35)"></ellipse> <ellipse class="cls-16" cx="1776.9" cy="1134.41" rx="7.2" ry="4.2" transform="translate(-198.62 1870.35) rotate(-52.99)"></ellipse> <ellipse class="cls-17" cx="1794.48" cy="1129.6" rx="6.7" ry="3.9" transform="translate(-143.82 1989.34) rotate(-56.11)"></ellipse> <ellipse class="cls-17" cx="1794.89" cy="1110.1" rx="6.7" ry="3.9" transform="translate(-4.76 2212.46) rotate(-63.22)"></ellipse> <ellipse class="cls-7" cx="1404.19" cy="1196.09" rx="12.1" ry="7.1" transform="translate(-437.53 1093.81) rotate(-37.25)"></ellipse> <ellipse class="cls-7" cx="1383.33" cy="1224.33" rx="12.1" ry="7.1" transform="translate(-450.39 1000.6) rotate(-34.55)"></ellipse> <ellipse class="cls-37" cx="1485.57" cy="1256.14" rx="7.1" ry="12.1" transform="translate(-9.64 2500.79) rotate(-79.99)"></ellipse> <ellipse class="cls-7" cx="1350.76" cy="1227.38" rx="10.7" ry="6.2" transform="translate(-240.43 333.44) rotate(-12.93)"></ellipse> <ellipse class="cls-14" cx="1327.52" cy="1244.92" rx="9" ry="5.3" transform="matrix(0.99, -0.14, 0.14, 0.99, -157.19, 192.41)"></ellipse> <ellipse class="cls-38" cx="1633.28" cy="1191.37" rx="9" ry="5.3" transform="translate(-60.79 2294.6) rotate(-69.18)"></ellipse> <ellipse class="cls-38" cx="1656.98" cy="1182.85" rx="9" ry="5.3" transform="translate(346.97 2741.24) rotate(-85.47)"></ellipse> <ellipse class="cls-14" cx="1302.22" cy="1239.12" rx="9" ry="5.3" transform="translate(-156.63 188.91) rotate(-7.83)"></ellipse> <path class="cls-15" d="M1283.2,1246.8c-.1,2.7-3.8,3-8.4,2.8s-8.2-.9-8.1-3.5,3.9-4.6,8.4-4.4C1279.8,1241.8,1283.4,1244.2,1283.2,1246.8Z"></path> <g class="cls-39"> <path class="cls-9" d="M1416.8,1154.9c-27.7,52.1-139.6,89.7-204.4,75.3"></path> </g> <ellipse class="cls-7" cx="1679.83" cy="1093.84" rx="12.1" ry="7.1" transform="translate(-22.01 2153.12) rotate(-64.97)"></ellipse> <ellipse class="cls-7" cx="1679.48" cy="1057.95" rx="12.1" ry="7.1" transform="translate(341.71 2524.34) rotate(-79.83)"></ellipse> <ellipse class="cls-7" cx="1698.09" cy="1030.86" rx="12.1" ry="7.1" transform="translate(520.77 2630.89) rotate(-84.91)"></ellipse> <ellipse class="cls-13" cx="1686.32" cy="1001.45" rx="10.1" ry="5.9" transform="translate(381.23 2465.45) rotate(-78.99)"></ellipse> <ellipse class="cls-13" cx="1702.9" cy="977.7" rx="5.9" ry="10.1"></ellipse> <ellipse class="cls-14" cx="1685.01" cy="935.59" rx="5.3" ry="9" transform="translate(-219.87 1228.87) rotate(-37.79)"></ellipse> <ellipse class="cls-15" cx="1664.61" cy="925.5" rx="4.8" ry="8.2" transform="translate(-231.86 1101.16) rotate(-34.37)"></ellipse> <ellipse class="cls-16" cx="1651.93" cy="905.91" rx="4.2" ry="7.2" transform="translate(-107.61 1579.38) rotate(-49.68)"></ellipse> <ellipse class="cls-14" cx="1686.5" cy="959.6" rx="5.3" ry="9" transform="translate(-181.39 434.15) rotate(-13.93)"></ellipse> <g class="cls-40"> <path class="cls-41" d="M1433.5,1230.6c54.3,25.3,176.5,3.3,192.2-67.2"></path> </g> <g class="cls-40"> <path class="cls-41" d="M1667.7,1214.1c15.5-41-8.6-96.6-41.8-126.6"></path> </g> <ellipse class="cls-37" cx="1520.84" cy="1253.63" rx="11.2" ry="6.6" transform="translate(-46.66 58.85) rotate(-2.18)"></ellipse> <ellipse class="cls-37" cx="1552.79" cy="1261.89" rx="11.2" ry="6.6" transform="translate(-118.18 161.27) rotate(-5.73)"></ellipse> <ellipse class="cls-37" cx="1572.46" cy="1239.99" rx="11.2" ry="6.6" transform="translate(-306.06 546.19) rotate(-17.99)"></ellipse> <ellipse class="cls-37" cx="1603.35" cy="1245.91" rx="10.7" ry="6.2" transform="translate(-367.63 757.81) rotate(-23.94)"></ellipse> <ellipse class="cls-37" cx="1611.62" cy="1218.07" rx="10.7" ry="6.2" transform="translate(-408.34 1245.9) rotate(-37.87)"></ellipse> <ellipse class="cls-37" cx="1638.61" cy="1223.11" rx="10.7" ry="6.2" transform="translate(-353.62 1683.59) rotate(-49.75)"></ellipse> <ellipse class="cls-42" cx="1638.75" cy="1162.67" rx="4.8" ry="8.2" transform="translate(-200.5 353.69) rotate(-11.61)"></ellipse> <ellipse class="cls-42" cx="1648.44" cy="1141.3" rx="4.8" ry="8.2" transform="translate(-295.71 651.2) rotate(-20.55)"></ellipse> <ellipse class="cls-42" cx="1635.93" cy="1117.23" rx="4.8" ry="8.2" transform="translate(-327.66 855) rotate(-26.72)"></ellipse> <path class="cls-29" d="M1646.7,778.3a53.43,53.43,0,0,1,1.4-12.1l1.5-5.3a11.51,11.51,0,0,1,21.5,5.8v-.5a28.6,28.6,0,0,0,57.2,0v.5a11.61,11.61,0,0,1,11.6-11.6,2.2,2.2,0,0,1,.8.1,21.75,21.75,0,0,0-.1-2.6c-.3,0-.5-.1-.8-.1-7.8,0-14.1,7.4-14.1,14h0c-.3,13.3-11.9,25.7-26.2,25.7s-26.2-12.4-26.2-25.7h0c-.3-6.6-6.2-13.8-13.8-13.8a13.73,13.73,0,0,0-12.1,6.9l-.2.3-1.5,5.7a53.18,53.18,0,0,0-1.4,12.7,55.76,55.76,0,0,0,21.8,44.1,41.53,41.53,0,0,0,4.9.3,52.56,52.56,0,0,1-24.3-44.4"></path> <path class="cls-43" d="M1753.7,765.6a49.77,49.77,0,0,0-1.6-5.5l-.1-.2-.1-.2a14.39,14.39,0,0,0-11.5-7.1,21.75,21.75,0,0,0,.1,2.6,11.61,11.61,0,0,1,9.2,5.8,46.09,46.09,0,0,1,1.5,5.3,53,53,0,0,1-80.5,56.5l-4.9-.3a55.5,55.5,0,0,0,89.2-44.1,46.05,46.05,0,0,0-1.3-12.8"></path> <path class="cls-44" d="M1670.8,822.8a53,53,0,0,0,81.9-44.4,53.43,53.43,0,0,0-1.4-12.1,52.6,52.6,0,0,0-1.5-5.3,11.86,11.86,0,0,0-9.2-5.8c.2,35.2-24.4,69.5-69.8,67.6"></path> <path class="cls-43" d="M1728.1,766.7v-.5a28.6,28.6,0,0,1-57.2,0v.5a11.51,11.51,0,0,0-21.5-5.8l-1.5,5.3a53.43,53.43,0,0,0-1.4,12.1,52.85,52.85,0,0,0,24.1,44.4c45.4,1.9,70-32.3,69.7-67.5-.3,0-.5-.1-.8-.1a11.63,11.63,0,0,0-11.4,11.6"></path> <path class="cls-45" d="M1718.7,903.3a29.45,29.45,0,0,0-29.4,29.4v16.4h6V932.7a23.43,23.43,0,0,1,23.4-23.4,23.15,23.15,0,0,1,11.1,2.8l3.7-4.8a29.23,29.23,0,0,0-14.8-4"></path> <path class="cls-46" d="M1733.6,907.3l-3.7,4.8a23.5,23.5,0,0,1,12.3,20.6v16.4h6V932.7a29.62,29.62,0,0,0-14.6-25.4"></path> <path class="cls-47" d="M1754,952.4a17.93,17.93,0,0,0-14-6.8c-8,0-9.5,23.3-4.6,32.3,10.2-4.8,17.7-15,18.6-25.5"></path> <path class="cls-48" d="M1754,952.4c-.8,10.5-8.4,20.7-18.6,25.5,1.2,2.1,2.7,3.5,4.6,3.5a17.88,17.88,0,0,0,17.9-17.9,18.44,18.44,0,0,0-3.9-11.1"></path> <path class="cls-48" d="M1686.7,977.7a17.62,17.62,0,0,0,10.8,3.7c6.9,0,8.9-17.2,6.3-27.8-1,9.8-7.8,19.2-17.1,24.1"></path> <path class="cls-47" d="M1703.8,953.6c-1.2-4.7-3.3-8-6.3-8a17.85,17.85,0,0,0-10.8,32.1c9.3-4.9,16.1-14.3,17.1-24.1"></path> <g class="cls-49"> <path class="cls-50" d="M1741.6,945a38.28,38.28,0,0,0-4.5,18.4,41.8,41.8,0,0,0,4.2,17.7"></path> </g> <g class="cls-51"> <path class="cls-50" d="M1695.4,944.8s5.2,9.2,5.2,19.1a35,35,0,0,1-5.4,17.8"></path> </g> </svg>