<svg xmlns="http://www.w3.org/2000/svg" xmlns:xlink="http://www.w3.org/1999/xlink" viewBox="0 0 2800 1856.3"> <defs> <style>.cls-1,.cls-14,.cls-66,.cls-67,.cls-69,.cls-70,.cls-9{fill:none;}.cls-2{isolation:isolate;}.cls-3{fill:#f1f2f2;}.cls-4{fill:#2e93b7;}.cls-5{fill:#49c6f3;}.cls-6{fill:#abacac;}.cls-7{fill:#d6effb;}.cls-8{fill:#e9f6fd;}.cls-66,.cls-69,.cls-9{stroke:#2e93b7;}.cls-66,.cls-70,.cls-9{stroke-miterlimit:9;}.cls-14,.cls-66,.cls-70,.cls-9{stroke-width:2.1px;}.cls-10{fill:#15a8e0;}.cls-11{fill:#3f3d3d;}.cls-12{fill:#9e9b9a;}.cls-13{fill:#696768;}.cls-14{stroke:#514f50;}.cls-14,.cls-67,.cls-69{stroke-miterlimit:10;}.cls-15{fill:#fff;}.cls-16{fill:#ec1c24;}.cls-17{fill:#514f50;}.cls-18{fill:#89d0cc;}.cls-19{fill:#00b4a2;}.cls-20{fill:#5bc3be;}.cls-21{fill:#f8a84d;}.cls-22{fill:#eb2e2b;}.cls-23{mix-blend-mode:multiply;}.cls-24{clip-path:url(#clip-path);}.cls-25{clip-path:url(#clip-path-2);}.cls-26{opacity:0.5;}.cls-27{clip-path:url(#clip-path-3);}.cls-28{clip-path:url(#clip-path-4);}.cls-29{clip-path:url(#clip-path-5);}.cls-30{clip-path:url(#clip-path-6);}.cls-31{clip-path:url(#clip-path-7);}.cls-32{clip-path:url(#clip-path-8);}.cls-33{clip-path:url(#clip-path-9);}.cls-34{clip-path:url(#clip-path-10);}.cls-35{clip-path:url(#clip-path-11);}.cls-36{clip-path:url(#clip-path-12);}.cls-37{clip-path:url(#clip-path-13);}.cls-38{clip-path:url(#clip-path-14);}.cls-39{clip-path:url(#clip-path-15);}.cls-40{clip-path:url(#clip-path-17);}.cls-41{clip-path:url(#clip-path-18);}.cls-42{clip-path:url(#clip-path-19);}.cls-43{clip-path:url(#clip-path-21);}.cls-44{clip-path:url(#clip-path-22);}.cls-45{clip-path:url(#clip-path-23);}.cls-46{clip-path:url(#clip-path-25);}.cls-47{clip-path:url(#clip-path-26);}.cls-48{fill:#fdc984;}.cls-49{fill:#f38a18;}.cls-50{fill:#e37516;}.cls-51{fill:#908e8d;}.cls-52{clip-path:url(#clip-path-27);}.cls-53{clip-path:url(#clip-path-28);}.cls-54{clip-path:url(#clip-path-29);}.cls-55{clip-path:url(#clip-path-30);}.cls-56{clip-path:url(#clip-path-31);}.cls-57{clip-path:url(#clip-path-32);}.cls-58{clip-path:url(#clip-path-33);}.cls-59{clip-path:url(#clip-path-34);}.cls-60{clip-path:url(#clip-path-35);}.cls-61{clip-path:url(#clip-path-36);}.cls-62{clip-path:url(#clip-path-37);}.cls-63{clip-path:url(#clip-path-38);}.cls-64{clip-path:url(#clip-path-39);}.cls-65{clip-path:url(#clip-path-40);}.cls-66,.cls-67,.cls-69{stroke-linecap:round;}.cls-67{stroke:#a0dbf7;stroke-width:1.76px;}.cls-68{fill:#82d2f5;}.cls-69{stroke-width:4.2px;}.cls-70{stroke:#15a8e0;}</style> <clipPath id="clip-path"> <rect class="cls-1" x="1583.98" y="1054.08" width="111.89" height="111.89"></rect> </clipPath> <clipPath id="clip-path-2"> <rect class="cls-1" x="1099.73" y="1054.08" width="111.89" height="111.89"></rect> </clipPath> <clipPath id="clip-path-3"> <rect class="cls-1" x="782.34" y="1140.5" width="136" height="10.67"></rect> </clipPath> <clipPath id="clip-path-4"> <rect class="cls-1" x="782.34" y="1140.5" width="99.99" height="10.67"></rect> </clipPath> <clipPath id="clip-path-5"> <rect class="cls-1" x="782.34" y="1129.84" width="136" height="10.67"></rect> </clipPath> <clipPath id="clip-path-6"> <rect class="cls-1" x="782.34" y="1129.84" width="99.99" height="10.66"></rect> </clipPath> <clipPath id="clip-path-7"> <rect class="cls-1" x="782.34" y="1119.18" width="136" height="10.66"></rect> </clipPath> <clipPath id="clip-path-8"> <rect class="cls-1" x="782.34" y="1119.18" width="99.99" height="10.66"></rect> </clipPath> <clipPath id="clip-path-9"> <rect class="cls-1" x="782.34" y="1108.52" width="136" height="10.66"></rect> </clipPath> <clipPath id="clip-path-10"> <rect class="cls-1" x="782.34" y="1108.52" width="99.99" height="10.66"></rect> </clipPath> <clipPath id="clip-path-11"> <rect class="cls-1" x="782.34" y="1087.2" width="136" height="10.67"></rect> </clipPath> <clipPath id="clip-path-12"> <rect class="cls-1" x="782.34" y="1087.2" width="99.99" height="10.66"></rect> </clipPath> <clipPath id="clip-path-13"> <rect class="cls-1" x="782.34" y="1097.86" width="136" height="10.66"></rect> </clipPath> <clipPath id="clip-path-14"> <rect class="cls-1" x="782.34" y="1097.86" width="99.99" height="10.66"></rect> </clipPath> <clipPath id="clip-path-15"> <rect class="cls-1" x="809.53" y="1140.68" width="99.99" height="10.67"></rect> </clipPath> <clipPath id="clip-path-17"> <rect class="cls-1" x="809.53" y="1130.01" width="99.99" height="10.66"></rect> </clipPath> <clipPath id="clip-path-18"> <rect class="cls-1" x="809.53" y="1130.02" width="99.99" height="10.66"></rect> </clipPath> <clipPath id="clip-path-19"> <rect class="cls-1" x="809.53" y="1119.36" width="99.99" height="10.66"></rect> </clipPath> <clipPath id="clip-path-21"> <rect class="cls-1" x="809.53" y="1108.69" width="99.99" height="10.66"></rect> </clipPath> <clipPath id="clip-path-22"> <rect class="cls-1" x="809.53" y="1108.7" width="99.99" height="10.66"></rect> </clipPath> <clipPath id="clip-path-23"> <rect class="cls-1" x="809.53" y="1087.37" width="99.99" height="10.67"></rect> </clipPath> <clipPath id="clip-path-25"> <rect class="cls-1" x="809.53" y="1098.04" width="99.99" height="10.66"></rect> </clipPath> <clipPath id="clip-path-26"> <rect class="cls-1" x="809.53" y="1098.04" width="99.99" height="10.66"></rect> </clipPath> <clipPath id="clip-path-27"> <rect class="cls-1" x="867.87" y="760.82" width="43.01" height="43.01"></rect> </clipPath> <clipPath id="clip-path-28"> <rect class="cls-1" x="870.78" y="763.73" width="37.19" height="37.19" transform="translate(-33.77 1524.52) rotate(-80.13)"></rect> </clipPath> <clipPath id="clip-path-29"> <rect class="cls-1" x="1049.83" y="848.09" width="30.88" height="30.88"></rect> </clipPath> <clipPath id="clip-path-30"> <rect class="cls-1" x="1049.94" y="848.2" width="30.66" height="30.65" transform="translate(-6.24 7.75) rotate(-0.42)"></rect> </clipPath> <clipPath id="clip-path-31"> <rect class="cls-1" x="824.09" y="943.93" width="51.69" height="51.69"></rect> </clipPath> <clipPath id="clip-path-32"> <rect class="cls-1" x="824.09" y="943.93" width="51.69" height="51.69"></rect> </clipPath> <clipPath id="clip-path-33"> <rect class="cls-1" x="933.7" y="914.29" width="36.96" height="36.96"></rect> </clipPath> <clipPath id="clip-path-34"> <rect class="cls-1" x="934.16" y="914.74" width="36.06" height="36.06" transform="translate(-4.39 1861.04) rotate(-88.55)"></rect> </clipPath> <clipPath id="clip-path-35"> <rect class="cls-1" x="761.92" y="1062.46" width="75.2" height="24.91"></rect> </clipPath> <clipPath id="clip-path-36"> <rect class="cls-1" x="761.92" y="1062.46" width="75.2" height="24.91"></rect> </clipPath> <clipPath id="clip-path-37"> <rect class="cls-1" x="761.92" y="1155.75" width="74.17" height="22.47"></rect> </clipPath> <clipPath id="clip-path-38"> <rect class="cls-1" x="761.92" y="1155.75" width="74.17" height="22.47"></rect> </clipPath> <clipPath id="clip-path-39"> <rect class="cls-1" x="1048.19" y="914.66" width="36.45" height="33.19"></rect> </clipPath> <clipPath id="clip-path-40"> <rect class="cls-1" x="1052.04" y="914.94" width="28.75" height="32.62" transform="translate(-10.16 1850.74) rotate(-81.63)"></rect> </clipPath> </defs> <title>Hint_Verizon_illustrations_1</title> <g class="cls-2"> <g id="Layer_1"> <rect class="cls-1" x="802.7" y="1253.6" width="101.2" height="10.8"></rect> <rect class="cls-1" x="754.5" y="1217.6" width="76.1" height="25.2"></rect> <rect class="cls-1" x="754.5" y="1312" width="75" height="22.7"></rect> <rect class="cls-3" width="2800" height="1856.3"></rect> <polygon class="cls-4" points="1091.46 1139.85 1239.04 1139.85 1253.73 1115.91 1218.56 1039.94 1103.78 1040.23 1082.36 1113.84 1091.46 1139.85"></polygon> <polygon class="cls-4" points="1575.77 1139.85 1723.35 1139.85 1738.04 1115.91 1702.87 1039.94 1588.1 1040.23 1566.67 1113.84 1575.77 1139.85"></polygon> <path class="cls-5" d="M1231.46,1010.56l-62.05-89c-15.24-20.46-34.12-51.81-59.26-66l115.52,160.8Z"></path> <path class="cls-5" d="M1769.29,985.85,1727.13,987c-64.59-54.23-157.45-86.94-248.39-86.94a370.24,370.24,0,0,0-254.24,100.7l2.32,7.84-184.44,24a60.79,60.79,0,0,0-9.79,7.6c-5.37,4.38-16.53,24.18-19,30.93a48.73,48.73,0,0,0-1.63,11.82l9.6,43.15a13.73,13.73,0,0,0,13.73,13.73h56.2a76.59,76.59,0,1,1,147.58,0l354.62-72.62a76.32,76.32,0,0,1,86.57-17.73l110-22.52a11.36,11.36,0,0,1-.85-4.09c0-8.26,9.12-15.13,21.22-16.7-1.24-12.84,21.7-20.81-41.31-20.36M1442.79,995l-187.64,5.24a301.56,301.56,0,0,1,187.64-83.57Zm136.7-3.82-114.69,3.2v-78.6a301.76,301.76,0,0,1,114.69,22.55Zm8.87-.25V942.13a302.77,302.77,0,0,1,73.58,46.71Z"></path> <path class="cls-6" d="M1799.06,1192.06H1032a5.84,5.84,0,0,1,0-11.68h767a5.84,5.84,0,1,1,0,11.68"></path> <path class="cls-6" d="M920.51,1192.06H752.76a5.84,5.84,0,1,1,0-11.68H920.51a5.84,5.84,0,1,1,0,11.68"></path> <path class="cls-6" d="M2047.24,1192.06H1879.49a5.84,5.84,0,1,1,0-11.68h167.75a5.84,5.84,0,1,1,0,11.68"></path> <path class="cls-7" d="M1661.94,988.84a302.77,302.77,0,0,0-73.58-46.71V990.9Z"></path> <polygon class="cls-7" points="1464.8 960.19 1464.8 994.35 1579.49 991.14 1579.49 938.3 1464.8 960.19"></polygon> <path class="cls-8" d="M1464.8,915.75v44.44l114.69-21.89a301.75,301.75,0,0,0-114.69-22.55"></path> <polygon class="cls-7" points="1442.79 994.96 1442.79 964.39 1255.16 1000.2 1442.79 994.96"></polygon> <path class="cls-8" d="M1255.16,1000.2l187.64-35.81V916.63a301.56,301.56,0,0,0-187.64,83.57"></path> <path class="cls-9" d="M1579.49,938.3a301.75,301.75,0,0,0-114.69-22.55"></path> <path class="cls-10" d="M1575.65,1139.85a75.9,75.9,0,0,1,18-72.62L1239,1139.85Z"></path> <path class="cls-10" d="M1790.23,1027l-110,22.52a76.23,76.23,0,0,1,43,90.35H1752c1.73,0,3.43-.14,5.13-.26a69.49,69.49,0,0,0,64.43-69.3v-30.78a40.56,40.56,0,0,1-5.7.42c-12.4,0-22.74-5.52-25.59-13"></path> <line class="cls-9" x1="1452.62" y1="900.86" x2="1452.62" y2="1126.17"></line> <line class="cls-9" x1="1270.96" y1="1009.51" x2="1270.96" y2="1127.22"></line> <line class="cls-9" x1="1588.36" y1="915.49" x2="1588.36" y2="1071.25"></line> <line class="cls-9" x1="1015.61" y1="1096.64" x2="1091.11" y2="1096.64"></line> <line class="cls-9" x1="1241.37" y1="1126.17" x2="1333.84" y2="1126.17"></line> <line class="cls-9" x1="1320.23" y1="1126.17" x2="1573.09" y2="1126.17"></line> <path class="cls-9" d="M1723.15,1096.64s55.26,1.6,98.37-19"></path> <path class="cls-7" d="M1622.12,928.79s26.45,24.59,39.82,35.6,30.93,24.34,43.67,24.34,14.75-5.05,14.75-5.05-27.59-19.92-45.23-30.07a368.77,368.77,0,0,0-53-24.82"></path> <path class="cls-11" d="M1230.77,1119.6a65.52,65.52,0,1,1-65.52-65.52,65.52,65.52,0,0,1,65.52,65.52"></path> <path class="cls-12" d="M1207.8,1119.6a42.55,42.55,0,1,1-42.55-42.55,42.55,42.55,0,0,1,42.55,42.55"></path> <path class="cls-13" d="M1201.88,1119.6a36.63,36.63,0,1,1-36.63-36.63,36.63,36.63,0,0,1,36.63,36.63"></path> <path class="cls-12" d="M1191.11,1119.6a25.86,25.86,0,1,1-25.86-25.86,25.86,25.86,0,0,1,25.86,25.86"></path> <path class="cls-13" d="M1168,1104.06a2.82,2.82,0,1,1-2.82-2.82,2.82,2.82,0,0,1,2.82,2.82"></path> <path class="cls-13" d="M1171,1119.6a5.77,5.77,0,1,1-5.77-5.77,5.77,5.77,0,0,1,5.77,5.77"></path> <path class="cls-13" d="M1183,1115.92a2.82,2.82,0,1,1-2.82-2.82,2.82,2.82,0,0,1,2.82,2.82"></path> <path class="cls-13" d="M1153.18,1115.92a2.82,2.82,0,1,1-2.82-2.82,2.82,2.82,0,0,1,2.82,2.82"></path> <path class="cls-13" d="M1158.15,1133.28a2.82,2.82,0,1,1-2.82-2.82,2.82,2.82,0,0,1,2.82,2.82"></path> <path class="cls-13" d="M1176.59,1133.28a2.82,2.82,0,1,1-2.82-2.82,2.82,2.82,0,0,1,2.82,2.82"></path> <path class="cls-11" d="M1134.81,1172.34l-2.31,4q2.47,1.43,5.07,2.65l2-4.19q-2.41-1.13-4.71-2.46"></path> <path class="cls-14" d="M1134.81,1172.34l-2.31,4q2.47,1.43,5.07,2.65l2-4.19Q1137.1,1173.67,1134.81,1172.34Z"></path> <path class="cls-11" d="M1126.11,1166.25l-3,3.54q2.19,1.83,4.54,3.48l2.65-3.79q-2.18-1.53-4.22-3.23"></path> <path class="cls-14" d="M1126.11,1166.25l-3,3.54q2.19,1.83,4.54,3.48l2.65-3.79Q1128.15,1168,1126.11,1166.25Z"></path> <path class="cls-11" d="M1130.33,1169.48l-2.65,3.79q2.34,1.64,4.82,3.07l2.31-4q-2.3-1.33-4.48-2.86"></path> <path class="cls-14" d="M1130.33,1169.48l-2.65,3.79q2.34,1.64,4.82,3.07l2.31-4Q1132.5,1171,1130.33,1169.48Z"></path> <path class="cls-11" d="M1139.52,1174.8l-2,4.19c1.72.8,3.48,1.55,5.28,2.2l1.58-4.35c-1.67-.61-3.3-1.3-4.9-2"></path> <path class="cls-14" d="M1139.52,1174.8l-2,4.19c1.72.8,3.48,1.55,5.28,2.2l1.58-4.35C1142.75,1176.23,1141.11,1175.54,1139.52,1174.8Z"></path> <path class="cls-11" d="M1159.95,1180.26l-.4,4.61c1.88.16,3.78.26,5.71.26v-4.62c-1.79,0-3.56-.09-5.31-.25"></path> <path class="cls-14" d="M1159.95,1180.26l-.4,4.61c1.88.16,3.78.26,5.71.26v-4.62C1163.46,1180.5,1161.7,1180.41,1159.95,1180.26Z"></path> <path class="cls-11" d="M1144.42,1176.84l-1.58,4.35q2.68,1,5.46,1.71l1.2-4.47q-2.58-.69-5.07-1.59"></path> <path class="cls-14" d="M1144.42,1176.84l-1.58,4.35q2.68,1,5.46,1.71l1.2-4.47Q1146.91,1177.74,1144.42,1176.84Z"></path> <path class="cls-11" d="M1154.68,1179.57l-.8,4.55q2.79.49,5.67.74l.4-4.61q-2.67-.23-5.27-.69"></path> <path class="cls-14" d="M1154.68,1179.57l-.8,4.55q2.79.49,5.67.74l.4-4.61Q1157.28,1180,1154.68,1179.57Z"></path> <path class="cls-11" d="M1118.61,1158.74l-3.54,3c1.23,1.46,2.51,2.87,3.85,4.22l3.27-3.27c-1.25-1.25-2.44-2.57-3.58-3.92"></path> <path class="cls-14" d="M1118.61,1158.74l-3.54,3c1.23,1.46,2.51,2.87,3.85,4.22l3.27-3.27C1120.94,1161.41,1119.75,1160.1,1118.61,1158.74Z"></path> <path class="cls-11" d="M1106.43,1135.37l-4.47,1.2c.49,1.85,1.06,3.67,1.71,5.46l4.35-1.58q-.9-2.49-1.59-5.07"></path> <path class="cls-14" d="M1106.43,1135.37l-4.47,1.2c.49,1.85,1.06,3.67,1.71,5.46l4.35-1.58Q1107.11,1138,1106.43,1135.37Z"></path> <path class="cls-11" d="M1105.29,1130.18l-4.55.8c.33,1.89.73,3.75,1.23,5.58l4.47-1.2q-.68-2.55-1.14-5.19"></path> <path class="cls-14" d="M1105.29,1130.18l-4.55.8c.33,1.89.73,3.75,1.23,5.58l4.47-1.2Q1105.75,1132.81,1105.29,1130.18Z"></path> <path class="cls-11" d="M1104.6,1124.91l-4.61.4q.25,2.87.74,5.67l4.55-.8q-.46-2.6-.69-5.27"></path> <path class="cls-14" d="M1104.6,1124.91l-4.61.4q.25,2.87.74,5.67l4.55-.8Q1104.83,1127.58,1104.6,1124.91Z"></path> <path class="cls-11" d="M1165.25,1180.5v4.62c1.93,0,3.83-.1,5.71-.26l-.4-4.61c-1.75.15-3.52.25-5.31.25"></path> <path class="cls-14" d="M1165.25,1180.5v4.62c1.93,0,3.83-.1,5.71-.26l-.4-4.61C1168.81,1180.41,1167,1180.5,1165.25,1180.5Z"></path> <path class="cls-11" d="M1122.19,1162.66l-3.27,3.27c1.35,1.35,2.76,2.63,4.22,3.85l3-3.54c-1.36-1.14-2.67-2.33-3.92-3.58"></path> <path class="cls-14" d="M1122.19,1162.66l-3.27,3.27c1.35,1.35,2.76,2.63,4.22,3.85l3-3.54C1124.76,1165.11,1123.44,1163.92,1122.19,1162.66Z"></path> <path class="cls-11" d="M1115.38,1154.53l-3.79,2.65q1.64,2.34,3.48,4.53l3.54-3q-1.71-2-3.23-4.22"></path> <path class="cls-14" d="M1115.38,1154.53l-3.79,2.65q1.64,2.34,3.48,4.53l3.54-3Q1116.9,1156.71,1115.38,1154.53Z"></path> <path class="cls-11" d="M1112.52,1150l-4,2.31q1.44,2.48,3.07,4.82l3.79-2.65q-1.52-2.17-2.86-4.48"></path> <path class="cls-14" d="M1112.52,1150l-4,2.31q1.44,2.48,3.07,4.82l3.79-2.65Q1113.85,1152.35,1112.52,1150Z"></path> <path class="cls-11" d="M1110.06,1145.34l-4.19,2c.81,1.73,1.7,3.42,2.65,5.07l4-2.31q-1.33-2.29-2.46-4.71"></path> <path class="cls-14" d="M1110.06,1145.34l-4.19,2c.81,1.73,1.7,3.42,2.65,5.07l4-2.31Q1111.19,1147.75,1110.06,1145.34Z"></path> <path class="cls-11" d="M1108,1140.44l-4.35,1.58c.65,1.8,1.4,3.55,2.2,5.27l4.19-2c-.75-1.6-1.44-3.23-2-4.9"></path> <path class="cls-14" d="M1108,1140.44l-4.35,1.58c.65,1.8,1.4,3.55,2.2,5.27l4.19-2C1109.31,1143.74,1108.62,1142.11,1108,1140.44Z"></path> <path class="cls-11" d="M1149.49,1178.43l-1.2,4.47c1.83.49,3.69.89,5.58,1.22l.8-4.55q-2.63-.46-5.19-1.14"></path> <path class="cls-14" d="M1149.49,1178.43l-1.2,4.47c1.83.49,3.69.89,5.58,1.22l.8-4.55Q1152,1179.11,1149.49,1178.43Z"></path> <path class="cls-11" d="M1222.49,1140.44l4.35,1.58c.65-1.78,1.21-3.6,1.71-5.46l-4.46-1.2q-.69,2.58-1.59,5.07"></path> <path class="cls-14" d="M1222.49,1140.44l4.35,1.58c.65-1.78,1.21-3.6,1.71-5.46l-4.46-1.2Q1223.39,1137.95,1222.49,1140.44Z"></path> <path class="cls-11" d="M1220.44,1145.34l4.19,2c.8-1.72,1.54-3.48,2.2-5.27l-4.35-1.58c-.61,1.67-1.3,3.3-2,4.9"></path> <path class="cls-14" d="M1220.44,1145.34l4.19,2c.8-1.72,1.54-3.48,2.2-5.27l-4.35-1.58C1221.88,1142.11,1221.19,1143.74,1220.44,1145.34Z"></path> <path class="cls-11" d="M1218,1150l4,2.31q1.43-2.47,2.65-5.07l-4.19-2q-1.13,2.41-2.46,4.71"></path> <path class="cls-14" d="M1218,1150l4,2.31q1.43-2.47,2.65-5.07l-4.19-2Q1219.32,1147.75,1218,1150Z"></path> <path class="cls-11" d="M1215.13,1154.53l3.79,2.65q1.64-2.34,3.07-4.82l-4-2.31q-1.33,2.3-2.86,4.48"></path> <path class="cls-14" d="M1215.13,1154.53l3.79,2.65q1.64-2.34,3.07-4.82l-4-2.31Q1216.65,1152.35,1215.13,1154.53Z"></path> <path class="cls-11" d="M1224.08,1135.37l4.46,1.2c.49-1.83.89-3.69,1.23-5.58l-4.55-.8q-.46,2.63-1.14,5.19"></path> <path class="cls-14" d="M1224.08,1135.37l4.46,1.2c.49-1.83.89-3.69,1.23-5.58l-4.55-.8Q1224.76,1132.81,1224.08,1135.37Z"></path> <path class="cls-11" d="M1104.35,1119.6h-4.62c0,1.93.1,3.83.26,5.71l4.61-.4c-.15-1.75-.25-3.52-.25-5.31"></path> <path class="cls-14" d="M1104.35,1119.6h-4.62c0,1.93.1,3.83.26,5.71l4.61-.4C1104.45,1123.16,1104.35,1121.39,1104.35,1119.6Z"></path> <path class="cls-11" d="M1211.89,1158.74l3.54,3q1.84-2.19,3.48-4.53l-3.79-2.65q-1.53,2.18-3.23,4.22"></path> <path class="cls-14" d="M1211.89,1158.74l3.54,3q1.84-2.19,3.48-4.53l-3.79-2.65Q1213.6,1156.7,1211.89,1158.74Z"></path> <path class="cls-11" d="M1225.9,1124.91q-.23,2.67-.69,5.27l4.55.8q.49-2.79.74-5.67Z"></path> <path class="cls-14" d="M1225.9,1124.91q-.23,2.67-.69,5.27l4.55.8q.49-2.79.74-5.67Z"></path> <path class="cls-11" d="M1204.39,1166.25l3,3.54c1.46-1.23,2.87-2.51,4.22-3.85l-3.27-3.27q-1.88,1.88-3.92,3.58"></path> <path class="cls-14" d="M1204.39,1166.25l3,3.54c1.46-1.23,2.87-2.51,4.22-3.85l-3.27-3.27Q1206.43,1164.54,1204.39,1166.25Z"></path> <path class="cls-11" d="M1181,1178.43l1.2,4.47c1.85-.5,3.67-1.06,5.46-1.71l-1.58-4.35c-1.66.6-3.35,1.13-5.07,1.59"></path> <path class="cls-14" d="M1181,1178.43l1.2,4.47c1.85-.5,3.67-1.06,5.46-1.71l-1.58-4.35C1184.43,1177.45,1182.74,1178,1181,1178.43Z"></path> <path class="cls-11" d="M1186.08,1176.84l1.58,4.35c1.8-.65,3.55-1.4,5.28-2.2l-2-4.19c-1.6.75-3.23,1.44-4.9,2"></path> <path class="cls-14" d="M1186.08,1176.84l1.58,4.35c1.8-.65,3.55-1.4,5.28-2.2l-2-4.19C1189.39,1175.54,1187.76,1176.23,1186.08,1176.84Z"></path> <path class="cls-11" d="M1175.83,1179.57l.8,4.55c1.89-.33,3.75-.73,5.58-1.23l-1.2-4.47q-2.55.68-5.19,1.14"></path> <path class="cls-14" d="M1175.83,1179.57l.8,4.55c1.89-.33,3.75-.73,5.58-1.23l-1.2-4.47Q1178.46,1179.11,1175.83,1179.57Z"></path> <path class="cls-11" d="M1208.31,1162.66l3.27,3.27c1.35-1.35,2.63-2.76,3.85-4.22l-3.54-3c-1.14,1.36-2.33,2.67-3.58,3.92"></path> <path class="cls-14" d="M1208.31,1162.66l3.27,3.27c1.35-1.35,2.63-2.76,3.85-4.22l-3.54-3C1210.76,1160.1,1209.57,1161.41,1208.31,1162.66Z"></path> <path class="cls-11" d="M1191,1174.8l2,4.19c1.73-.81,3.42-1.7,5.07-2.65l-2.31-4c-1.53.89-3.1,1.71-4.71,2.46"></path> <path class="cls-14" d="M1191,1174.8l2,4.19c1.73-.81,3.42-1.7,5.07-2.65l-2.31-4C1194.17,1173.22,1192.6,1174,1191,1174.8Z"></path> <path class="cls-11" d="M1170.56,1180.26l.4,4.61q2.87-.25,5.67-.74l-.8-4.55c-1.73.3-3.49.54-5.27.69"></path> <path class="cls-14" d="M1170.56,1180.26l.4,4.61q2.87-.25,5.67-.74l-.8-4.55C1174.09,1179.87,1172.34,1180.1,1170.56,1180.26Z"></path> <path class="cls-11" d="M1195.7,1172.34l2.31,4q2.48-1.44,4.82-3.07l-2.65-3.79q-2.17,1.52-4.48,2.86"></path> <path class="cls-14" d="M1195.7,1172.34l2.31,4q2.48-1.44,4.82-3.07l-2.65-3.79Q1198,1171,1195.7,1172.34Z"></path> <path class="cls-11" d="M1200.18,1169.48l2.65,3.79q2.34-1.65,4.53-3.48l-3-3.54q-2,1.71-4.22,3.23"></path> <path class="cls-14" d="M1200.18,1169.48l2.65,3.79q2.34-1.65,4.53-3.48l-3-3.54Q1202.36,1168,1200.18,1169.48Z"></path> <path class="cls-11" d="M1186.08,1062.36l1.58-4.35q-2.68-1-5.46-1.71l-1.2,4.47q2.58.69,5.07,1.59"></path> <path class="cls-14" d="M1186.08,1062.36l1.58-4.35q-2.68-1-5.46-1.71l-1.2,4.47Q1183.59,1061.47,1186.08,1062.36Z"></path> <path class="cls-11" d="M1200.18,1069.73l2.65-3.79q-2.34-1.64-4.82-3.07l-2.31,4q2.3,1.33,4.48,2.86"></path> <path class="cls-14" d="M1200.18,1069.73l2.65-3.79q-2.34-1.64-4.82-3.07l-2.31,4Q1198,1068.2,1200.18,1069.73Z"></path> <path class="cls-11" d="M1204.39,1073l3-3.54c-1.46-1.22-3-2.38-4.54-3.48l-2.65,3.79q2.18,1.53,4.22,3.23"></path> <path class="cls-14" d="M1204.39,1073l3-3.54c-1.46-1.22-3-2.38-4.54-3.48l-2.65,3.79Q1202.35,1071.25,1204.39,1073Z"></path> <path class="cls-11" d="M1208.31,1076.54l3.27-3.27c-1.35-1.35-2.76-2.63-4.22-3.85l-3,3.54c1.36,1.14,2.67,2.33,3.92,3.58"></path> <path class="cls-14" d="M1208.31,1076.54l3.27-3.27c-1.35-1.35-2.76-2.63-4.22-3.85l-3,3.54C1205.75,1074.1,1207.06,1075.29,1208.31,1076.54Z"></path> <path class="cls-11" d="M1211.89,1080.46l3.54-3c-1.23-1.46-2.51-2.87-3.85-4.22l-3.27,3.27c1.25,1.25,2.44,2.57,3.58,3.92"></path> <path class="cls-14" d="M1211.89,1080.46l3.54-3c-1.23-1.46-2.51-2.87-3.85-4.22l-3.27,3.27C1209.57,1077.79,1210.76,1079.11,1211.89,1080.46Z"></path> <path class="cls-11" d="M1181,1060.78l1.2-4.47c-1.83-.49-3.69-.89-5.58-1.22l-.8,4.55q2.63.46,5.19,1.14"></path> <path class="cls-14" d="M1181,1060.78l1.2-4.47c-1.83-.49-3.69-.89-5.58-1.22l-.8,4.55Q1178.46,1060.1,1181,1060.78Z"></path> <path class="cls-11" d="M1175.83,1059.64l.8-4.55q-2.79-.49-5.67-.74l-.4,4.61q2.67.23,5.27.69"></path> <path class="cls-14" d="M1175.83,1059.64l.8-4.55q-2.79-.49-5.67-.74l-.4,4.61Q1173.22,1059.18,1175.83,1059.64Z"></path> <path class="cls-11" d="M1215.13,1084.68l3.79-2.65q-1.65-2.34-3.48-4.53l-3.54,3q1.71,2,3.23,4.22"></path> <path class="cls-14" d="M1215.13,1084.68l3.79-2.65q-1.65-2.34-3.48-4.53l-3.54,3Q1213.6,1082.5,1215.13,1084.68Z"></path> <path class="cls-11" d="M1195.7,1066.87l2.31-4q-2.47-1.43-5.07-2.65l-2,4.19q2.41,1.13,4.71,2.46"></path> <path class="cls-14" d="M1195.7,1066.87l2.31-4q-2.47-1.43-5.07-2.65l-2,4.19Q1193.4,1065.54,1195.7,1066.87Z"></path> <path class="cls-11" d="M1191,1064.41l2-4.19c-1.72-.8-3.48-1.55-5.28-2.2l-1.58,4.35c1.67.61,3.3,1.3,4.9,2"></path> <path class="cls-14" d="M1191,1064.41l2-4.19c-1.72-.8-3.48-1.55-5.28-2.2l-1.58,4.35C1187.76,1063,1189.39,1063.66,1191,1064.41Z"></path> <path class="cls-11" d="M1222.49,1098.77l4.35-1.58c-.65-1.8-1.4-3.55-2.2-5.27l-4.19,2c.75,1.6,1.44,3.23,2,4.9"></path> <path class="cls-14" d="M1222.49,1098.77l4.35-1.58c-.65-1.8-1.4-3.55-2.2-5.27l-4.19,2C1221.19,1095.47,1221.88,1097.1,1222.49,1098.77Z"></path> <path class="cls-11" d="M1225.9,1114.3l4.61-.4q-.25-2.87-.74-5.67l-4.55.8q.46,2.6.69,5.27"></path> <path class="cls-14" d="M1225.9,1114.3l4.61-.4q-.25-2.87-.74-5.67l-4.55.8Q1225.67,1111.63,1225.9,1114.3Z"></path> <path class="cls-11" d="M1218,1089.16l4-2.31q-1.44-2.48-3.07-4.82l-3.79,2.65q1.52,2.17,2.86,4.48"></path> <path class="cls-14" d="M1218,1089.16l4-2.31q-1.44-2.48-3.07-4.82l-3.79,2.65Q1216.65,1086.85,1218,1089.16Z"></path> <path class="cls-11" d="M1225.9,1124.91l4.61.4c.16-1.88.26-3.78.26-5.71h-4.62c0,1.79-.09,3.56-.24,5.31"></path> <path class="cls-14" d="M1225.9,1124.91l4.61.4c.16-1.88.26-3.78.26-5.71h-4.62C1226.15,1121.39,1226.06,1123.16,1225.9,1124.91Z"></path> <path class="cls-11" d="M1225.22,1109l4.55-.8c-.33-1.89-.73-3.75-1.23-5.58l-4.47,1.2q.68,2.55,1.14,5.19"></path> <path class="cls-14" d="M1225.22,1109l4.55-.8c-.33-1.89-.73-3.75-1.23-5.58l-4.47,1.2Q1224.76,1106.39,1225.22,1109Z"></path> <path class="cls-11" d="M1226.15,1119.6h4.62c0-1.93-.1-3.83-.26-5.71l-4.61.4c.15,1.75.24,3.52.24,5.31"></path> <path class="cls-14" d="M1226.15,1119.6h4.62c0-1.93-.1-3.83-.26-5.71l-4.61.4C1226.06,1116,1226.15,1117.81,1226.15,1119.6Z"></path> <path class="cls-11" d="M1220.44,1093.87l4.19-2c-.81-1.73-1.7-3.42-2.65-5.07l-4,2.31q1.33,2.29,2.46,4.71"></path> <path class="cls-14" d="M1220.44,1093.87l4.19-2c-.81-1.73-1.7-3.42-2.65-5.07l-4,2.31Q1219.31,1091.45,1220.44,1093.87Z"></path> <path class="cls-11" d="M1104.6,1114.3l-4.61-.4c-.16,1.88-.26,3.78-.26,5.71h4.62c0-1.79.09-3.56.25-5.31"></path> <path class="cls-14" d="M1104.6,1114.3l-4.61-.4c-.16,1.88-.26,3.78-.26,5.71h4.62C1104.35,1117.81,1104.45,1116,1104.6,1114.3Z"></path> <path class="cls-11" d="M1170.56,1058.95l.4-4.61c-1.88-.16-3.78-.26-5.71-.26v4.62c1.79,0,3.56.09,5.31.25"></path> <path class="cls-14" d="M1170.56,1058.95l.4-4.61c-1.88-.16-3.78-.26-5.71-.26v4.62C1167,1058.7,1168.81,1058.8,1170.56,1058.95Z"></path> <path class="cls-11" d="M1224.08,1103.84l4.46-1.2c-.49-1.85-1.06-3.67-1.71-5.46l-4.35,1.58q.9,2.49,1.59,5.07"></path> <path class="cls-14" d="M1224.08,1103.84l4.46-1.2c-.49-1.85-1.06-3.67-1.71-5.46l-4.35,1.58Q1223.39,1101.26,1224.08,1103.84Z"></path> <path class="cls-11" d="M1122.19,1076.54l-3.27-3.27c-1.35,1.35-2.63,2.76-3.85,4.22l3.54,3c1.14-1.36,2.33-2.67,3.58-3.92"></path> <path class="cls-14" d="M1122.19,1076.54l-3.27-3.27c-1.35,1.35-2.63,2.76-3.85,4.22l3.54,3C1119.75,1079.11,1120.94,1077.79,1122.19,1076.54Z"></path> <path class="cls-11" d="M1115.38,1084.68l-3.79-2.65q-1.64,2.34-3.07,4.82l4,2.31q1.33-2.3,2.86-4.48"></path> <path class="cls-14" d="M1115.38,1084.68l-3.79-2.65q-1.64,2.34-3.07,4.82l4,2.31Q1113.85,1086.85,1115.38,1084.68Z"></path> <path class="cls-11" d="M1110.06,1093.87l-4.19-2c-.8,1.72-1.54,3.48-2.2,5.27l4.35,1.58c.61-1.67,1.3-3.3,2-4.9"></path> <path class="cls-14" d="M1110.06,1093.87l-4.19-2c-.8,1.72-1.54,3.48-2.2,5.27l4.35,1.58C1108.62,1097.1,1109.31,1095.46,1110.06,1093.87Z"></path> <path class="cls-11" d="M1118.61,1080.46l-3.54-3q-1.83,2.19-3.48,4.53l3.79,2.65q1.53-2.18,3.23-4.22"></path> <path class="cls-14" d="M1118.61,1080.46l-3.54-3q-1.83,2.19-3.48,4.53l3.79,2.65Q1116.91,1082.5,1118.61,1080.46Z"></path> <path class="cls-11" d="M1112.52,1089.16l-4-2.31q-1.43,2.47-2.65,5.07l4.19,2q1.13-2.41,2.46-4.71"></path> <path class="cls-14" d="M1112.52,1089.16l-4-2.31q-1.43,2.47-2.65,5.07l4.19,2Q1111.19,1091.45,1112.52,1089.16Z"></path> <path class="cls-11" d="M1105.29,1109l-4.55-.8q-.49,2.8-.74,5.67l4.6.4q.23-2.67.69-5.27"></path> <path class="cls-14" d="M1105.29,1109l-4.55-.8q-.49,2.8-.74,5.67l4.6.4Q1104.83,1111.63,1105.29,1109Z"></path> <path class="cls-11" d="M1106.43,1103.84l-4.47-1.2c-.49,1.83-.89,3.69-1.23,5.58l4.55.8q.46-2.63,1.14-5.19"></path> <path class="cls-14" d="M1106.43,1103.84l-4.47-1.2c-.49,1.83-.89,3.69-1.23,5.58l4.55.8Q1105.75,1106.4,1106.43,1103.84Z"></path> <path class="cls-11" d="M1108,1098.77l-4.35-1.58c-.65,1.78-1.21,3.6-1.71,5.46l4.46,1.2q.69-2.58,1.59-5.07"></path> <path class="cls-14" d="M1108,1098.77l-4.35-1.58c-.65,1.78-1.21,3.6-1.71,5.46l4.46,1.2Q1107.11,1101.26,1108,1098.77Z"></path> <path class="cls-11" d="M1130.33,1069.73l-2.65-3.79q-2.34,1.65-4.53,3.48l3,3.54q2-1.71,4.22-3.23"></path> <path class="cls-14" d="M1130.33,1069.73l-2.65-3.79q-2.34,1.65-4.53,3.48l3,3.54Q1128.15,1071.25,1130.33,1069.73Z"></path> <path class="cls-11" d="M1149.49,1060.78l-1.2-4.47c-1.85.5-3.67,1.06-5.46,1.71l1.58,4.35c1.66-.6,3.35-1.13,5.07-1.59"></path> <path class="cls-14" d="M1149.49,1060.78l-1.2-4.47c-1.85.5-3.67,1.06-5.46,1.71l1.58,4.35C1146.08,1061.76,1147.77,1061.24,1149.49,1060.78Z"></path> <path class="cls-11" d="M1154.68,1059.64l-.8-4.55c-1.89.33-3.75.73-5.58,1.23l1.2,4.47q2.55-.68,5.19-1.14"></path> <path class="cls-14" d="M1154.68,1059.64l-.8-4.55c-1.89.33-3.75.73-5.58,1.23l1.2,4.47Q1152,1060.1,1154.68,1059.64Z"></path> <path class="cls-11" d="M1126.11,1073l-3-3.54c-1.46,1.23-2.87,2.51-4.22,3.85l3.27,3.27c1.25-1.25,2.57-2.44,3.92-3.58"></path> <path class="cls-14" d="M1126.11,1073l-3-3.54c-1.46,1.23-2.87,2.51-4.22,3.85l3.27,3.27C1123.44,1075.29,1124.76,1074.1,1126.11,1073Z"></path> <path class="cls-11" d="M1144.42,1062.36l-1.58-4.35c-1.8.65-3.55,1.4-5.28,2.2l2,4.19c1.6-.75,3.23-1.44,4.9-2"></path> <path class="cls-14" d="M1144.42,1062.36l-1.58-4.35c-1.8.65-3.55,1.4-5.28,2.2l2,4.19C1141.11,1063.66,1142.75,1063,1144.42,1062.36Z"></path> <path class="cls-11" d="M1159.95,1058.95l-.4-4.61q-2.87.25-5.67.74l.8,4.55c1.73-.3,3.49-.54,5.27-.69"></path> <path class="cls-14" d="M1159.95,1058.95l-.4-4.61q-2.87.25-5.67.74l.8,4.55C1156.41,1059.34,1158.17,1059.1,1159.95,1058.95Z"></path> <path class="cls-11" d="M1165.25,1058.71v-4.62c-1.92,0-3.83.1-5.71.26l.4,4.61c1.75-.15,3.52-.25,5.31-.25"></path> <path class="cls-14" d="M1165.25,1058.71v-4.62c-1.92,0-3.83.1-5.71.26l.4,4.61C1161.69,1058.8,1163.46,1058.71,1165.25,1058.71Z"></path> <path class="cls-11" d="M1134.81,1066.87l-2.31-4q-2.48,1.44-4.82,3.07l2.65,3.79q2.17-1.52,4.48-2.86"></path> <path class="cls-14" d="M1134.81,1066.87l-2.31-4q-2.48,1.44-4.82,3.07l2.65,3.79Q1132.5,1068.21,1134.81,1066.87Z"></path> <path class="cls-11" d="M1139.52,1064.41l-2-4.19c-1.73.81-3.42,1.7-5.07,2.65l2.31,4c1.53-.89,3.1-1.71,4.71-2.46"></path> <path class="cls-14" d="M1139.52,1064.41l-2-4.19c-1.73.81-3.42,1.7-5.07,2.65l2.31,4C1136.34,1066,1137.9,1065.16,1139.52,1064.41Z"></path> <path class="cls-11" d="M1715,1119.6a65.52,65.52,0,1,1-65.52-65.52A65.52,65.52,0,0,1,1715,1119.6"></path> <path class="cls-12" d="M1692.05,1119.6a42.55,42.55,0,1,1-42.55-42.55,42.55,42.55,0,0,1,42.55,42.55"></path> <path class="cls-13" d="M1686.13,1119.6A36.63,36.63,0,1,1,1649.5,1083a36.63,36.63,0,0,1,36.63,36.63"></path> <path class="cls-12" d="M1675.36,1119.6a25.86,25.86,0,1,1-25.86-25.86,25.86,25.86,0,0,1,25.86,25.86"></path> <path class="cls-13" d="M1652.26,1104.06a2.82,2.82,0,1,1-2.82-2.82,2.82,2.82,0,0,1,2.82,2.82"></path> <path class="cls-13" d="M1655.21,1119.6a5.77,5.77,0,1,1-5.77-5.77,5.77,5.77,0,0,1,5.77,5.77"></path> <path class="cls-13" d="M1667.21,1115.92a2.82,2.82,0,1,1-2.82-2.82,2.82,2.82,0,0,1,2.82,2.82"></path> <path class="cls-13" d="M1637.43,1115.92a2.82,2.82,0,1,1-2.82-2.82,2.82,2.82,0,0,1,2.82,2.82"></path> <path class="cls-13" d="M1642.41,1133.28a2.82,2.82,0,1,1-2.82-2.82,2.82,2.82,0,0,1,2.82,2.82"></path> <path class="cls-13" d="M1660.84,1133.28a2.82,2.82,0,1,1-2.82-2.82,2.82,2.82,0,0,1,2.82,2.82"></path> <path class="cls-11" d="M1619.06,1172.34l-2.31,4q2.47,1.43,5.07,2.65l2-4.19q-2.41-1.13-4.71-2.46"></path> <path class="cls-14" d="M1619.06,1172.34l-2.31,4q2.47,1.43,5.07,2.65l2-4.19Q1621.35,1173.67,1619.06,1172.34Z"></path> <path class="cls-11" d="M1610.36,1166.25l-3,3.54q2.19,1.83,4.54,3.48l2.65-3.79q-2.18-1.53-4.22-3.23"></path> <path class="cls-14" d="M1610.36,1166.25l-3,3.54q2.19,1.83,4.54,3.48l2.65-3.79Q1612.4,1168,1610.36,1166.25Z"></path> <path class="cls-11" d="M1614.58,1169.48l-2.65,3.79q2.34,1.64,4.82,3.07l2.31-4q-2.3-1.33-4.48-2.86"></path> <path class="cls-14" d="M1614.58,1169.48l-2.65,3.79q2.34,1.64,4.82,3.07l2.31-4Q1616.75,1171,1614.58,1169.48Z"></path> <path class="cls-11" d="M1623.77,1174.8l-2,4.19c1.72.8,3.48,1.55,5.28,2.2l1.58-4.35c-1.67-.61-3.3-1.3-4.9-2"></path> <path class="cls-14" d="M1623.77,1174.8l-2,4.19c1.72.8,3.48,1.55,5.28,2.2l1.58-4.35C1627,1176.23,1625.37,1175.54,1623.77,1174.8Z"></path> <path class="cls-11" d="M1644.2,1180.26l-.4,4.61c1.88.16,3.78.26,5.71.26v-4.62c-1.79,0-3.56-.09-5.31-.25"></path> <path class="cls-14" d="M1644.2,1180.26l-.4,4.61c1.88.16,3.78.26,5.71.26v-4.62C1647.71,1180.5,1645.95,1180.41,1644.2,1180.26Z"></path> <path class="cls-11" d="M1628.67,1176.84l-1.58,4.35q2.68,1,5.46,1.71l1.2-4.47q-2.58-.69-5.07-1.59"></path> <path class="cls-14" d="M1628.67,1176.84l-1.58,4.35q2.68,1,5.46,1.71l1.2-4.47Q1631.16,1177.74,1628.67,1176.84Z"></path> <path class="cls-11" d="M1638.93,1179.57l-.8,4.55q2.79.49,5.67.74l.4-4.61q-2.67-.23-5.27-.69"></path> <path class="cls-14" d="M1638.93,1179.57l-.8,4.55q2.79.49,5.67.74l.4-4.61Q1641.53,1180,1638.93,1179.57Z"></path> <path class="cls-11" d="M1602.86,1158.74l-3.54,3c1.23,1.46,2.51,2.87,3.85,4.22l3.27-3.27c-1.25-1.25-2.44-2.57-3.58-3.92"></path> <path class="cls-14" d="M1602.86,1158.74l-3.54,3c1.23,1.46,2.51,2.87,3.85,4.22l3.27-3.27C1605.19,1161.41,1604,1160.1,1602.86,1158.74Z"></path> <path class="cls-11" d="M1590.68,1135.37l-4.47,1.2c.49,1.85,1.06,3.67,1.71,5.46l4.35-1.58q-.9-2.49-1.59-5.07"></path> <path class="cls-14" d="M1590.68,1135.37l-4.47,1.2c.49,1.85,1.06,3.67,1.71,5.46l4.35-1.58Q1591.36,1138,1590.68,1135.37Z"></path> <path class="cls-11" d="M1589.54,1130.18l-4.55.8c.33,1.89.73,3.75,1.23,5.58l4.47-1.2q-.68-2.55-1.14-5.19"></path> <path class="cls-14" d="M1589.54,1130.18l-4.55.8c.33,1.89.73,3.75,1.23,5.58l4.47-1.2Q1590,1132.81,1589.54,1130.18Z"></path> <path class="cls-11" d="M1588.85,1124.91l-4.61.4q.25,2.87.74,5.67l4.55-.8q-.46-2.6-.69-5.27"></path> <path class="cls-14" d="M1588.85,1124.91l-4.61.4q.25,2.87.74,5.67l4.55-.8Q1589.08,1127.58,1588.85,1124.91Z"></path> <path class="cls-11" d="M1649.5,1180.5v4.62c1.93,0,3.83-.1,5.71-.26l-.4-4.61c-1.75.15-3.52.25-5.31.25"></path> <path class="cls-14" d="M1649.5,1180.5v4.62c1.93,0,3.83-.1,5.71-.26l-.4-4.61C1653.06,1180.41,1651.29,1180.5,1649.5,1180.5Z"></path> <path class="cls-11" d="M1606.44,1162.66l-3.27,3.27c1.35,1.35,2.76,2.63,4.22,3.85l3-3.54c-1.36-1.14-2.67-2.33-3.92-3.58"></path> <path class="cls-14" d="M1606.44,1162.66l-3.27,3.27c1.35,1.35,2.76,2.63,4.22,3.85l3-3.54C1609,1165.11,1607.69,1163.92,1606.44,1162.66Z"></path> <path class="cls-11" d="M1599.63,1154.53l-3.79,2.65q1.64,2.34,3.48,4.53l3.54-3q-1.71-2-3.23-4.22"></path> <path class="cls-14" d="M1599.63,1154.53l-3.79,2.65q1.64,2.34,3.48,4.53l3.54-3Q1601.15,1156.71,1599.63,1154.53Z"></path> <path class="cls-11" d="M1596.77,1150l-4,2.31q1.44,2.48,3.07,4.82l3.79-2.65q-1.52-2.17-2.86-4.48"></path> <path class="cls-14" d="M1596.77,1150l-4,2.31q1.44,2.48,3.07,4.82l3.79-2.65Q1598.1,1152.35,1596.77,1150Z"></path> <path class="cls-11" d="M1594.31,1145.34l-4.19,2c.81,1.73,1.7,3.42,2.65,5.07l4-2.31q-1.33-2.29-2.46-4.71"></path> <path class="cls-14" d="M1594.31,1145.34l-4.19,2c.81,1.73,1.7,3.42,2.65,5.07l4-2.31Q1595.44,1147.75,1594.31,1145.34Z"></path> <path class="cls-11" d="M1592.26,1140.44l-4.35,1.58c.65,1.8,1.4,3.55,2.2,5.27l4.19-2c-.75-1.6-1.44-3.23-2-4.9"></path> <path class="cls-14" d="M1592.26,1140.44l-4.35,1.58c.65,1.8,1.4,3.55,2.2,5.27l4.19-2C1593.56,1143.74,1592.87,1142.11,1592.26,1140.44Z"></path> <path class="cls-11" d="M1633.74,1178.43l-1.2,4.47c1.83.49,3.69.89,5.58,1.22l.8-4.55q-2.63-.46-5.19-1.14"></path> <path class="cls-14" d="M1633.74,1178.43l-1.2,4.47c1.83.49,3.69.89,5.58,1.22l.8-4.55Q1636.29,1179.11,1633.74,1178.43Z"></path> <path class="cls-11" d="M1706.74,1140.44l4.35,1.58c.65-1.78,1.21-3.6,1.71-5.46l-4.46-1.2q-.69,2.58-1.59,5.07"></path> <path class="cls-14" d="M1706.74,1140.44l4.35,1.58c.65-1.78,1.21-3.6,1.71-5.46l-4.46-1.2Q1707.64,1137.95,1706.74,1140.44Z"></path> <path class="cls-11" d="M1704.7,1145.34l4.19,2c.8-1.72,1.54-3.48,2.2-5.27l-4.35-1.58c-.61,1.67-1.3,3.3-2,4.9"></path> <path class="cls-14" d="M1704.7,1145.34l4.19,2c.8-1.72,1.54-3.48,2.2-5.27l-4.35-1.58C1706.13,1142.11,1705.44,1143.74,1704.7,1145.34Z"></path> <path class="cls-11" d="M1702.24,1150l4,2.31q1.43-2.47,2.65-5.07l-4.19-2q-1.13,2.41-2.46,4.71"></path> <path class="cls-14" d="M1702.24,1150l4,2.31q1.43-2.47,2.65-5.07l-4.19-2Q1703.57,1147.75,1702.24,1150Z"></path> <path class="cls-11" d="M1699.38,1154.53l3.79,2.65q1.64-2.34,3.07-4.82l-4-2.31q-1.33,2.3-2.86,4.48"></path> <path class="cls-14" d="M1699.38,1154.53l3.79,2.65q1.64-2.34,3.07-4.82l-4-2.31Q1700.9,1152.35,1699.38,1154.53Z"></path> <path class="cls-11" d="M1708.33,1135.37l4.46,1.2c.49-1.83.89-3.69,1.23-5.58l-4.55-.8q-.46,2.63-1.14,5.19"></path> <path class="cls-14" d="M1708.33,1135.37l4.46,1.2c.49-1.83.89-3.69,1.23-5.58l-4.55-.8Q1709,1132.81,1708.33,1135.37Z"></path> <path class="cls-11" d="M1588.6,1119.6H1584c0,1.93.1,3.83.26,5.71l4.61-.4c-.15-1.75-.25-3.52-.25-5.31"></path> <path class="cls-14" d="M1588.6,1119.6H1584c0,1.93.1,3.83.26,5.71l4.61-.4C1588.7,1123.16,1588.6,1121.39,1588.6,1119.6Z"></path> <path class="cls-11" d="M1696.15,1158.74l3.54,3q1.84-2.19,3.48-4.53l-3.79-2.65q-1.53,2.18-3.23,4.22"></path> <path class="cls-14" d="M1696.15,1158.74l3.54,3q1.84-2.19,3.48-4.53l-3.79-2.65Q1697.85,1156.7,1696.15,1158.74Z"></path> <path class="cls-11" d="M1710.16,1124.91q-.23,2.67-.69,5.27l4.55.8q.49-2.79.74-5.67Z"></path> <path class="cls-14" d="M1710.16,1124.91q-.23,2.67-.69,5.27l4.55.8q.49-2.79.74-5.67Z"></path> <path class="cls-11" d="M1688.64,1166.25l3,3.54c1.46-1.23,2.87-2.51,4.22-3.85l-3.27-3.27q-1.88,1.88-3.92,3.58"></path> <path class="cls-14" d="M1688.64,1166.25l3,3.54c1.46-1.23,2.87-2.51,4.22-3.85l-3.27-3.27Q1690.68,1164.54,1688.64,1166.25Z"></path> <path class="cls-11" d="M1665.27,1178.43l1.2,4.47c1.85-.5,3.67-1.06,5.46-1.71l-1.58-4.35c-1.66.6-3.35,1.13-5.07,1.59"></path> <path class="cls-14" d="M1665.27,1178.43l1.2,4.47c1.85-.5,3.67-1.06,5.46-1.71l-1.58-4.35C1668.68,1177.45,1667,1178,1665.27,1178.43Z"></path> <path class="cls-11" d="M1670.34,1176.84l1.58,4.35c1.8-.65,3.55-1.4,5.28-2.2l-2-4.19c-1.6.75-3.23,1.44-4.9,2"></path> <path class="cls-14" d="M1670.34,1176.84l1.58,4.35c1.8-.65,3.55-1.4,5.28-2.2l-2-4.19C1673.64,1175.54,1672,1176.23,1670.34,1176.84Z"></path> <path class="cls-11" d="M1660.08,1179.57l.8,4.55c1.89-.33,3.75-.73,5.58-1.23l-1.2-4.47q-2.55.68-5.19,1.14"></path> <path class="cls-14" d="M1660.08,1179.57l.8,4.55c1.89-.33,3.75-.73,5.58-1.23l-1.2-4.47Q1662.71,1179.11,1660.08,1179.57Z"></path> <path class="cls-11" d="M1692.56,1162.66l3.27,3.27c1.35-1.35,2.63-2.76,3.85-4.22l-3.54-3c-1.14,1.36-2.33,2.67-3.58,3.92"></path> <path class="cls-14" d="M1692.56,1162.66l3.27,3.27c1.35-1.35,2.63-2.76,3.85-4.22l-3.54-3C1695,1160.1,1693.82,1161.41,1692.56,1162.66Z"></path> <path class="cls-11" d="M1675.24,1174.8l2,4.19c1.73-.81,3.42-1.7,5.07-2.65l-2.31-4c-1.53.89-3.1,1.71-4.71,2.46"></path> <path class="cls-14" d="M1675.24,1174.8l2,4.19c1.73-.81,3.42-1.7,5.07-2.65l-2.31-4C1678.42,1173.22,1676.85,1174,1675.24,1174.8Z"></path> <path class="cls-11" d="M1654.81,1180.26l.4,4.61q2.87-.25,5.67-.74l-.8-4.55c-1.73.3-3.49.54-5.27.69"></path> <path class="cls-14" d="M1654.81,1180.26l.4,4.61q2.87-.25,5.67-.74l-.8-4.55C1658.34,1179.87,1656.59,1180.1,1654.81,1180.26Z"></path> <path class="cls-11" d="M1679.95,1172.34l2.31,4q2.48-1.44,4.82-3.07l-2.65-3.79q-2.17,1.52-4.48,2.86"></path> <path class="cls-14" d="M1679.95,1172.34l2.31,4q2.48-1.44,4.82-3.07l-2.65-3.79Q1682.25,1171,1679.95,1172.34Z"></path> <path class="cls-11" d="M1684.43,1169.48l2.65,3.79q2.34-1.65,4.53-3.48l-3-3.54q-2,1.71-4.22,3.23"></path> <path class="cls-14" d="M1684.43,1169.48l2.65,3.79q2.34-1.65,4.53-3.48l-3-3.54Q1686.61,1168,1684.43,1169.48Z"></path> <path class="cls-11" d="M1670.34,1062.36l1.58-4.35q-2.68-1-5.46-1.71l-1.2,4.47q2.58.69,5.07,1.59"></path> <path class="cls-14" d="M1670.34,1062.36l1.58-4.35q-2.68-1-5.46-1.71l-1.2,4.47Q1667.85,1061.47,1670.34,1062.36Z"></path> <path class="cls-11" d="M1684.43,1069.73l2.65-3.79q-2.34-1.64-4.82-3.07l-2.31,4q2.3,1.33,4.48,2.86"></path> <path class="cls-14" d="M1684.43,1069.73l2.65-3.79q-2.34-1.64-4.82-3.07l-2.31,4Q1682.25,1068.2,1684.43,1069.73Z"></path> <path class="cls-11" d="M1688.64,1073l3-3.54c-1.46-1.22-3-2.38-4.54-3.48l-2.65,3.79q2.18,1.53,4.22,3.23"></path> <path class="cls-14" d="M1688.64,1073l3-3.54c-1.46-1.22-3-2.38-4.54-3.48l-2.65,3.79Q1686.6,1071.25,1688.64,1073Z"></path> <path class="cls-11" d="M1692.56,1076.54l3.27-3.27c-1.35-1.35-2.76-2.63-4.22-3.85l-3,3.54c1.36,1.14,2.67,2.33,3.92,3.58"></path> <path class="cls-14" d="M1692.56,1076.54l3.27-3.27c-1.35-1.35-2.76-2.63-4.22-3.85l-3,3.54C1690,1074.1,1691.31,1075.29,1692.56,1076.54Z"></path> <path class="cls-11" d="M1696.15,1080.46l3.54-3c-1.23-1.46-2.51-2.87-3.85-4.22l-3.27,3.27c1.25,1.25,2.44,2.57,3.58,3.92"></path> <path class="cls-14" d="M1696.15,1080.46l3.54-3c-1.23-1.46-2.51-2.87-3.85-4.22l-3.27,3.27C1693.82,1077.79,1695,1079.11,1696.15,1080.46Z"></path> <path class="cls-11" d="M1665.27,1060.78l1.2-4.47c-1.83-.49-3.69-.89-5.58-1.22l-.8,4.55q2.63.46,5.19,1.14"></path> <path class="cls-14" d="M1665.27,1060.78l1.2-4.47c-1.83-.49-3.69-.89-5.58-1.22l-.8,4.55Q1662.71,1060.1,1665.27,1060.78Z"></path> <path class="cls-11" d="M1660.08,1059.64l.8-4.55q-2.79-.49-5.67-.74l-.4,4.61q2.67.23,5.27.69"></path> <path class="cls-14" d="M1660.08,1059.64l.8-4.55q-2.79-.49-5.67-.74l-.4,4.61Q1657.48,1059.18,1660.08,1059.64Z"></path> <path class="cls-11" d="M1699.38,1084.68l3.79-2.65q-1.65-2.34-3.48-4.53l-3.54,3q1.71,2,3.23,4.22"></path> <path class="cls-14" d="M1699.38,1084.68l3.79-2.65q-1.65-2.34-3.48-4.53l-3.54,3Q1697.85,1082.5,1699.38,1084.68Z"></path> <path class="cls-11" d="M1679.95,1066.87l2.31-4q-2.47-1.43-5.07-2.65l-2,4.19q2.41,1.13,4.71,2.46"></path> <path class="cls-14" d="M1679.95,1066.87l2.31-4q-2.47-1.43-5.07-2.65l-2,4.19Q1677.65,1065.54,1679.95,1066.87Z"></path> <path class="cls-11" d="M1675.24,1064.41l2-4.19c-1.72-.8-3.48-1.55-5.28-2.2l-1.58,4.35c1.67.61,3.3,1.3,4.9,2"></path> <path class="cls-14" d="M1675.24,1064.41l2-4.19c-1.72-.8-3.48-1.55-5.28-2.2l-1.58,4.35C1672,1063,1673.64,1063.66,1675.24,1064.41Z"></path> <path class="cls-11" d="M1706.74,1098.77l4.35-1.58c-.65-1.8-1.4-3.55-2.2-5.27l-4.19,2c.75,1.6,1.44,3.23,2,4.9"></path> <path class="cls-14" d="M1706.74,1098.77l4.35-1.58c-.65-1.8-1.4-3.55-2.2-5.27l-4.19,2C1705.44,1095.47,1706.13,1097.1,1706.74,1098.77Z"></path> <path class="cls-11" d="M1710.16,1114.3l4.61-.4q-.25-2.87-.74-5.67l-4.55.8q.46,2.6.69,5.27"></path> <path class="cls-14" d="M1710.16,1114.3l4.61-.4q-.25-2.87-.74-5.67l-4.55.8Q1709.92,1111.63,1710.16,1114.3Z"></path> <path class="cls-11" d="M1702.24,1089.16l4-2.31q-1.44-2.48-3.07-4.82l-3.79,2.65q1.52,2.17,2.86,4.48"></path> <path class="cls-14" d="M1702.24,1089.16l4-2.31q-1.44-2.48-3.07-4.82l-3.79,2.65Q1700.9,1086.85,1702.24,1089.16Z"></path> <path class="cls-11" d="M1710.16,1124.91l4.61.4c.16-1.88.26-3.78.26-5.71h-4.62c0,1.79-.09,3.56-.24,5.31"></path> <path class="cls-14" d="M1710.16,1124.91l4.61.4c.16-1.88.26-3.78.26-5.71h-4.62C1710.4,1121.39,1710.31,1123.16,1710.16,1124.91Z"></path> <path class="cls-11" d="M1709.47,1109l4.55-.8c-.33-1.89-.73-3.75-1.23-5.58l-4.47,1.2q.68,2.55,1.14,5.19"></path> <path class="cls-14" d="M1709.47,1109l4.55-.8c-.33-1.89-.73-3.75-1.23-5.58l-4.47,1.2Q1709,1106.39,1709.47,1109Z"></path> <path class="cls-11" d="M1710.4,1119.6H1715c0-1.93-.1-3.83-.26-5.71l-4.61.4c.15,1.75.24,3.52.24,5.31"></path> <path class="cls-14" d="M1710.4,1119.6H1715c0-1.93-.1-3.83-.26-5.71l-4.61.4C1710.31,1116,1710.4,1117.81,1710.4,1119.6Z"></path> <path class="cls-11" d="M1704.7,1093.87l4.19-2c-.81-1.73-1.7-3.42-2.65-5.07l-4,2.31q1.33,2.29,2.46,4.71"></path> <path class="cls-14" d="M1704.7,1093.87l4.19-2c-.81-1.73-1.7-3.42-2.65-5.07l-4,2.31Q1703.56,1091.45,1704.7,1093.87Z"></path> <path class="cls-11" d="M1588.85,1114.3l-4.61-.4c-.16,1.88-.26,3.78-.26,5.71h4.62c0-1.79.09-3.56.25-5.31"></path> <path class="cls-14" d="M1588.85,1114.3l-4.61-.4c-.16,1.88-.26,3.78-.26,5.71h4.62C1588.6,1117.81,1588.7,1116,1588.85,1114.3Z"></path> <path class="cls-11" d="M1654.81,1058.95l.4-4.61c-1.88-.16-3.78-.26-5.71-.26v4.62c1.79,0,3.56.09,5.31.25"></path> <path class="cls-14" d="M1654.81,1058.95l.4-4.61c-1.88-.16-3.78-.26-5.71-.26v4.62C1651.29,1058.7,1653.06,1058.8,1654.81,1058.95Z"></path> <path class="cls-11" d="M1708.33,1103.84l4.46-1.2c-.49-1.85-1.06-3.67-1.71-5.46l-4.35,1.58q.9,2.49,1.59,5.07"></path> <path class="cls-14" d="M1708.33,1103.84l4.46-1.2c-.49-1.85-1.06-3.67-1.71-5.46l-4.35,1.58Q1707.64,1101.26,1708.33,1103.84Z"></path> <path class="cls-11" d="M1606.44,1076.54l-3.27-3.27c-1.35,1.35-2.63,2.76-3.85,4.22l3.54,3c1.14-1.36,2.33-2.67,3.58-3.92"></path> <path class="cls-14" d="M1606.44,1076.54l-3.27-3.27c-1.35,1.35-2.63,2.76-3.85,4.22l3.54,3C1604,1079.11,1605.19,1077.79,1606.44,1076.54Z"></path> <path class="cls-11" d="M1599.63,1084.68l-3.79-2.65q-1.64,2.34-3.07,4.82l4,2.31q1.33-2.3,2.86-4.48"></path> <path class="cls-14" d="M1599.63,1084.68l-3.79-2.65q-1.64,2.34-3.07,4.82l4,2.31Q1598.1,1086.85,1599.63,1084.68Z"></path> <path class="cls-11" d="M1594.31,1093.87l-4.19-2c-.8,1.72-1.54,3.48-2.2,5.27l4.35,1.58c.61-1.67,1.3-3.3,2-4.9"></path> <path class="cls-14" d="M1594.31,1093.87l-4.19-2c-.8,1.72-1.54,3.48-2.2,5.27l4.35,1.58C1592.87,1097.1,1593.56,1095.46,1594.31,1093.87Z"></path> <path class="cls-11" d="M1602.86,1080.46l-3.54-3q-1.83,2.19-3.48,4.53l3.79,2.65q1.53-2.18,3.23-4.22"></path> <path class="cls-14" d="M1602.86,1080.46l-3.54-3q-1.83,2.19-3.48,4.53l3.79,2.65Q1601.16,1082.5,1602.86,1080.46Z"></path> <path class="cls-11" d="M1596.77,1089.16l-4-2.31q-1.43,2.47-2.65,5.07l4.19,2q1.13-2.41,2.46-4.71"></path> <path class="cls-14" d="M1596.77,1089.16l-4-2.31q-1.43,2.47-2.65,5.07l4.19,2Q1595.44,1091.45,1596.77,1089.16Z"></path> <path class="cls-11" d="M1589.54,1109l-4.55-.8q-.49,2.8-.74,5.67l4.6.4q.23-2.67.69-5.27"></path> <path class="cls-14" d="M1589.54,1109l-4.55-.8q-.49,2.8-.74,5.67l4.6.4Q1589.08,1111.63,1589.54,1109Z"></path> <path class="cls-11" d="M1590.68,1103.84l-4.47-1.2c-.49,1.83-.89,3.69-1.23,5.58l4.55.8q.46-2.63,1.14-5.19"></path> <path class="cls-14" d="M1590.68,1103.84l-4.47-1.2c-.49,1.83-.89,3.69-1.23,5.58l4.55.8Q1590,1106.4,1590.68,1103.84Z"></path> <path class="cls-11" d="M1592.26,1098.77l-4.35-1.58c-.65,1.78-1.21,3.6-1.71,5.46l4.46,1.2q.69-2.58,1.59-5.07"></path> <path class="cls-14" d="M1592.26,1098.77l-4.35-1.58c-.65,1.78-1.21,3.6-1.71,5.46l4.46,1.2Q1591.37,1101.26,1592.26,1098.77Z"></path> <path class="cls-11" d="M1614.58,1069.73l-2.65-3.79q-2.34,1.65-4.53,3.48l3,3.54q2-1.71,4.22-3.23"></path> <path class="cls-14" d="M1614.58,1069.73l-2.65-3.79q-2.34,1.65-4.53,3.48l3,3.54Q1612.4,1071.25,1614.58,1069.73Z"></path> <path class="cls-11" d="M1633.74,1060.78l-1.2-4.47c-1.85.5-3.67,1.06-5.46,1.71l1.58,4.35c1.66-.6,3.35-1.13,5.07-1.59"></path> <path class="cls-14" d="M1633.74,1060.78l-1.2-4.47c-1.85.5-3.67,1.06-5.46,1.71l1.58,4.35C1630.33,1061.76,1632,1061.24,1633.74,1060.78Z"></path> <path class="cls-11" d="M1638.93,1059.64l-.8-4.55c-1.89.33-3.75.73-5.58,1.23l1.2,4.47q2.55-.68,5.19-1.14"></path> <path class="cls-14" d="M1638.93,1059.64l-.8-4.55c-1.89.33-3.75.73-5.58,1.23l1.2,4.47Q1636.29,1060.1,1638.93,1059.64Z"></path> <path class="cls-11" d="M1610.36,1073l-3-3.54c-1.46,1.23-2.87,2.51-4.22,3.85l3.27,3.27c1.25-1.25,2.57-2.44,3.92-3.58"></path> <path class="cls-14" d="M1610.36,1073l-3-3.54c-1.46,1.23-2.87,2.51-4.22,3.85l3.27,3.27C1607.69,1075.29,1609,1074.1,1610.36,1073Z"></path> <path class="cls-11" d="M1628.67,1062.36l-1.58-4.35c-1.8.65-3.55,1.4-5.28,2.2l2,4.19c1.6-.75,3.23-1.44,4.9-2"></path> <path class="cls-14" d="M1628.67,1062.36l-1.58-4.35c-1.8.65-3.55,1.4-5.28,2.2l2,4.19C1625.37,1063.66,1627,1063,1628.67,1062.36Z"></path> <path class="cls-11" d="M1644.2,1058.95l-.4-4.61q-2.87.25-5.67.74l.8,4.55c1.73-.3,3.49-.54,5.27-.69"></path> <path class="cls-14" d="M1644.2,1058.95l-.4-4.61q-2.87.25-5.67.74l.8,4.55C1640.66,1059.34,1642.42,1059.1,1644.2,1058.95Z"></path> <path class="cls-11" d="M1649.5,1058.71v-4.62c-1.92,0-3.83.1-5.71.26l.4,4.61c1.75-.15,3.52-.25,5.31-.25"></path> <path class="cls-14" d="M1649.5,1058.71v-4.62c-1.92,0-3.83.1-5.71.26l.4,4.61C1645.95,1058.8,1647.71,1058.71,1649.5,1058.71Z"></path> <path class="cls-11" d="M1619.06,1066.87l-2.31-4q-2.48,1.44-4.82,3.07l2.65,3.79q2.17-1.52,4.48-2.86"></path> <path class="cls-14" d="M1619.06,1066.87l-2.31-4q-2.48,1.44-4.82,3.07l2.65,3.79Q1616.75,1068.21,1619.06,1066.87Z"></path> <path class="cls-11" d="M1623.77,1064.41l-2-4.19c-1.73.81-3.42,1.7-5.07,2.65l2.31,4c1.53-.89,3.1-1.71,4.71-2.46"></path> <path class="cls-14" d="M1623.77,1064.41l-2-4.19c-1.73.81-3.42,1.7-5.07,2.65l2.31,4C1620.59,1066,1622.16,1065.16,1623.77,1064.41Z"></path> <path class="cls-15" d="M1202.33,664.24a124.39,124.39,0,0,0-19.43,1.51c-44.15,7-77.37,37.31-77.37,73.67,0,15.13,5.76,29.22,15.66,41,0,0-5.94,26-24.31,38.21,28.13,0,44.48-20.83,44.48-20.83,16.64,10.5,37.86,16.79,61,16.79,28.57,0,54.25-9.62,72-24.91,15.44-13.32,24.83-30.95,24.83-50.28,0-41.52-43.34-75.19-96.8-75.19"></path> <path class="cls-16" d="M1178.68,737.41a12.79,12.79,0,1,1-12.78-12.78,12.78,12.78,0,0,1,12.78,12.78"></path> <path class="cls-16" d="M1214.83,737.41A12.79,12.79,0,1,1,1202,724.62a12.78,12.78,0,0,1,12.78,12.78"></path> <path class="cls-16" d="M1251,737.41a12.79,12.79,0,1,1-12.78-12.78A12.78,12.78,0,0,1,1251,737.41"></path> <path class="cls-15" d="M1790.56,700a124.39,124.39,0,0,1,19.43,1.51c44.15,7,77.37,37.31,77.37,73.67,0,15.13-5.76,29.22-15.66,41,0,0,5.94,26,24.31,38.21-28.13,0-44.48-20.83-44.48-20.83-16.64,10.5-37.86,16.79-61,16.79-28.57,0-54.25-9.62-72-24.91-15.44-13.32-24.83-30.95-24.83-50.28,0-41.52,43.34-75.19,96.8-75.19"></path> <path class="cls-16" d="M1814.21,773.18A12.79,12.79,0,1,0,1827,760.4a12.78,12.78,0,0,0-12.78,12.78"></path> <path class="cls-16" d="M1778.06,773.18a12.79,12.79,0,1,0,12.78-12.78,12.78,12.78,0,0,0-12.78,12.78"></path> <path class="cls-16" d="M1741.9,773.18a12.79,12.79,0,1,0,12.78-12.78,12.78,12.78,0,0,0-12.78,12.78"></path> <path class="cls-15" d="M1442.33,726.63a124.39,124.39,0,0,1,19.43,1.51c44.15,7,77.37,37.31,77.37,73.67,0,15.13-5.76,29.22-15.66,41,0,0,5.94,26,24.31,38.21-28.13,0-44.48-20.83-44.48-20.83-16.64,10.5-37.86,16.79-61,16.79-28.57,0-54.25-9.62-72-24.91-15.44-13.32-24.83-30.95-24.83-50.28,0-41.52,43.34-75.19,96.8-75.19"></path> <path class="cls-16" d="M1466,799.8A12.79,12.79,0,1,0,1478.77,787,12.78,12.78,0,0,0,1466,799.8"></path> <path class="cls-16" d="M1429.83,799.8A12.79,12.79,0,1,0,1442.62,787a12.78,12.78,0,0,0-12.78,12.78"></path> <path class="cls-16" d="M1393.68,799.8A12.79,12.79,0,1,0,1406.46,787a12.78,12.78,0,0,0-12.78,12.78"></path> <path class="cls-4" d="M1753.85,1040.41H1738a3.59,3.59,0,0,1-3.58-3.59v-15.88a3.59,3.59,0,0,1,3.58-3.59h15.88a3.58,3.58,0,0,1,3.58,3.59v15.88a3.58,3.58,0,0,1-3.58,3.59"></path> <path class="cls-9" d="M1738,1017.36h15.88a3.58,3.58,0,0,1,3.58,3.58v15.88a3.59,3.59,0,0,1-3.59,3.59H1738a3.58,3.58,0,0,1-3.58-3.58v-15.88A3.59,3.59,0,0,1,1738,1017.36Z"></path> <path class="cls-17" d="M1838.8,1164.69c-35.52,0-63.22-73.31-67.89-99.88-2-11.11-3.79-21.61-6.57-26.57-2.29-4.09-12-4.67-16.07-4.31a5.71,5.71,0,0,1-1-11.38c2.08-.19,20.55-1.55,27.08,10.11,3.73,6.65,5.64,17.56,7.86,30.18,4.19,23.84,30.77,90.43,56.63,90.43,34.75,0,36.47-62.85,35.71-80.66-1.28-29.87-8-132.89-8-133.93v-.37c0-20.15,14-31.71,38.39-31.71a5.71,5.71,0,0,1,0,11.42c-26.64,0-27,14.9-27,20.1.32,5,6.07,104.64,8,134,2.74,41-8.9,92.57-47.12,92.57"></path> <path class="cls-18" d="M1937.81,987.14V944.34a5.07,5.07,0,0,1,5.07-5.07h40.81a5,5,0,0,1,3.56,1.46l3.6-3.6a10.14,10.14,0,0,0-7.18-3h-40.8a10.15,10.15,0,0,0-10.15,10.15v43a10.12,10.12,0,0,0,3,7.18l3.66-3.66a5.06,5.06,0,0,1-1.55-3.64"></path> <path class="cls-19" d="M1990.86,937.13l-3.6,3.6a5,5,0,0,1,1.51,3.6v42.81a5.07,5.07,0,0,1-5.07,5.07h-40.81a5,5,0,0,1-3.52-1.43l-3.66,3.66a10.12,10.12,0,0,0,7.18,3h40.8a10.15,10.15,0,0,0,10.15-10.15v-43a10.12,10.12,0,0,0-3-7.18"></path> <path class="cls-20" d="M1942.88,939.26a5.07,5.07,0,0,0-5.07,5.07v42.81a5.1,5.1,0,0,0,5.07,5.07h40.82a5.07,5.07,0,0,0,5.07-5.07V944.34a5.08,5.08,0,0,0-5.07-5.07Z"></path> <path class="cls-18" d="M1906.06,1174.86V989.15a5.07,5.07,0,0,1,5.07-5.07h104.33a5,5,0,0,1,3.56,1.46l3.6-3.6a10.14,10.14,0,0,0-7.18-3H1911.13A10.15,10.15,0,0,0,1901,989.12V1175a10.12,10.12,0,0,0,3,7.18l3.66-3.66a5.06,5.06,0,0,1-1.55-3.64"></path> <path class="cls-19" d="M2022.62,981.94l-3.6,3.6a5,5,0,0,1,1.51,3.6v185.71a5.07,5.07,0,0,1-5.07,5.07H1911.13a5,5,0,0,1-3.52-1.43l-3.66,3.66a10.13,10.13,0,0,0,7.18,3h104.32a10.15,10.15,0,0,0,10.15-10.15V989.12a10.12,10.12,0,0,0-3-7.18"></path> <path class="cls-20" d="M1911.13,984.08a5.07,5.07,0,0,0-5.07,5.07v185.71a5.09,5.09,0,0,0,5.07,5.07h104.33a5.07,5.07,0,0,0,5.07-5.07V989.15a5.08,5.08,0,0,0-5.07-5.07Z"></path> <path class="cls-18" d="M1906.06,944.92V902.11a5.07,5.07,0,0,1,5.07-5.07h104.33a5,5,0,0,1,3.56,1.46l3.6-3.6a10.14,10.14,0,0,0-7.18-3H1911.13A10.15,10.15,0,0,0,1901,902.08v43a10.12,10.12,0,0,0,3,7.18l3.66-3.66a5.06,5.06,0,0,1-1.55-3.64"></path> <path class="cls-19" d="M2022.62,894.9l-3.6,3.6a5,5,0,0,1,1.51,3.6v42.81a5.07,5.07,0,0,1-5.07,5.07H1911.13a5,5,0,0,1-3.52-1.43l-3.66,3.66a10.12,10.12,0,0,0,7.18,3h104.32A10.15,10.15,0,0,0,2025.59,945v-43a10.12,10.12,0,0,0-3-7.18"></path> <path class="cls-20" d="M1911.13,897a5.07,5.07,0,0,0-5.07,5.07v42.81a5.1,5.1,0,0,0,5.07,5.07h104.33a5.07,5.07,0,0,0,5.07-5.07V902.11a5.08,5.08,0,0,0-5.07-5.07Z"></path> <path class="cls-18" d="M1890.87,1174.59v-3.11a5.07,5.07,0,0,1,5.07-5.07H2032a5,5,0,0,1,3.56,1.46l3.6-3.6a10.14,10.14,0,0,0-7.18-3H1895.94a10.15,10.15,0,0,0-10.15,10.15v3.27a10.12,10.12,0,0,0,3,7.18l3.66-3.66a5.06,5.06,0,0,1-1.55-3.64"></path> <path class="cls-19" d="M2039.19,1164.27l-3.6,3.6a5,5,0,0,1,1.51,3.6v3.12a5.07,5.07,0,0,1-5.07,5.07H1895.94a5,5,0,0,1-3.52-1.43l-3.65,3.66a10.12,10.12,0,0,0,7.17,3H2032a10.15,10.15,0,0,0,10.15-10.15v-3.27a10.12,10.12,0,0,0-3-7.18"></path> <path class="cls-20" d="M1895.94,1166.41a5.07,5.07,0,0,0-5.07,5.07v3.11a5.09,5.09,0,0,0,5.07,5.07H2032a5.07,5.07,0,0,0,5.07-5.07v-3.11a5.08,5.08,0,0,0-5.07-5.07Z"></path> <path class="cls-19" d="M1955.58,992.21a3.8,3.8,0,0,0-3.8,3.8v32.08a3.82,3.82,0,0,0,3.8,3.8h54.36a3.8,3.8,0,0,0,3.8-3.8V996a3.8,3.8,0,0,0-3.8-3.8Z"></path> <path class="cls-7" d="M1957.85,996.41a1.87,1.87,0,0,0-1.87,1.87v15.8a1.88,1.88,0,0,0,1.87,1.87h26.78a1.87,1.87,0,0,0,1.87-1.87v-15.8a1.87,1.87,0,0,0-1.87-1.87Z"></path> <path class="cls-19" d="M1955.58,1039.83a3.8,3.8,0,0,0-3.8,3.8v8.26a3.82,3.82,0,0,0,3.8,3.8h54.36a3.8,3.8,0,0,0,3.8-3.8v-8.26a3.8,3.8,0,0,0-3.8-3.8Z"></path> <path class="cls-7" d="M1954.39,903.49a2.62,2.62,0,0,0-2.62,2.62v5.69a2.63,2.63,0,0,0,2.62,2.62h37.43a2.62,2.62,0,0,0,2.62-2.62V906.1a2.62,2.62,0,0,0-2.62-2.62Z"></path> <path class="cls-18" d="M1954.39,912.31a.53.53,0,0,1-.52-.52V906.1a.52.52,0,0,1,.52-.52h37.43a.52.52,0,0,1,.37.15.51.51,0,0,1,.15.37v5.69a.52.52,0,0,1-.52.52Z"></path> <path class="cls-7" d="M1954.39,917.41a2.62,2.62,0,0,0-2.62,2.62v5.69a2.63,2.63,0,0,0,2.62,2.62h37.43a2.62,2.62,0,0,0,2.62-2.62V920a2.62,2.62,0,0,0-2.62-2.62Z"></path> <path class="cls-18" d="M1954.39,926.23a.5.5,0,0,1-.35-.14.51.51,0,0,1-.17-.37V920a.52.52,0,0,1,.52-.52h37.43a.52.52,0,0,1,.37.15.52.52,0,0,1,.15.37v5.69a.52.52,0,0,1-.52.52Z"></path> <path class="cls-8" d="M1069.3,1057c0-8.43-9.52-15.38-22-16.74-7.49,7.22-13.32,15.34-16.83,24.18h36.14a12.3,12.3,0,0,0,2.68-7.44"></path> <path class="cls-21" d="M1030.47,1064.41a52.89,52.89,0,0,0-2.22,6.75,37.35,37.35,0,0,0,14.6,2.85c10.46,0,19.47-3.92,23.76-9.6Z"></path> <path class="cls-21" d="M1789.38,1022.9c0,6.79,6.19,12.64,15.11,15.37l-3.42-29.49c-7,3.06-11.7,8.23-11.7,14.12"></path> <path class="cls-22" d="M1810.6,1006.21a35.39,35.39,0,0,0-9.53,2.58l3.42,29.49a38.71,38.71,0,0,0,11.33,1.66,40.6,40.6,0,0,0,5.7-.42v-1.44a51.94,51.94,0,0,0-10.92-31.87"></path> <g class="cls-23"> <g class="cls-24"> <path class="cls-12" d="M1603.21,1166l92.66-92.66a65.52,65.52,0,1,0-92.66,92.66"></path> </g> </g> <g class="cls-23"> <g class="cls-25"> <path class="cls-12" d="M1119,1166l92.66-92.66A65.52,65.52,0,1,0,1119,1166"></path> </g> </g> <path class="cls-17" d="M1061,896l-7.19-.78,4.8,22.34,34.25-7.37-4.62-21.48A35.81,35.81,0,0,1,1061,896"></path> <path class="cls-11" d="M1088.23,888.75l-4.33-20.16a19.59,19.59,0,0,1-20.63,11.23h-.09l-13-1.4,3.63,16.85,7.19.78a35.81,35.81,0,0,0,27.25-7.29"></path> <polygon class="cls-12" points="907.05 1151.17 757.35 1151.17 770.97 1140.51 893.36 1140.51 907.05 1151.17"></polygon> <polygon class="cls-13" points="907.05 1129.84 757.35 1129.84 770.97 1140.5 893.36 1140.5 907.05 1129.84"></polygon> <polygon class="cls-12" points="907.05 1129.84 757.35 1129.84 770.97 1119.18 893.36 1119.18 907.05 1129.84"></polygon> <polygon class="cls-13" points="907.05 1108.52 757.35 1108.52 770.97 1119.18 893.36 1119.18 907.05 1108.52"></polygon> <polygon class="cls-13" points="907.05 1087.2 757.35 1087.2 770.97 1097.87 893.36 1097.87 907.05 1087.2"></polygon> <polygon class="cls-12" points="907.05 1108.52 757.35 1108.52 770.97 1097.87 893.36 1097.87 907.05 1108.52"></polygon> <g class="cls-26"> <g class="cls-27"> <g class="cls-28"> <polygon class="cls-15" points="882.33 1151.17 782.34 1151.17 795.96 1140.5 918.34 1140.5 882.33 1151.17"></polygon> </g> </g> </g> <g class="cls-26"> <g class="cls-29"> <g class="cls-30"> <polygon class="cls-15" points="882.33 1129.84 782.34 1129.84 795.96 1140.5 918.34 1140.5 882.33 1129.84"></polygon> </g> </g> </g> <g class="cls-26"> <g class="cls-31"> <g class="cls-32"> <polygon class="cls-15" points="882.33 1129.84 782.34 1129.84 795.96 1119.18 918.34 1119.18 882.33 1129.84"></polygon> </g> </g> </g> <g class="cls-26"> <g class="cls-33"> <g class="cls-34"> <polygon class="cls-15" points="882.33 1108.52 782.34 1108.52 795.96 1119.18 918.34 1119.18 882.33 1108.52"></polygon> </g> </g> </g> <g class="cls-26"> <g class="cls-35"> <g class="cls-36"> <polygon class="cls-15" points="882.33 1087.2 782.34 1087.2 795.96 1097.86 918.34 1097.86 882.33 1087.2"></polygon> </g> </g> </g> <g class="cls-26"> <g class="cls-37"> <g class="cls-38"> <polygon class="cls-15" points="882.33 1108.52 782.34 1108.52 795.96 1097.86 918.34 1097.86 882.33 1108.52"></polygon> </g> </g> </g> <polygon class="cls-12" points="898.06 1151.17 798.07 1151.17 811.7 1140.5 884.36 1140.5 898.06 1151.17"></polygon> <polygon class="cls-13" points="898.06 1129.84 798.07 1129.84 811.7 1140.5 884.36 1140.5 898.06 1129.84"></polygon> <polygon class="cls-12" points="898.06 1129.84 798.07 1129.84 811.7 1119.18 884.36 1119.18 898.06 1129.84"></polygon> <polygon class="cls-13" points="898.06 1108.52 798.07 1108.52 811.7 1119.18 884.36 1119.18 898.06 1108.52"></polygon> <polygon class="cls-13" points="898.06 1087.2 798.07 1087.2 811.7 1097.86 884.36 1097.86 898.06 1087.2"></polygon> <polygon class="cls-12" points="898.06 1108.52 798.07 1108.52 811.7 1097.86 884.36 1097.86 898.06 1108.52"></polygon> <g class="cls-26"> <g class="cls-39"> <g class="cls-39"> <polygon class="cls-15" points="909.52 1151.34 809.53 1151.34 823.15 1140.68 895.82 1140.68 909.52 1151.34"></polygon> </g> </g> </g> <g class="cls-26"> <g class="cls-40"> <g class="cls-41"> <polygon class="cls-15" points="909.52 1130.02 809.53 1130.02 823.15 1140.68 895.82 1140.68 909.52 1130.02"></polygon> </g> </g> </g> <g class="cls-26"> <g class="cls-42"> <g class="cls-42"> <polygon class="cls-15" points="909.52 1130.02 809.53 1130.02 823.15 1119.36 895.82 1119.36 909.52 1130.02"></polygon> </g> </g> </g> <g class="cls-26"> <g class="cls-43"> <g class="cls-44"> <polygon class="cls-15" points="909.52 1108.7 809.53 1108.7 823.15 1119.36 895.82 1119.36 909.52 1108.7"></polygon> </g> </g> </g> <g class="cls-26"> <g class="cls-45"> <g class="cls-45"> <polygon class="cls-15" points="909.52 1087.37 809.53 1087.37 823.15 1098.04 895.82 1098.04 909.52 1087.37"></polygon> </g> </g> </g> <g class="cls-26"> <g class="cls-46"> <g class="cls-47"> <polygon class="cls-15" points="909.52 1108.7 809.53 1108.7 823.15 1098.04 895.82 1098.04 909.52 1108.7"></polygon> </g> </g> </g> <polygon class="cls-12" points="916.34 1151.34 816.35 1151.34 829.97 1140.67 902.64 1140.67 916.34 1151.34"></polygon> <polygon class="cls-13" points="916.34 1130.01 816.35 1130.01 829.97 1140.67 902.64 1140.67 916.34 1130.01"></polygon> <polygon class="cls-12" points="916.34 1130.01 816.35 1130.01 829.97 1119.35 902.64 1119.35 916.34 1130.01"></polygon> <polygon class="cls-13" points="916.34 1108.69 816.35 1108.69 829.97 1119.35 902.64 1119.35 916.34 1108.69"></polygon> <polygon class="cls-13" points="916.34 1087.37 816.35 1087.37 829.97 1098.03 902.64 1098.03 916.34 1087.37"></polygon> <polygon class="cls-12" points="916.34 1108.69 816.35 1108.69 829.97 1098.03 902.64 1098.03 916.34 1108.69"></polygon> <rect class="cls-48" x="757.34" y="1151.17" width="159.57" height="29.33"></rect> <rect class="cls-21" x="761.92" y="1155.75" width="150.4" height="24.74"></rect> <polyline class="cls-49" points="916.9 1171.87 916.9 1151.17 912.33 1155.75 912.33 1171.87"></polyline> <polyline class="cls-49" points="757.35 1180.5 757.35 1151.17 761.93 1155.75 761.93 1180.5"></polyline> <path class="cls-49" d="M883.28,1015.77a61.91,61.91,0,0,1-38,12.76,62.69,62.69,0,0,1-62.51-70.34,57.41,57.41,0,0,0-3.53,19.89v79.8h115v-50l-10,7.14Z"></path> <path class="cls-50" d="M877.39,937.43A57.49,57.49,0,0,0,782.8,958.2a62.71,62.71,0,0,0,62.51,70.34,61.91,61.91,0,0,0,38-12.76l1-.72,10-7.14V978.08a57.11,57.11,0,0,0-16.84-40.65"></path> <path class="cls-49" d="M875,827.59a55.44,55.44,0,0,1-5.93-1.41l48,117.81a35.36,35.36,0,1,0,65.48-26.7L950.1,837.51l-68.3-9.17a52.72,52.72,0,0,1-6.77-.75"></path> <path class="cls-50" d="M889,794.66l-1.19-.21-1.84-.06a12.9,12.9,0,0,1-1.89-.21,15.65,15.65,0,0,1-7.86-3.87l-9-8.21-12.9,7.65c.11.29.19.59.31.89l14.5,35.54c1.94.56,88.73,30.31,88.73,30.31l-22.69-55.64Z"></path> <rect class="cls-48" x="757.34" y="1057.88" width="159.57" height="29.33"></rect> <path class="cls-21" d="M989,936.65c-3,17.12-16,26.38-31.65,33.86l-86.43,41.65-1.18.59a52.52,52.52,0,0,1-33.49,5.18,53.13,53.13,0,0,1-2.75-104.12l.22,0,97.07-23.33c9.65-1.73,15.19-3.58,23.52-2.13,23,4,38.71,25.3,34.7,48.35"></path> <path class="cls-17" d="M964.18,931.61A14.93,14.93,0,1,1,952,914.33a14.92,14.92,0,0,1,12.14,17.27"></path> <path class="cls-21" d="M1093.86,873.91a31.06,31.06,0,0,1-41.18,15.28L875.46,815.92h0a35.83,35.83,0,0,1-5-1.89,38.85,38.85,0,1,1,32.44-70.61,35.89,35.89,0,0,1,4.7,2.58h0l171,86.76a31,31,0,0,1,15.25,41.15"></path> <path class="cls-51" d="M899.32,796.46a21.79,21.79,0,1,1,5.28-30.35,21.78,21.78,0,0,1-5.28,30.35"></path> <path class="cls-17" d="M894.79,790a13.92,13.92,0,1,1,3.38-19.38A13.92,13.92,0,0,1,894.79,790"></path> <path class="cls-51" d="M1080.57,860.78A18,18,0,1,1,1062.48,843a18,18,0,0,1,18.09,17.82"></path> <path class="cls-17" d="M1074.09,860.83a11.48,11.48,0,1,1-11.56-11.39,11.48,11.48,0,0,1,11.56,11.39"></path> <path class="cls-48" d="M857.32,765.22a32.16,32.16,0,0,1,42.75-15.58,29.3,29.3,0,0,1,3.87,1.86l.42.27.45.21,171.05,86.77a24.25,24.25,0,0,1,9.6,7.92l5.91-3a30.84,30.84,0,0,0-12.76-10.9L907.59,746h0a35.52,35.52,0,0,0-4.7-2.58A38.83,38.83,0,0,0,853,798.12l6.6-1.88a32.26,32.26,0,0,1-2.28-31"></path> <path class="cls-49" d="M875.43,815.9h0l177.22,73.27a31,31,0,0,0,38.69-45.53l-5.91,3a24.45,24.45,0,0,1-30,36.52L878.09,809.87l-.33-.15-.5-.15a28.63,28.63,0,0,1-4.09-1.55,32,32,0,0,1-13.56-11.78l-6.6,1.88A38.65,38.65,0,0,0,870.41,814a35.58,35.58,0,0,0,5,1.89"></path> <g class="cls-23"> <g class="cls-52"> <g class="cls-53"> <path class="cls-51" d="M904.59,766.1A21.79,21.79,0,0,1,869,791.18"></path> </g> </g> </g> <g class="cls-23"> <g class="cls-54"> <g class="cls-55"> <path class="cls-51" d="M1075.22,848.13A18,18,0,0,1,1050,873.71"></path> </g> </g> </g> <path class="cls-48" d="M799.43,957.72a46.46,46.46,0,0,1,35.44-37.42L932,896.95c1.85-.33,3.56-.67,5.17-1,6.47-1.28,10.38-2.05,15.87-1.1a36.8,36.8,0,0,1,17.08,7.75l3.93-5.2a43.15,43.15,0,0,0-19.88-9c-8.33-1.45-13.87.4-23.52,2.13l-97.07,23.33-.22,0A53.15,53.15,0,0,0,808.5,1004l5.13-4.3a46.48,46.48,0,0,1-14.19-42"></path> <path class="cls-49" d="M869.64,1012.81l1.18-.59,86.43-41.65c15.65-7.48,28.67-16.75,31.65-33.86a41.29,41.29,0,0,0-14.82-39.31l-3.94,5.2a34.6,34.6,0,0,1,12.26,33c-2.11,12.14-10.22,20.55-28,29L868,1006.29l-1.25.62a46.3,46.3,0,0,1-53.09-7.18l-5.13,4.3a53,53,0,0,0,61.14,8.79"></path> <path class="cls-51" d="M866.92,986.74a30.28,30.28,0,1,1,0-42.81,30.27,30.27,0,0,1,0,42.81"></path> <path class="cls-17" d="M859.18,979a19.34,19.34,0,1,1,0-27.34,19.34,19.34,0,0,1,0,27.34"></path> <g class="cls-23"> <g class="cls-56"> <g class="cls-57"> <path class="cls-51" d="M866.91,943.93a30.28,30.28,0,0,1-42.82,42.82"></path> </g> </g> </g> <path class="cls-51" d="M963.73,944.91a21.12,21.12,0,1,1,.76-29.86,21.12,21.12,0,0,1-.76,29.86"></path> <path class="cls-17" d="M958.47,939.38a13.49,13.49,0,1,1,.49-19.07,13.49,13.49,0,0,1-.49,19.07"></path> <g class="cls-23"> <g class="cls-58"> <g class="cls-59"> <path class="cls-51" d="M964.48,915.05a21.12,21.12,0,0,1-30.62,29.11"></path> </g> </g> </g> <rect class="cls-50" x="779.27" y="1051.44" width="114.95" height="6.44"></rect> <rect class="cls-21" x="761.92" y="1062.46" width="150.4" height="24.74"></rect> <polyline class="cls-49" points="916.9 1082.11 916.9 1057.88 912.33 1062.46 912.33 1082.11"></polyline> <polyline class="cls-49" points="757.35 1087.21 757.35 1057.88 761.93 1062.46 761.93 1087.21"></polyline> <g class="cls-26"> <g class="cls-60"> <g class="cls-61"> <rect class="cls-49" x="761.92" y="1062.46" width="75.2" height="24.91"></rect> </g> </g> </g> <g class="cls-26"> <g class="cls-62"> <g class="cls-63"> <rect class="cls-49" x="761.92" y="1155.75" width="74.17" height="22.47"></rect> </g> </g> </g> <rect class="cls-48" x="1047.42" y="913.55" width="63.35" height="24.75" transform="translate(-178.87 263.12) rotate(-12.85)"></rect> <rect class="cls-21" x="1052.51" y="918.08" width="54.19" height="20.16" transform="translate(-179.35 263.28) rotate(-12.85)"></rect> <polyline class="cls-49" points="1112.73 930.94 1107.23 906.82 1103.78 912.31 1108.26 931.96"></polyline> <polyline class="cls-49" points="1050.98 945.04 1045.47 920.9 1050.96 924.36 1055.44 944.02"></polyline> <g class="cls-26"> <g class="cls-64"> <g class="cls-65"> <rect class="cls-49" x="1052.87" y="921.09" width="27.09" height="20.33" transform="translate(-180.41 260.5) rotate(-12.85)"></rect> </g> </g> </g> <rect class="cls-50" x="1048.46" y="937.93" width="67.8" height="4.06" transform="translate(-181.94 264.26) rotate(-12.85)"></rect> <polygon class="cls-17" points="1078.81 975.39 1071.87 944.4 1052.02 948.84 1060.93 980.21 1078.83 975.41 1078.81 975.39"></polygon> <polygon class="cls-11" points="1080.77 1001.16 1091.21 994.12 1078.83 975.42 1060.93 980.21 1060.96 980.32 1080.77 1001.16"></polygon> <polygon class="cls-17" points="1113.29 934.88 1093.44 939.33 1100.34 970.19 1118.58 966.96 1113.29 934.88"></polygon> <polygon class="cls-11" points="1097.11 992.53 1109.55 994.47 1118.61 967.17 1118.58 966.96 1100.34 970.19 1100.36 970.31 1097.11 992.53"></polygon> <line class="cls-66" x1="1014.15" y1="1069.99" x2="1025.68" y2="1069.99"></line> <line class="cls-66" x1="1016.72" y1="1064.88" x2="1028.25" y2="1064.88"></line> <line class="cls-66" x1="1018.94" y1="1060.17" x2="1030.47" y2="1060.17"></line> <line class="cls-66" x1="1021.51" y1="1055.74" x2="1033.05" y2="1055.74"></line> <rect class="cls-20" x="1989.75" y="996.41" width="21.02" height="2.34"></rect> <rect class="cls-20" x="1989.75" y="1002.15" width="21.02" height="2.34"></rect> <rect class="cls-20" x="1989.75" y="1007.89" width="21.02" height="2.34"></rect> <rect class="cls-20" x="1989.75" y="1013.62" width="21.02" height="2.34"></rect> <polygon class="cls-10" points="1110.14 855.52 1109.09 860.22 1215.54 1010.09 1220.7 1009.42 1110.14 855.52"></polygon> <line class="cls-67" x1="1280.28" y1="1003.68" x2="1442.62" y2="1000.2"></line> <line class="cls-67" x1="1464.8" y1="1000.2" x2="1579.49" y2="996.4"></line> <line class="cls-67" x1="1591.11" y1="995.98" x2="1661.94" y2="993.37"></line> <path class="cls-9" d="M1442.79,916.63a301.56,301.56,0,0,0-187.64,83.57"></path> <path class="cls-68" d="M1270.7,983.33c-12.1,1.56-21.22,8.44-21.22,16.7a12.76,12.76,0,0,0,3.64,8.59l27.17-4.94a52.19,52.19,0,0,0-9.59-20.35"></path> <path class="cls-10" d="M1253.12,1008.62c4.59,5,13.07,8.44,22.8,8.44a40.59,40.59,0,0,0,5.7-.42v-1.44a51.86,51.86,0,0,0-1.33-11.52Z"></path> <path class="cls-67" d="M1267.11,988.52c-7.63,1-13.38,5.26-13.38,10.4a7.89,7.89,0,0,0,2.3,5.35"></path> <path class="cls-9" d="M1661.94,988.84a302.77,302.77,0,0,0-73.58-46.71"></path> <line class="cls-69" x1="1406.09" y1="1030.99" x2="1435.03" y2="1030.99"></line> <line class="cls-69" x1="1544.17" y1="1030.99" x2="1573.12" y2="1030.99"></line> <path class="cls-10" d="M1435,1023h-28.94a2,2,0,0,0-2,2v4a2,2,0,0,0,2,2H1435a2,2,0,0,0,2-2v-4a2,2,0,0,0-2-2"></path> <path class="cls-10" d="M1573.12,1023h-28.94a2,2,0,0,0-2,2v4a2,2,0,0,0,2,2h28.94a2,2,0,0,0,2-2v-4a2,2,0,0,0-2-2"></path> <line class="cls-67" x1="1406.09" y1="1022.98" x2="1435.03" y2="1022.98"></line> <line class="cls-67" x1="1544.17" y1="1022.98" x2="1573.12" y2="1022.98"></line> <path class="cls-5" d="M1749.31,1036.52l-11.79,3.9a3.14,3.14,0,0,1-3.14-3.14V1020.5a3.14,3.14,0,0,1,3.14-3.14l11.79-3.9a3.14,3.14,0,0,1,3.14,3.14v16.78a3.14,3.14,0,0,1-3.14,3.14"></path> <path class="cls-70" d="M1749.31,1036.52l-11.79,3.9a3.14,3.14,0,0,1-3.14-3.14V1020.5a3.14,3.14,0,0,1,3.14-3.14l11.79-3.9a3.14,3.14,0,0,1,3.14,3.14v16.78A3.14,3.14,0,0,1,1749.31,1036.52Z"></path> </g> </g> </svg>