<svg xmlns="http://www.w3.org/2000/svg" xmlns:xlink="http://www.w3.org/1999/xlink" id="Layer_1" viewBox="0 0 2800 1856.3"> <defs> <style>.cls-1,.cls-14,.cls-15,.cls-25,.cls-26{fill:none;}.cls-2{fill:#f1f2f2;}.cls-3{fill:#e9e9f3;}.cls-4{fill:#e9f6fd;}.cls-5{fill:#fff;}.cls-6{fill:#d6effb;}.cls-7{fill:#79c37a;}.cls-8{fill:#ea2127;}.cls-9{fill:#5956a4;}.cls-10{fill:#9e4379;}.cls-11{fill:#aa6089;}.cls-12{fill:#7973b4;}.cls-13{fill:#49499d;}.cls-14{stroke:#79c37a;}.cls-14,.cls-15,.cls-25,.cls-26{stroke-miterlimit:10;}.cls-14,.cls-15{stroke-width:2.03px;}.cls-15{stroke:#9e4379;}.cls-16{fill:#def3f2;}.cls-17{fill:#abe0f9;}.cls-18{fill:#89d0cc;}.cls-19{fill:#5bc3be;}.cls-20{fill:#00b4a2;}.cls-21{fill:#645fa9;}.cls-22{fill:#7c77b7;}.cls-23{fill:#ec1c24;}.cls-24{fill:#d62027;}.cls-25{stroke:#89d0cc;}.cls-25,.cls-26{stroke-width:1.46px;}.cls-26{stroke:#00b4a2;}.cls-27{clip-path:url(#clip-path);}.cls-28{fill:#fcfdff;}.cls-29{fill:#c4c1e0;}.cls-30{fill:#db92bf;}.cls-31{fill:#93d5d9;}.cls-32{fill:#d85c54;}.cls-33{fill:#44c7f4;}.cls-34{fill:#fbb65e;}.cls-35{fill:#fcc785;}.cls-36{fill:#f9b55f;}.cls-37{fill:#f9a555;}.cls-38{opacity:0.3;}.cls-39{clip-path:url(#clip-path-2);}.cls-40{fill:#ffefe8;}.cls-41{fill:#fbc784;}</style> <clipPath id="clip-path"> <path class="cls-1" d="M277.92,931c0-184.08,149.22-333.3,333.3-333.3S944.52,747,944.52,931s-149.22,333.3-333.3,333.3S277.92,1115.12,277.92,931"></path> </clipPath> <clipPath id="clip-path-2"> <rect class="cls-1" x="609.64" y="844.51" width="18.58" height="19.39"></rect> </clipPath> </defs> <title>Hint_Verizon_illustrations_1</title> <rect class="cls-2" width="2800" height="1856.3"></rect> <path class="cls-3" d="M277.92,931c0-184.08,149.22-333.3,333.3-333.3S944.52,747,944.52,931s-149.22,333.3-333.3,333.3S277.92,1115.12,277.92,931"></path> <path class="cls-4" d="M1055.59,931c0-184.08,149.22-333.3,333.3-333.3S1722.19,747,1722.19,931s-149.22,333.3-333.3,333.3-333.3-149.22-333.3-333.3"></path> <path class="cls-5" d="M1582.45,790.5a96.77,96.77,0,0,0-15.13,1.18c-34.39,5.44-60.27,29.07-60.27,57.39,0,11.79,4.48,22.76,12.2,31.95,0,0-4.63,20.23-18.93,29.77,21.91,0,34.65-16.22,34.65-16.22,13,8.18,29.49,13.07,47.49,13.07,22.26,0,42.26-7.49,56.06-19.4,12-10.38,19.34-24.11,19.34-39.16,0-32.35-33.76-58.57-75.4-58.57"></path> <path class="cls-4" d="M1605.93,874.68H1555a5.78,5.78,0,0,1-5.78-5.78V828.51a5.78,5.78,0,0,1,5.78-5.78h50.93a5.78,5.78,0,0,1,5.78,5.78V868.9a5.78,5.78,0,0,1-5.78,5.78"></path> <path class="cls-5" d="M1207.92,811.44a96.77,96.77,0,0,1,15.13,1.18c34.39,5.44,60.27,29.07,60.27,57.39,0,11.79-4.48,22.76-12.2,31.95,0,0,4.63,20.23,18.93,29.77-21.91,0-34.65-16.22-34.65-16.22-13,8.18-29.49,13.07-47.49,13.07-22.26,0-42.26-7.49-56.06-19.4-12-10.38-19.34-24.11-19.34-39.16,0-32.35,33.76-58.57,75.4-58.57"></path> <path class="cls-6" d="M1247.24,862.4a56.39,56.39,0,0,0-78.84.88l39,39Z"></path> <path class="cls-4" d="M1228.49,881.16a29.86,29.86,0,0,0-42.22,0l21.11,21.11Z"></path> <path class="cls-5" d="M1386.94,769.24a96.77,96.77,0,0,1,15.13,1.18c34.39,5.44,60.27,29.07,60.27,57.39,0,11.79-4.48,22.76-12.2,31.95,0,0,4.63,20.23,18.93,29.77-21.91,0-34.65-16.22-34.65-16.22-13,8.18-29.49,13.07-47.49,13.07-22.26,0-42.26-7.49-56.06-19.4-12-10.38-19.34-24.11-19.34-39.16,0-32.35,33.76-58.57,75.4-58.57"></path> <path class="cls-7" d="M1385.33,797.68a20.69,20.69,0,0,1,20.35,24.6,19.89,19.89,0,0,1-.51,2.1c-.42,1.42-19.84,39.42-19.84,39.42s-19.43-38-19.86-39.45a20.71,20.71,0,0,1,19.85-26.67m-9.07,20.73a9.07,9.07,0,1,0,9.07-9.07,9.07,9.07,0,0,0-9.07,9.07"></path> <path class="cls-8" d="M1168.4,863.29l39,39-21.2-51.19a58.93,58.93,0,0,0-17.77,12.21"></path> <path class="cls-9" d="M1190.55,861.64l.9-.35-4.31-10.41-.89.37Z"></path> <path class="cls-9" d="M1190.55,861.64l-4.3-10.39-.89.39,4.3,10.39.89-.38"></path> <path class="cls-9" d="M1207.38,858.3V846.79l-1,0v11.5l1,0"></path> <path class="cls-9" d="M1207.38,846.79V858.3l1,0V846.78h-1"></path> <path class="cls-9" d="M1224.2,861.64l.89.38,4.57-11-.89-.37Z"></path> <path class="cls-9" d="M1224.2,861.64l4.56-11-.91-.34-4.55,11,.9.35"></path> <path class="cls-9" d="M1207.38,903.91l-40.63-40.63.83-.83a57.89,57.89,0,0,1,80.47-.9l.86.82Zm-37.32-40.62,37.32,37.32,38.18-38.18a55.57,55.57,0,0,0-75.5.86"></path> <path class="cls-9" d="M1212.12,894.4a2.92,2.92,0,1,1-1.06-4,2.93,2.93,0,0,1,1.06,4"></path> <polygon class="cls-9" points="1210.08 893.83 1208.41 892.86 1222.08 870.2 1222.91 870.68 1210.08 893.83"></polygon> <polygon class="cls-5" points="1179.47 860.73 1184.33 860.73 1184.33 861.96 1180.95 861.96 1180.95 863.25 1183.88 863.25 1183.88 864.42 1180.95 864.42 1180.95 865.93 1184.39 865.93 1184.39 867.2 1179.47 867.2 1179.47 860.73"></polygon> <polygon class="cls-9" points="1232.18 859.9 1236.93 859.9 1236.93 861.16 1233.66 861.16 1233.66 862.57 1236.39 862.57 1236.39 863.78 1233.66 863.78 1233.66 866.37 1232.18 866.37 1232.18 859.9"></polygon> <path class="cls-6" d="M1178.92,1009.29c0-4.7-5.3-8.57-12.25-9.33-5.22,5-9,10.83-10.62,17.24a20.83,20.83,0,0,0,8.14,1.59c8.14,0,14.73-4.25,14.73-9.49"></path> <path class="cls-10" d="M1164.18,1020a22.05,22.05,0,0,1-8.59-1.68l-.91-.39.24-1c1.57-6.33,5.25-12.32,10.94-17.8l.4-.38.54.06c7.7.85,13.3,5.26,13.3,10.49,0,5.88-7.13,10.66-15.91,10.66m-6.73-3.46a20.09,20.09,0,0,0,6.73,1.12c7.48,0,13.57-3.74,13.57-8.33,0-3.84-4.55-7.27-10.67-8.1a35.49,35.49,0,0,0-9.63,15.3"></path> <path class="cls-6" d="M1600.2,981c-6.74.87-11.83,4.7-11.83,9.3,0,5.24,6.6,9.49,14.74,9.49a22.75,22.75,0,0,0,3.17-.23v-.8A28.94,28.94,0,0,0,1600.2,981"></path> <path class="cls-10" d="M1603.11,1001c-8.77,0-15.9-4.78-15.9-10.66,0-5.1,5.4-9.5,12.85-10.47l.66-.09.41.53a30,30,0,0,1,6.33,18.48v1.82l-1,.14a23.83,23.83,0,0,1-3.34.25m-3.43-18.71c-5.92,1-10.14,4.28-10.14,8,0,4.59,6.09,8.32,13.57,8.32a20,20,0,0,0,2-.1,27.61,27.61,0,0,0-5.43-16.27"></path> <path class="cls-6" d="M1517.36,971.33a168.74,168.74,0,0,0-41-26v27.18Z"></path> <polygon class="cls-6" points="1407.5 955.36 1407.5 974.39 1471.41 972.61 1471.41 943.16 1407.5 955.36"></polygon> <path class="cls-4" d="M1407.5,930.6v24.77l63.91-12.2a168.11,168.11,0,0,0-63.91-12.57"></path> <polygon class="cls-6" points="1395.24 974.74 1395.24 957.7 1290.68 977.65 1395.24 974.74"></polygon> <path class="cls-4" d="M1290.68,977.65l104.56-20V931.09a168,168,0,0,0-104.56,46.57"></path> <path class="cls-11" d="M1588.37,990.31c0-4.6,5.08-8.43,11.83-9.3-.69-7.15,12.09-11.6-23-11.34l-23.49.65c-36-30.22-87.74-48.45-138.41-48.45A206.31,206.31,0,0,0,1273.6,978l-53.43,6.11c-16.1,2.37-40.47,3.32-53.5,15.87,6.95.76,12.25,4.64,12.25,9.33,0,5.24-6.6,9.49-14.73,9.49a20.86,20.86,0,0,1-8.14-1.58,27.07,27.07,0,0,0-.91,6.58l5.35,24a7.65,7.65,0,0,0,7.65,7.65h31.32a42.68,42.68,0,1,1,82.24,0L1479.31,1015a42.52,42.52,0,0,1,48.24-9.88l61.29-12.55a6.33,6.33,0,0,1-.48-2.28m-193.13-15.57-104.56,2.92a168.05,168.05,0,0,1,104.56-46.57Zm76.17-2.13-63.91,1.78V930.6a168.16,168.16,0,0,1,63.91,12.56Zm4.94-.14V945.3a168.67,168.67,0,0,1,41,26Z"></path> <path class="cls-10" d="M1280.07,1057l.5-1.84a41.51,41.51,0,1,0-80,0l.4,1.48h-32.85a8.83,8.83,0,0,1-8.82-8.69l-5.35-24.18a28,28,0,0,1,.94-6.87l.33-1.33,1.26.54a19.71,19.71,0,0,0,7.68,1.49c7.48,0,13.57-3.73,13.57-8.32,0-4-4.82-7.47-11.21-8.17l-2.48-.27,1.8-1.73c11.25-10.84,30.5-13.21,46-15.12,2.9-.35,5.64-.69,8.18-1.07l53.09-6.07a207.45,207.45,0,0,1,142.19-56.17c50.65,0,102.51,18.1,138.82,48.44l23-.64c19.22-.14,23.85,1.12,25.38,3.35,1.06,1.54.39,3.27-.26,4.93a9,9,0,0,0-.91,4.11l.11,1.13-1.12.15c-6.26.81-10.81,4.23-10.81,8.14a5.13,5.13,0,0,0,.4,1.86l.49,1.29-63,12.9-.34-.15a41.35,41.35,0,0,0-46.92,9.61l-.25.27-.36.07Zm-123.76-33.35,5.35,24.17a6.49,6.49,0,0,0,6.48,6.48H1198a43.85,43.85,0,1,1,85.34-.35l195.43-40a43.7,43.7,0,0,1,49-10l59.68-12.22a6.55,6.55,0,0,1-.15-1.39c0-4.86,4.91-9.09,11.81-10.3a13.24,13.24,0,0,1,1.08-4.08c.54-1.39.85-2.27.51-2.76-1.54-2.24-14.1-2.41-23.41-2.34l-23.91.67-.34-.29C1517,941,1465.55,923,1415.27,923a205.11,205.11,0,0,0-140.87,55.8l-.28.26-53.82,6.15c-2.53.37-5.28.71-8.19,1.07-14.31,1.76-31.93,3.94-42.84,12.88,6.4,1.43,10.82,5.43,10.82,10.08,0,5.88-7.13,10.66-15.9,10.66a22.59,22.59,0,0,1-7.3-1.18,24.07,24.07,0,0,0-.57,4.88m131.38-44.75,2.18-2.1a169.9,169.9,0,0,1,105.29-46.89l1.25-.09v46Zm106.38-46.56a167.57,167.57,0,0,0-100.36,44.05l100.36-2.8Zm12.26,43.25V929.43h1.17a168.93,168.93,0,0,1,64.36,12.65l.72.3v31.37Zm2.34-43.83v41.42l61.57-1.72V943.95a166.56,166.56,0,0,0-61.57-12.18m66.52,41.91V943.49l1.64.74a169.84,169.84,0,0,1,41.29,26.21l2.29,2Zm2.34-26.56v24.16l36.74-1a167.38,167.38,0,0,0-36.74-23.14"></path> <path class="cls-10" d="M1469.27,1055.48a42.3,42.3,0,0,1,10-40.47l-197.61,40.47Z"></path> <path class="cls-11" d="M1470.81,1056.65H1281.7l-.23-2.31,201.22-41.2-2.52,2.68a41.13,41.13,0,0,0-9.76,39.36Zm-177.57-2.34h174.53a43.37,43.37,0,0,1,8.4-37.46Z"></path> <path class="cls-10" d="M1588.85,992.58l-61.29,12.55a42.48,42.48,0,0,1,24,50.34h16c1,0,1.91-.08,2.86-.14a38.72,38.72,0,0,0,35.91-38.62V999.57a22.42,22.42,0,0,1-3.17.23c-6.91,0-12.67-3.08-14.26-7.22"></path> <path class="cls-11" d="M1567.52,1056.65H1550l.4-1.48a41.31,41.31,0,0,0-23.3-49l-3.36-1.48,65.86-13.49.35.93c1.44,3.75,7,6.47,13.17,6.47a21.14,21.14,0,0,0,3-.22l1.33-.19v18.49a39.89,39.89,0,0,1-37,39.79l-.24,0c-.87.06-1.78.13-2.7.13m-14.5-2.34h14.5c.84,0,1.66-.06,2.53-.12l.24,0a37.55,37.55,0,0,0,34.82-37.45v-15.84c-.68.06-1.35.09-2,.09-6.76,0-12.71-2.86-14.94-7.05l-57,11.67a43.61,43.61,0,0,1,21.87,48.72"></path> <path class="cls-10" d="M1390.91,990.35h-16.13a1.12,1.12,0,0,0-1.12,1.12v2.21a1.12,1.12,0,0,0,1.12,1.12h16.13a1.12,1.12,0,0,0,1.12-1.12v-2.21a1.12,1.12,0,0,0-1.12-1.12"></path> <path class="cls-10" d="M1467.86,990.35h-16.13a1.12,1.12,0,0,0-1.12,1.12v2.21a1.12,1.12,0,0,0,1.12,1.12h16.13a1.12,1.12,0,0,0,1.12-1.12v-2.21a1.12,1.12,0,0,0-1.12-1.12"></path> <rect class="cls-10" x="1399.55" y="922.3" width="2.34" height="131.56"></rect> <rect class="cls-10" x="1298.32" y="982.85" width="2.34" height="65.6"></rect> <rect class="cls-10" x="1475.19" y="930.45" width="2.34" height="86.8"></rect> <rect class="cls-10" x="1157.19" y="1030.23" width="42.08" height="2.34"></rect> <rect class="cls-10" x="1283" y="1046.68" width="51.53" height="2.34"></rect> <rect class="cls-11" x="1326.94" y="1046.68" width="140.91" height="2.34"></rect> <path class="cls-11" d="M1552.83,1032.58h-1.4l.07-2.34c.3,0,30.8.74,54.28-10.45l1,2.11c-21.09,10.06-47.62,10.69-54,10.69"></path> <path class="cls-11" d="M1299.34,968.26c-6.74.87-11.82,4.7-11.82,9.3a7.1,7.1,0,0,0,2,4.79l15.14-2.75a29.06,29.06,0,0,0-5.34-11.34"></path> <path class="cls-10" d="M1289.11,983.62l-.44-.48a8.28,8.28,0,0,1-2.33-5.58c0-5.1,5.4-9.5,12.85-10.47l.66-.09.41.53a30.06,30.06,0,0,1,5.56,11.79l.27,1.19Zm9.71-14.1c-5.92,1-10.14,4.28-10.14,8a5.66,5.66,0,0,0,1.31,3.52l13.25-2.41a27.72,27.72,0,0,0-4.42-9.16"></path> <path class="cls-10" d="M1289.54,982.35c2.56,2.81,7.29,4.7,12.71,4.7a22.77,22.77,0,0,0,3.18-.23V986a28.84,28.84,0,0,0-.74-6.42Z"></path> <path class="cls-10" d="M1302.25,988.22c-5.6,0-10.67-1.9-13.57-5.08l-1.42-1.56,18.32-3.33.25,1.09a30.18,30.18,0,0,1,.77,6.68v1.82l-1,.14a23.78,23.78,0,0,1-3.34.24m-10.1-5.16a18.13,18.13,0,0,0,10.1,2.82c.66,0,1.32,0,2-.1a27.76,27.76,0,0,0-.48-4.83Z"></path> <path class="cls-6" d="M1495.17,937.86s14.74,13.7,22.19,19.84,17.23,13.56,24.34,13.56,8.22-2.82,8.22-2.82-15.37-11.1-25.2-16.76a205.35,205.35,0,0,0-29.54-13.83"></path> <path class="cls-10" d="M1541.69,972.43c-7.31,0-16.78-7-25.08-13.83-7.39-6.09-24.64-21.89-24.81-22.05l1.58-1.72c.17.16,17.38,15.92,24.72,22,7.51,6.19,17,13.3,23.59,13.3,6.21,0,7.9-2.48,7.92-2.51l2,1.21c-.22.37-2.36,3.63-9.92,3.63"></path> <path class="cls-9" d="M1277.09,1044.19a36.51,36.51,0,1,1-36.51-36.51,36.51,36.51,0,0,1,36.51,36.51"></path> <path class="cls-12" d="M1264.29,1044.19a23.71,23.71,0,1,1-23.71-23.71,23.71,23.71,0,0,1,23.71,23.71"></path> <path class="cls-9" d="M1261,1044.19a20.41,20.41,0,1,1-20.41-20.41,20.41,20.41,0,0,1,20.41,20.41"></path> <path class="cls-4" d="M1255,1044.19a14.41,14.41,0,1,1-14.41-14.41,14.41,14.41,0,0,1,14.41,14.41"></path> <path class="cls-12" d="M1242.12,1035.53a1.57,1.57,0,1,1-1.57-1.57,1.57,1.57,0,0,1,1.57,1.57"></path> <path class="cls-12" d="M1243.76,1044.19a3.21,3.21,0,1,1-3.21-3.21,3.21,3.21,0,0,1,3.21,3.21"></path> <path class="cls-12" d="M1250.45,1042.14a1.57,1.57,0,1,1-1.57-1.57,1.57,1.57,0,0,1,1.57,1.57"></path> <path class="cls-12" d="M1233.85,1042.14a1.57,1.57,0,1,1-1.57-1.57,1.57,1.57,0,0,1,1.57,1.57"></path> <path class="cls-12" d="M1236.62,1051.82a1.57,1.57,0,1,1-1.57-1.57,1.57,1.57,0,0,1,1.57,1.57"></path> <path class="cls-12" d="M1246.9,1051.82a1.57,1.57,0,1,1-1.57-1.57,1.57,1.57,0,0,1,1.57,1.57"></path> <path class="cls-9" d="M1223.61,1073.58l-1.29,2.23q1.38.8,2.82,1.48l1.09-2.34c-.9-.42-1.77-.88-2.62-1.37"></path> <path class="cls-13" d="M1225.43,1078.06l-.53-.25c-1-.45-1.93-1-2.87-1.5l-.51-.29,1.87-3.24.51.29c.85.49,1.71.94,2.58,1.35l.53.25Zm-2.3-2.47c.58.32,1.16.63,1.74.91l.6-1.28c-.55-.27-1.09-.55-1.63-.86Z"></path> <path class="cls-9" d="M1218.77,1070.19l-1.66,2q1.22,1,2.53,1.94l1.48-2.11q-1.21-.85-2.35-1.8"></path> <path class="cls-13" d="M1219.78,1074.91l-.48-.34c-.88-.62-1.75-1.28-2.57-2l-.45-.38,2.41-2.87.45.37c.73.61,1.51,1.21,2.31,1.77l.48.34Zm-1.84-2.83c.51.41,1,.81,1.56,1.2l.81-1.15c-.5-.36-1-.74-1.46-1.12Z"></path> <path class="cls-9" d="M1221.12,1072l-1.48,2.11q1.3.92,2.69,1.71l1.29-2.23q-1.28-.75-2.49-1.59"></path> <path class="cls-13" d="M1222.54,1076.61l-.51-.29c-.94-.54-1.86-1.13-2.73-1.74l-.48-.34,2.15-3.07.48.34c.79.55,1.61,1.08,2.45,1.57l.51.29Zm-2.08-2.66c.54.37,1.09.72,1.66,1.06l.7-1.22c-.53-.32-1-.65-1.55-1Z"></path> <path class="cls-9" d="M1226.24,1074.95l-1.09,2.34c1,.45,1.94.86,2.94,1.23l.88-2.42c-.93-.34-1.84-.72-2.73-1.14"></path> <path class="cls-13" d="M1228.44,1079.26l-.55-.2c-1-.35-1.95-.76-3-1.25l-.53-.25,1.58-3.39.53.25c.94.44,1.81.8,2.69,1.12l.55.2Zm-2.51-2.26c.62.28,1.22.53,1.81.76l.48-1.32c-.56-.21-1.12-.45-1.7-.71Z"></path> <path class="cls-9" d="M1237.62,1078l-.22,2.57c1,.09,2.11.14,3.18.14v-2.57c-1,0-2-.05-3-.14"></path> <path class="cls-13" d="M1241.16,1081.29h-.58c-1,0-2.07,0-3.23-.15l-.58,0,.33-3.73.58,0c1.05.09,2,.13,2.91.13h.58ZM1238,1080c.69,0,1.34.08,2,.09v-1.41c-.59,0-1.2,0-1.84-.09Z"></path> <path class="cls-9" d="M1229,1076.09l-.88,2.42q1.49.54,3,1l.67-2.49q-1.44-.38-2.83-.89"></path> <path class="cls-13" d="M1231.54,1080.18l-.57-.15c-1.06-.28-2.1-.61-3.09-1l-.55-.2,1.28-3.52.55.2c.88.32,1.81.61,2.78.87l.57.15Zm-2.7-2c.61.21,1.24.41,1.88.59l.36-1.36c-.6-.17-1.19-.35-1.76-.55Z"></path> <path class="cls-9" d="M1234.69,1077.61l-.45,2.54c1,.18,2.09.32,3.16.41l.23-2.57q-1.49-.13-2.94-.38"></path> <path class="cls-13" d="M1237.93,1081.19l-.58,0c-1.06-.09-2.14-.23-3.21-.42l-.58-.1.65-3.69.57.1c1,.17,1.92.29,2.89.38l.58,0Zm-3-1.52c.65.1,1.3.19,1.95.25l.12-1.4c-.61-.06-1.22-.14-1.83-.24Z"></path> <path class="cls-9" d="M1214.59,1066l-2,1.66c.68.81,1.4,1.6,2.15,2.35l1.82-1.82q-1-1-2-2.19"></path> <path class="cls-13" d="M1214.76,1070.84l-.41-.41c-.72-.72-1.46-1.53-2.18-2.39l-.38-.45,2.87-2.41.38.45c.65.77,1.31,1.5,2,2.15l.41.41Zm-1.32-3.11q.66.76,1.32,1.45l1-1q-.62-.65-1.24-1.36Z"></path> <path class="cls-9" d="M1207.8,1053l-2.49.67c.28,1,.59,2,1,3l2.42-.88c-.34-.92-.63-1.87-.89-2.83"></path> <path class="cls-13" d="M1205.91,1057.43l-.2-.55c-.35-1-.68-2-1-3.09l-.15-.56,3.62-1,.15.57c.26,1,.55,1.9.87,2.78l.2.55Zm.12-3.38c.18.65.38,1.28.59,1.88l1.32-.48c-.2-.57-.38-1.16-.55-1.76Z"></path> <path class="cls-9" d="M1207.16,1050.09l-2.54.45c.18,1.05.41,2.09.68,3.11l2.49-.67q-.38-1.42-.63-2.89"></path> <path class="cls-13" d="M1204.9,1054.36l-.15-.56c-.27-1-.5-2.06-.69-3.16l-.1-.58,3.69-.65.1.58c.17,1,.38,1.93.62,2.84l.15.56Zm.41-3.35c.13.66.27,1.3.42,1.92l1.36-.37c-.15-.59-.28-1.19-.39-1.8Z"></path> <path class="cls-9" d="M1206.78,1047.15l-2.57.22q.14,1.6.41,3.16l2.54-.45q-.25-1.45-.38-2.94"></path> <path class="cls-13" d="M1204.15,1051.21l-.1-.58c-.19-1.06-.33-2.14-.42-3.21l-.05-.58,3.73-.33.05.58c.08,1,.21,1.93.38,2.88l.1.58Zm.7-3.31c.07.65.15,1.3.26,1.95l1.38-.24c-.1-.61-.18-1.22-.24-1.83Z"></path> <path class="cls-9" d="M1240.58,1078.13v2.58c1.07,0,2.13-.06,3.18-.15l-.23-2.57c-1,.09-2,.14-3,.14"></path> <path class="cls-13" d="M1240.58,1081.29H1240v-3.75h.58c.92,0,1.87,0,2.91-.13l.58-.05.33,3.73-.58.05c-1.15.1-2.21.15-3.23.15m.58-2.58v1.41c.63,0,1.28,0,2-.09l-.12-1.4c-.64,0-1.25.08-1.84.09"></path> <path class="cls-9" d="M1216.58,1068.19l-1.82,1.82c.75.75,1.54,1.46,2.35,2.15l1.66-2c-.76-.63-1.49-1.3-2.19-2"></path> <path class="cls-13" d="M1217.18,1073l-.45-.38c-.85-.72-1.66-1.45-2.39-2.18l-.41-.41,2.65-2.65.41.41c.66.66,1.38,1.32,2.15,2l.45.37Zm-1.59-3c.46.45.95.89,1.45,1.32l.91-1.08c-.48-.41-.93-.83-1.36-1.24Z"></path> <path class="cls-9" d="M1212.79,1063.65l-2.11,1.48q.91,1.31,1.94,2.53l2-1.66q-1-1.13-1.8-2.35"></path> <path class="cls-13" d="M1212.54,1068.48l-.37-.45c-.68-.8-1.34-1.67-2-2.57l-.34-.48,3.07-2.15.34.48c.57.81,1.16,1.59,1.77,2.31l.38.45Zm-1-3.21c.39.54.79,1.06,1.2,1.56l1.08-.9q-.57-.71-1.12-1.46Z"></path> <path class="cls-9" d="M1211.19,1061.16l-2.23,1.29q.8,1.38,1.71,2.69l2.11-1.48q-.85-1.21-1.59-2.49"></path> <path class="cls-13" d="M1210.53,1065.95l-.34-.48c-.61-.88-1.2-1.79-1.74-2.73l-.29-.51,3.24-1.87.29.51c.49.84,1,1.67,1.57,2.45l.34.48Zm-.77-3.29c.34.56.69,1.12,1.06,1.66l1.15-.81c-.34-.51-.67-1-1-1.55Z"></path> <path class="cls-9" d="M1209.82,1058.54l-2.34,1.09c.45,1,.94,1.91,1.48,2.82l2.23-1.29q-.74-1.28-1.37-2.62"></path> <path class="cls-13" d="M1208.75,1063.25l-.29-.51c-.55-1-1.06-1.92-1.5-2.87l-.25-.53,3.4-1.58.25.53c.4.86.86,1.73,1.35,2.58l.29.51Zm-.48-3.34c.28.58.59,1.16.91,1.74l1.22-.7c-.3-.54-.58-1.09-.85-1.63Z"></path> <path class="cls-9" d="M1208.68,1055.8l-2.42.88c.37,1,.78,2,1.23,2.94l2.34-1.09c-.42-.89-.8-1.8-1.14-2.73"></path> <path class="cls-13" d="M1207.2,1060.4l-.25-.53c-.48-1-.89-2-1.25-3l-.2-.55,3.52-1.28.2.55c.32.87.68,1.75,1.12,2.69l.25.53ZM1207,1057c.23.59.48,1.19.76,1.81l1.28-.59c-.26-.58-.5-1.14-.71-1.7Z"></path> <path class="cls-9" d="M1231.79,1077l-.67,2.49q1.53.41,3.11.68l.45-2.54c-1-.17-1.94-.38-2.89-.63"></path> <path class="cls-13" d="M1234.71,1080.82l-.58-.1c-1.1-.19-2.16-.43-3.16-.69l-.57-.15,1-3.62.57.15c.91.24,1.86.45,2.84.62l.58.1Zm-2.87-1.78c.62.15,1.26.29,1.92.42l.24-1.38q-.92-.18-1.8-.39Z"></path> <path class="cls-9" d="M1272.47,1055.8l2.42.88c.36-1,.68-2,1-3l-2.49-.67q-.38,1.44-.89,2.83"></path> <path class="cls-13" d="M1275.25,1057.43l-3.52-1.28.2-.55c.32-.88.61-1.81.87-2.78l.15-.57,3.62,1-.15.57c-.29,1.08-.62,2.12-1,3.09Zm-2-2,1.32.48c.21-.6.4-1.23.59-1.88l-1.36-.37c-.17.6-.35,1.19-.55,1.76"></path> <path class="cls-9" d="M1271.33,1058.54l2.34,1.09c.45-1,.86-1.94,1.23-2.94l-2.42-.88c-.34.93-.72,1.84-1.14,2.73"></path> <path class="cls-13" d="M1274,1060.4l-3.4-1.58.25-.53c.43-.93.8-1.81,1.12-2.68l.2-.55,3.52,1.28-.2.55c-.35,1-.76,2-1.24,3Zm-1.84-2.15,1.28.59c.28-.62.53-1.22.76-1.81l-1.32-.48c-.22.56-.45,1.12-.71,1.7"></path> <path class="cls-9" d="M1270,1061.16l2.23,1.29q.8-1.38,1.48-2.82l-2.34-1.09c-.42.9-.88,1.77-1.37,2.62"></path> <path class="cls-13" d="M1272.41,1063.25l-3.24-1.87.29-.51c.49-.85.94-1.71,1.35-2.58l.25-.53,3.4,1.58-.25.53c-.45,1-1,1.92-1.5,2.87Zm-1.65-2.3,1.22.7c.32-.58.63-1.16.91-1.74l-1.28-.6c-.27.55-.55,1.09-.85,1.63"></path> <path class="cls-9" d="M1268.37,1063.65l2.11,1.48q.92-1.3,1.71-2.69l-2.23-1.29q-.75,1.28-1.59,2.49"></path> <path class="cls-13" d="M1270.62,1065.95l-3.07-2.15.34-.48c.55-.79,1.08-1.61,1.57-2.45l.29-.51,3.24,1.87-.29.51c-.54.94-1.13,1.85-1.74,2.73Zm-1.44-2.44,1.15.81c.37-.54.72-1.09,1.06-1.66l-1.22-.7c-.32.52-.65,1-1,1.55"></path> <path class="cls-9" d="M1273.36,1053l2.49.67c.27-1,.5-2.06.68-3.11l-2.54-.45q-.26,1.47-.63,2.89"></path> <path class="cls-13" d="M1276.26,1054.36l-3.62-1,.15-.56c.24-.91.45-1.87.62-2.84l.1-.58,3.69.65-.1.57c-.19,1.11-.43,2.17-.69,3.16Zm-2.19-1.8,1.36.36c.15-.62.29-1.26.42-1.92l-1.39-.25c-.12.61-.25,1.21-.39,1.8"></path> <path class="cls-9" d="M1206.64,1044.19h-2.58c0,1.07.06,2.13.15,3.18l2.57-.23c-.09-1-.14-2-.14-3"></path> <path class="cls-13" d="M1203.68,1048l-.05-.58c-.1-1.15-.15-2.2-.15-3.23v-.58h3.74v.58c0,.9,0,1.85.14,2.91l0,.58Zm1-3.23c0,.63,0,1.28.09,2l1.4-.12c0-.65-.08-1.25-.09-1.84Z"></path> <path class="cls-9" d="M1266.57,1066l2,1.66c.68-.81,1.33-1.66,1.94-2.53l-2.11-1.48q-.85,1.21-1.8,2.35"></path> <path class="cls-13" d="M1268.62,1068.48l-2.87-2.41.38-.45c.61-.73,1.2-1.5,1.77-2.31l.34-.48,3.07,2.15-.34.48c-.63.9-1.29,1.77-2,2.57Zm-1.23-2.55,1.08.91q.61-.75,1.2-1.56l-1.15-.81c-.36.5-.74,1-1.12,1.46"></path> <path class="cls-9" d="M1274.38,1047.15q-.13,1.49-.38,2.94l2.54.45q.27-1.56.41-3.16Z"></path> <path class="cls-13" d="M1277,1051.21l-3.69-.65.1-.57c.17-1,.29-1.93.38-2.88l0-.58,3.73.32,0,.58c-.09,1.06-.23,2.14-.42,3.21Zm-2.34-1.6,1.38.25c.1-.65.19-1.3.26-2l-1.4-.12c-.06.61-.14,1.22-.24,1.83"></path> <path class="cls-9" d="M1262.39,1070.19l1.66,2c.81-.68,1.6-1.4,2.35-2.15l-1.82-1.82q-1,1-2.19,2"></path> <path class="cls-13" d="M1264,1073l-2.41-2.87.45-.38c.76-.64,1.48-1.3,2.15-2l.41-.41,2.65,2.65-.41.41c-.73.73-1.51,1.45-2.39,2.18Zm-.76-2.73.91,1.08c.51-.45,1-.88,1.45-1.32l-1-1c-.43.42-.89.83-1.36,1.24"></path> <path class="cls-9" d="M1249.36,1077l.67,2.49c1-.28,2-.59,3-1l-.88-2.42c-.92.34-1.87.63-2.83.89"></path> <path class="cls-13" d="M1249.61,1080.18l-1-3.62.56-.15c1-.26,1.91-.55,2.78-.87l.55-.2,1.28,3.52-.55.2c-1,.35-2,.68-3.09,1Zm.46-2.8.36,1.36c.65-.18,1.28-.38,1.88-.59l-.48-1.32c-.57.19-1.15.38-1.76.55"></path> <path class="cls-9" d="M1252.19,1076.09l.88,2.42q1.5-.55,2.94-1.23l-1.09-2.34c-.89.42-1.8.8-2.73,1.14"></path> <path class="cls-13" d="M1252.72,1079.26l-1.28-3.52.55-.2c.87-.32,1.75-.68,2.68-1.12l.53-.25,1.58,3.39-.53.25c-1,.48-2,.89-3,1.25Zm.22-2.83.48,1.32c.6-.23,1.2-.48,1.81-.76l-.6-1.28c-.58.26-1.14.49-1.7.71"></path> <path class="cls-9" d="M1246.47,1077.61l.45,2.54c1.05-.18,2.09-.41,3.11-.68l-.67-2.49c-.95.25-1.91.46-2.89.63"></path> <path class="cls-13" d="M1246.44,1080.82l-.65-3.69.58-.1c1-.17,1.94-.38,2.84-.62l.57-.15,1,3.62-.57.15c-1,.27-2.06.5-3.16.69Zm.7-2.74.25,1.39c.66-.13,1.3-.27,1.92-.42l-.37-1.36c-.58.14-1.19.28-1.8.39"></path> <path class="cls-9" d="M1264.57,1068.19l1.82,1.82c.75-.75,1.46-1.54,2.15-2.35l-2-1.66c-.63.76-1.3,1.49-2,2.19"></path> <path class="cls-13" d="M1266.4,1070.84l-2.65-2.65.41-.41c.65-.65,1.31-1.38,2-2.15l.38-.45,2.87,2.41-.38.45c-.72.86-1.45,1.66-2.18,2.39Zm-1-2.65,1,1c.44-.46.89-.95,1.32-1.45l-1.08-.91c-.41.48-.83.93-1.24,1.36"></path> <path class="cls-9" d="M1254.92,1074.95l1.09,2.34c1-.45,1.91-.94,2.82-1.48l-1.29-2.23q-1.28.74-2.62,1.37"></path> <path class="cls-13" d="M1255.73,1078.06l-1.58-3.4.53-.25c.85-.4,1.72-.85,2.58-1.35l.51-.29,1.87,3.24-.51.29c-1,.55-1.92,1.06-2.87,1.5Zm0-2.83.6,1.28c.58-.28,1.16-.59,1.74-.91l-.71-1.22c-.54.3-1.09.59-1.63.85"></path> <path class="cls-9" d="M1243.54,1078l.22,2.57q1.6-.14,3.16-.41l-.45-2.54q-1.45.25-2.94.38"></path> <path class="cls-13" d="M1243.23,1081.19l-.33-3.73.58,0c1-.08,1.92-.21,2.88-.38l.58-.1.65,3.69-.58.1c-1.06.18-2.14.33-3.21.42Zm.94-2.67.12,1.4c.65-.07,1.3-.15,1.95-.26l-.25-1.38c-.61.1-1.22.18-1.83.24"></path> <path class="cls-9" d="M1257.54,1073.58l1.29,2.23q1.38-.8,2.69-1.71L1260,1072q-1.21.85-2.49,1.59"></path> <path class="cls-13" d="M1258.62,1076.61l-1.87-3.24.51-.29c.84-.49,1.66-1,2.45-1.57l.48-.34,2.15,3.07-.48.34c-.88.61-1.79,1.2-2.73,1.74Zm-.28-2.82.7,1.22c.56-.34,1.12-.69,1.66-1.06l-.81-1.15c-.51.34-1,.67-1.55,1"></path> <path class="cls-9" d="M1260,1072l1.48,2.11q1.31-.92,2.53-1.94l-1.66-2q-1.13.95-2.35,1.8"></path> <path class="cls-13" d="M1261.37,1074.91l-2.15-3.07.48-.34c.8-.56,1.58-1.15,2.31-1.77l.45-.38,2.41,2.87-.45.38c-.8.67-1.66,1.33-2.57,2Zm-.52-2.78.81,1.15q.81-.59,1.56-1.2l-.91-1.08q-.71.57-1.46,1.12"></path> <path class="cls-9" d="M1252.19,1012.3l.88-2.42q-1.49-.54-3-1l-.67,2.49q1.44.38,2.83.89"></path> <path class="cls-13" d="M1252.54,1013l-.55-.2c-.89-.32-1.82-.62-2.78-.87l-.57-.15,1-3.62.56.15c1.06.28,2.1.61,3.09,1l.55.2Zm-2.46-2c.6.17,1.19.35,1.76.55l.48-1.32c-.61-.21-1.24-.41-1.88-.59Z"></path> <path class="cls-9" d="M1260,1016.4l1.48-2.11q-1.3-.92-2.69-1.71l-1.29,2.23q1.28.75,2.49,1.59"></path> <path class="cls-13" d="M1260.18,1017.22l-.48-.34c-.78-.55-1.61-1.08-2.45-1.57l-.5-.29,1.87-3.24.51.29c.94.54,1.85,1.13,2.73,1.74l.48.34Zm-1.84-2.62c.53.32,1,.65,1.55,1l.81-1.15c-.54-.37-1.09-.72-1.66-1.06Z"></path> <path class="cls-9" d="M1262.39,1018.2l1.66-2c-.81-.68-1.66-1.33-2.53-1.94l-1.48,2.11q1.21.85,2.35,1.8"></path> <path class="cls-13" d="M1262.46,1019l-.45-.38c-.72-.61-1.5-1.2-2.31-1.77l-.48-.34,2.15-3.07.48.34c.9.63,1.77,1.29,2.57,2l.45.38Zm-1.61-2.76c.5.36,1,.74,1.46,1.12l.91-1.08q-.75-.61-1.56-1.2Z"></path> <path class="cls-9" d="M1264.57,1020.2l1.82-1.82c-.75-.75-1.54-1.46-2.35-2.15l-1.66,2c.76.63,1.49,1.3,2.19,2"></path> <path class="cls-13" d="M1264.57,1021l-.41-.41c-.66-.66-1.36-1.3-2.15-2l-.45-.38,2.41-2.87.45.38c.85.71,1.66,1.45,2.39,2.18l.41.41Zm-1.37-2.89c.48.41.93.83,1.36,1.24l1-1c-.46-.45-.95-.89-1.45-1.33Z"></path> <path class="cls-9" d="M1266.57,1022.38l2-1.66c-.68-.81-1.4-1.6-2.15-2.35l-1.82,1.82q1,1,2,2.19"></path> <path class="cls-13" d="M1266.5,1023.21l-.38-.45c-.65-.77-1.31-1.5-2-2.15l-.41-.41,2.65-2.65.41.41c.73.73,1.46,1.53,2.18,2.39l.38.45Zm-1.1-3c.41.43.83.89,1.24,1.36l1.08-.9q-.66-.76-1.32-1.45Z"></path> <path class="cls-9" d="M1249.36,1011.41l.67-2.49q-1.53-.41-3.11-.68l-.45,2.54c1,.17,1.94.38,2.89.63"></path> <path class="cls-13" d="M1249.78,1012.13l-.57-.15c-.91-.24-1.86-.45-2.84-.62l-.58-.1.65-3.69.58.1c1.1.19,2.16.43,3.16.69l.57.15Zm-2.63-1.82c.61.12,1.21.25,1.8.39l.36-1.36q-.93-.23-1.92-.42Z"></path> <path class="cls-9" d="M1246.47,1010.78l.45-2.54c-1-.18-2.09-.32-3.16-.41l-.23,2.57q1.49.13,2.94.38"></path> <path class="cls-13" d="M1246.94,1011.46l-.58-.1c-1-.17-1.93-.3-2.88-.38l-.58,0,.33-3.73.58,0c1.06.09,2.14.23,3.21.42l.58.1Zm-2.78-1.59c.61.06,1.22.14,1.83.24l.25-1.38c-.65-.1-1.3-.19-1.95-.26Z"></path> <path class="cls-9" d="M1268.37,1024.73l2.11-1.48q-.92-1.31-1.94-2.53l-2,1.66q1,1.13,1.8,2.35"></path> <path class="cls-13" d="M1268.23,1025.55l-.34-.48c-.57-.81-1.16-1.58-1.77-2.31l-.38-.45,2.87-2.41.38.45c.67.8,1.33,1.66,2,2.57l.34.48Zm-.84-3.09c.38.47.76,1,1.12,1.46l1.15-.81c-.39-.54-.79-1.06-1.2-1.56Z"></path> <path class="cls-9" d="M1257.54,1014.81l1.29-2.23q-1.38-.8-2.82-1.48l-1.09,2.34c.9.42,1.77.88,2.62,1.37"></path> <path class="cls-13" d="M1257.76,1015.61l-.51-.29c-.85-.49-1.71-.94-2.58-1.35l-.53-.25,1.58-3.39.53.25c1,.45,1.92,1,2.87,1.5l.51.29Zm-2.06-2.45c.55.27,1.09.55,1.63.85l.7-1.22c-.57-.32-1.16-.63-1.74-.91Z"></path> <path class="cls-9" d="M1254.92,1013.44l1.09-2.34c-1-.45-1.94-.86-2.94-1.23l-.88,2.42c.93.34,1.84.72,2.73,1.14"></path> <path class="cls-13" d="M1255.2,1014.21l-.53-.25c-.93-.43-1.81-.8-2.68-1.12l-.55-.2,1.28-3.52.55.2c1,.35,1.95.76,3,1.25l.53.25Zm-2.27-2.26c.56.22,1.12.45,1.7.71l.6-1.28c-.62-.28-1.22-.53-1.81-.76Z"></path> <path class="cls-9" d="M1272.47,1032.58l2.42-.88c-.37-1-.78-2-1.23-2.94l-2.34,1.09c.42.89.8,1.8,1.14,2.73"></path> <path class="cls-13" d="M1272.12,1033.33l-.2-.55c-.32-.88-.7-1.78-1.12-2.69l-.25-.53,3.4-1.58.25.53c.48,1,.89,2,1.24,3l.2.55Zm0-3.2c.26.57.49,1.14.71,1.7l1.32-.48c-.23-.59-.48-1.19-.76-1.81Z"></path> <path class="cls-9" d="M1274.38,1041.24l2.57-.22q-.14-1.6-.41-3.16l-2.54.45q.25,1.45.38,2.94"></path> <path class="cls-13" d="M1273.84,1041.87l0-.58c-.08-1-.21-1.92-.38-2.88l-.1-.57,3.69-.65.1.58c.19,1.06.33,2.14.42,3.21l0,.58Zm.82-3.09c.1.61.18,1.22.24,1.83l1.4-.12c-.07-.65-.15-1.3-.26-2Z"></path> <path class="cls-9" d="M1270,1027.23l2.23-1.29q-.8-1.38-1.71-2.69l-2.11,1.48q.85,1.21,1.59,2.49"></path> <path class="cls-13" d="M1269.75,1028l-.29-.51c-.49-.84-1-1.66-1.56-2.45l-.34-.48,3.07-2.15.34.48c.61.88,1.2,1.8,1.74,2.73l.29.51Zm-.57-3.15q.51.76,1,1.55l1.22-.7c-.34-.56-.69-1.12-1.06-1.66Z"></path> <path class="cls-9" d="M1274.38,1047.15l2.57.22c.09-1,.15-2.11.15-3.18h-2.58c0,1-.05,2-.14,3"></path> <path class="cls-13" d="M1277.48,1048l-3.73-.32.05-.58c.09-1,.13-2,.13-2.91v-.58h3.75v.58c0,1,0,2.07-.15,3.23Zm-2.47-1.39,1.4.12c0-.69.08-1.34.09-2h-1.41c0,.59,0,1.2-.09,1.84"></path> <path class="cls-9" d="M1274,1038.3l2.54-.45c-.18-1.05-.41-2.09-.68-3.11l-2.49.67q.38,1.42.63,2.89"></path> <path class="cls-13" d="M1273.52,1039l-.1-.58c-.17-1-.38-1.93-.62-2.84l-.15-.56,3.62-1,.15.57c.27,1,.5,2.06.69,3.16l.1.57Zm.55-3.15c.15.59.28,1.19.39,1.8l1.39-.24q-.19-1-.42-1.92Z"></path> <path class="cls-9" d="M1274.51,1044.19h2.58c0-1.07-.06-2.13-.15-3.18l-2.57.23c.08,1,.14,2,.14,3"></path> <path class="cls-13" d="M1277.67,1044.78h-3.75v-.58c0-.91,0-1.87-.13-2.91l0-.58,3.73-.33,0,.58c.1,1.16.15,2.22.15,3.23Zm-2.58-1.17h1.41c0-.63,0-1.28-.09-2l-1.4.12c0,.64.08,1.25.09,1.84"></path> <path class="cls-9" d="M1271.33,1029.85l2.34-1.09c-.45-1-.94-1.91-1.48-2.82l-2.23,1.29q.74,1.28,1.37,2.62"></path> <path class="cls-13" d="M1271.05,1030.63l-.25-.53c-.41-.87-.86-1.74-1.35-2.58l-.29-.51,3.24-1.87.29.51c.55,1,1.06,1.92,1.5,2.87l.25.53Zm-.29-3.18c.3.54.58,1.08.85,1.63l1.28-.6c-.28-.58-.59-1.16-.91-1.74Z"></path> <path class="cls-9" d="M1206.78,1041.24l-2.57-.22c-.09,1-.15,2.11-.15,3.18h2.58c0-1,.05-2,.14-3"></path> <path class="cls-13" d="M1207.23,1044.78h-3.74v-.58c0-1,0-2.07.15-3.23l0-.58,3.73.33,0,.58c-.09,1-.14,2-.14,2.91Zm-2.57-1.17h1.41c0-.59,0-1.2.09-1.84l-1.4-.12c0,.69-.08,1.34-.09,2"></path> <path class="cls-9" d="M1243.54,1010.39l.22-2.57c-1-.09-2.11-.15-3.18-.15v2.58c1,0,2,.05,3,.14"></path> <path class="cls-13" d="M1244.07,1011l-.58,0c-1-.09-2-.14-2.91-.14H1240v-3.74h.58c1,0,2.07,0,3.23.15l.58,0Zm-2.91-1.35c.59,0,1.2,0,1.84.09l.12-1.4c-.69,0-1.34-.08-2-.09Z"></path> <path class="cls-9" d="M1273.36,1035.41l2.49-.67c-.28-1-.59-2-1-3l-2.42.88c.34.92.63,1.87.89,2.83"></path> <path class="cls-13" d="M1272.94,1036.13l-.15-.57c-.26-1-.55-1.89-.87-2.78l-.2-.55,3.52-1.28.2.55c.35,1,.68,2,1,3.09l.15.56Zm.27-3.19c.2.57.38,1.16.55,1.76l1.36-.36c-.18-.65-.38-1.27-.59-1.88Z"></path> <path class="cls-9" d="M1216.58,1020.2l-1.82-1.82c-.75.75-1.46,1.54-2.15,2.35l2,1.66c.63-.76,1.3-1.49,2-2.19"></path> <path class="cls-13" d="M1214.66,1023.21l-2.87-2.41.38-.45c.72-.85,1.45-1.66,2.18-2.39l.41-.41,2.65,2.65-.41.41c-.65.65-1.31,1.38-2,2.15Zm-1.22-2.55,1.08.91c.41-.48.83-.93,1.24-1.36l-1-1q-.66.69-1.32,1.45"></path> <path class="cls-9" d="M1212.79,1024.73l-2.11-1.48q-.92,1.3-1.71,2.68l2.23,1.29q.75-1.28,1.59-2.49"></path> <path class="cls-13" d="M1211.41,1028l-3.24-1.87.29-.51c.54-.94,1.13-1.86,1.74-2.73l.34-.48,3.07,2.15-.34.48c-.55.78-1.08,1.61-1.57,2.45Zm-1.64-2.3,1.22.7c.32-.53.65-1,1-1.55l-1.15-.81c-.37.54-.72,1.09-1.06,1.66"></path> <path class="cls-9" d="M1209.82,1029.85l-2.34-1.09c-.45,1-.86,1.94-1.23,2.94l2.42.88c.34-.93.72-1.84,1.14-2.73"></path> <path class="cls-13" d="M1209,1033.33l-3.52-1.28.2-.55c.35-1,.76-1.95,1.25-3l.25-.53,3.4,1.58-.25.53c-.43.93-.8,1.81-1.12,2.69Zm-2-2,1.32.48c.22-.56.45-1.12.71-1.7l-1.28-.59c-.28.62-.53,1.22-.76,1.81"></path> <path class="cls-9" d="M1214.59,1022.38l-2-1.66c-.68.81-1.33,1.66-1.94,2.53l2.11,1.48q.85-1.21,1.8-2.35"></path> <path class="cls-13" d="M1212.93,1025.55l-3.07-2.15.34-.48c.63-.9,1.29-1.76,2-2.57l.38-.45,2.87,2.41-.38.45c-.6.72-1.2,1.49-1.77,2.31Zm-1.43-2.43,1.15.81q.55-.76,1.12-1.46l-1.08-.9c-.41.5-.81,1-1.2,1.56"></path> <path class="cls-9" d="M1211.19,1027.23l-2.23-1.29q-.8,1.38-1.48,2.82l2.34,1.09c.42-.9.88-1.77,1.37-2.62"></path> <path class="cls-13" d="M1210.1,1030.63l-3.4-1.58.25-.53c.45-1,1-1.92,1.5-2.87l.29-.51L1212,1027l-.29.51c-.49.85-.94,1.72-1.35,2.58Zm-1.84-2.15,1.28.59c.27-.55.55-1.09.85-1.63l-1.22-.7c-.32.58-.63,1.16-.91,1.74"></path> <path class="cls-9" d="M1207.16,1038.3l-2.54-.45q-.27,1.56-.41,3.16l2.57.23q.13-1.49.38-2.94"></path> <path class="cls-13" d="M1207.31,1041.87l-3.73-.33.05-.58c.09-1.07.23-2.15.42-3.21l.1-.57,3.69.65-.1.58c-.17,1-.29,1.92-.38,2.88Zm-2.46-1.39,1.4.12c.06-.61.14-1.22.24-1.83l-1.39-.24c-.1.65-.19,1.3-.25,1.95"></path> <path class="cls-9" d="M1207.8,1035.41l-2.49-.67c-.27,1-.5,2.06-.68,3.11l2.54.45q.26-1.47.63-2.89"></path> <path class="cls-13" d="M1207.64,1039l-3.69-.65.1-.58c.19-1.1.43-2.17.69-3.16l.15-.57,3.61,1-.15.56c-.25.92-.46,1.88-.62,2.84Zm-2.33-1.6,1.38.24c.12-.61.25-1.21.4-1.8l-1.36-.36c-.15.62-.29,1.26-.42,1.92"></path> <path class="cls-9" d="M1208.68,1032.58l-2.42-.88c-.36,1-.68,2-1,3l2.49.67q.38-1.44.89-2.83"></path> <path class="cls-13" d="M1208.21,1036.13l-3.61-1,.15-.56c.29-1.08.61-2.12,1-3.09l.2-.55,3.52,1.28-.2.55c-.32.88-.61,1.81-.87,2.78Zm-2.18-1.8,1.36.37c.17-.6.35-1.19.55-1.76l-1.32-.48c-.21.6-.4,1.23-.59,1.88"></path> <path class="cls-9" d="M1221.12,1016.4l-1.48-2.11q-1.31.92-2.53,1.94l1.66,2q1.13-.95,2.35-1.8"></path> <path class="cls-13" d="M1218.7,1019l-2.41-2.87.45-.38c.8-.67,1.66-1.33,2.57-2l.48-.34,2.15,3.07-.48.34c-.8.56-1.58,1.16-2.31,1.77Zm-.76-2.72.91,1.08c.47-.38,1-.76,1.46-1.12l-.81-1.15q-.81.59-1.56,1.2"></path> <path class="cls-9" d="M1231.79,1011.41l-.67-2.49c-1,.28-2,.59-3,1l.88,2.42c.92-.34,1.87-.63,2.83-.89"></path> <path class="cls-13" d="M1228.62,1013l-1.28-3.52.55-.2c1-.35,2-.68,3.09-1l.57-.15,1,3.62-.57.15c-1,.26-1.91.55-2.78.87Zm.22-2.82.48,1.32c.57-.19,1.15-.38,1.76-.55l-.36-1.36c-.65.18-1.28.38-1.88.59"></path> <path class="cls-9" d="M1234.69,1010.78l-.45-2.54c-1.05.18-2.09.41-3.11.68l.67,2.49c.95-.25,1.91-.46,2.89-.63"></path> <path class="cls-13" d="M1231.38,1012.13l-1-3.62.56-.15c1-.27,2.06-.5,3.16-.69l.57-.1.65,3.69-.58.1c-1,.17-1.94.38-2.84.62Zm.46-2.78.37,1.36c.58-.14,1.18-.28,1.8-.39l-.25-1.38q-1,.19-1.92.42"></path> <path class="cls-9" d="M1218.77,1018.2l-1.66-2c-.81.68-1.6,1.4-2.35,2.15l1.82,1.82q1-1,2.19-2"></path> <path class="cls-13" d="M1216.58,1021l-2.65-2.65.41-.41c.73-.73,1.51-1.45,2.39-2.18l.45-.38,2.41,2.87-.45.37c-.77.65-1.49,1.31-2.15,2Zm-1-2.64,1,1c.43-.41.89-.83,1.36-1.24l-.91-1.08c-.51.45-1,.88-1.45,1.32"></path> <path class="cls-9" d="M1229,1012.3l-.88-2.42q-1.5.55-2.94,1.23l1.09,2.34c.89-.42,1.8-.8,2.73-1.14"></path> <path class="cls-13" d="M1226,1014.21l-1.58-3.39.53-.25c1-.48,2-.89,3-1.25l.55-.2,1.28,3.52-.55.2c-.87.32-1.75.68-2.69,1.12Zm0-2.83.6,1.28c.58-.26,1.14-.5,1.7-.71l-.48-1.32c-.6.23-1.2.48-1.81.76"></path> <path class="cls-9" d="M1237.62,1010.39l-.22-2.57q-1.6.14-3.16.41l.45,2.54q1.45-.25,2.94-.38"></path> <path class="cls-13" d="M1234.21,1011.45l-.65-3.69.58-.1c1.06-.19,2.14-.33,3.21-.42l.58,0,.33,3.73-.58,0c-.95.08-1.92.21-2.89.38Zm.71-2.73.25,1.38c.61-.1,1.22-.18,1.83-.24l-.12-1.4c-.65.07-1.3.15-1.95.26"></path> <path class="cls-9" d="M1240.58,1010.26v-2.58c-1.07,0-2.13.06-3.18.15l.23,2.57c1-.09,2-.14,3-.14"></path> <path class="cls-13" d="M1237.09,1011l-.32-3.73.58-.05c1.15-.1,2.21-.15,3.23-.15h.58v3.75h-.58c-.92,0-1.87,0-2.91.13Zm.94-2.66.12,1.4c.64,0,1.25-.08,1.84-.09v-1.41c-.63,0-1.28,0-2,.09"></path> <path class="cls-9" d="M1223.61,1014.81l-1.29-2.23q-1.38.8-2.69,1.71l1.48,2.11q1.21-.85,2.49-1.59"></path> <path class="cls-13" d="M1221,1017.22l-2.15-3.07.48-.34c.88-.62,1.8-1.2,2.73-1.74l.51-.29,1.87,3.24-.51.29c-.85.49-1.67,1-2.45,1.57Zm-.52-2.78.81,1.15c.51-.34,1-.67,1.55-1l-.7-1.22c-.56.34-1.12.69-1.66,1.06"></path> <path class="cls-9" d="M1226.24,1013.44l-1.09-2.34c-1,.45-1.91.94-2.82,1.48l1.29,2.23q1.28-.74,2.62-1.37"></path> <path class="cls-13" d="M1223.4,1015.61l-1.87-3.24.51-.29c.95-.55,1.91-1.05,2.87-1.5l.53-.25,1.58,3.39-.53.25c-.85.4-1.72.85-2.58,1.35Zm-.28-2.81.7,1.22c.55-.3,1.09-.59,1.63-.85l-.6-1.28c-.58.28-1.16.59-1.74.91"></path> <path class="cls-9" d="M1546.94,1044.19a36.51,36.51,0,1,1-36.51-36.51,36.51,36.51,0,0,1,36.51,36.51"></path> <path class="cls-12" d="M1534.14,1044.19a23.71,23.71,0,1,1-23.71-23.71,23.71,23.71,0,0,1,23.71,23.71"></path> <path class="cls-9" d="M1530.84,1044.19a20.41,20.41,0,1,1-20.41-20.41,20.41,20.41,0,0,1,20.41,20.41"></path> <path class="cls-4" d="M1524.84,1044.19a14.41,14.41,0,1,1-14.41-14.41,14.41,14.41,0,0,1,14.41,14.41"></path> <path class="cls-12" d="M1512,1035.53a1.57,1.57,0,1,1-1.57-1.57,1.57,1.57,0,0,1,1.57,1.57"></path> <path class="cls-12" d="M1513.61,1044.19a3.21,3.21,0,1,1-3.21-3.21,3.21,3.21,0,0,1,3.21,3.21"></path> <path class="cls-12" d="M1520.29,1042.14a1.57,1.57,0,1,1-1.57-1.57,1.57,1.57,0,0,1,1.57,1.57"></path> <path class="cls-12" d="M1503.7,1042.14a1.57,1.57,0,1,1-1.57-1.57,1.57,1.57,0,0,1,1.57,1.57"></path> <path class="cls-12" d="M1506.47,1051.82a1.57,1.57,0,1,1-1.57-1.57,1.57,1.57,0,0,1,1.57,1.57"></path> <path class="cls-12" d="M1516.75,1051.82a1.57,1.57,0,1,1-1.57-1.57,1.57,1.57,0,0,1,1.57,1.57"></path> <path class="cls-9" d="M1493.46,1073.58l-1.29,2.23q1.38.8,2.82,1.48l1.09-2.34c-.9-.42-1.77-.88-2.62-1.37"></path> <path class="cls-13" d="M1495.28,1078.06l-.53-.25c-1-.45-1.93-1-2.87-1.5l-.51-.29,1.87-3.24.51.29c.85.49,1.71.94,2.58,1.35l.53.25Zm-2.3-2.47c.58.32,1.16.63,1.74.91l.6-1.28c-.55-.27-1.09-.55-1.63-.86Z"></path> <path class="cls-9" d="M1488.62,1070.19l-1.66,2q1.22,1,2.53,1.94L1491,1072q-1.21-.85-2.35-1.8"></path> <path class="cls-13" d="M1489.63,1074.91l-.48-.34c-.88-.62-1.75-1.28-2.57-2l-.45-.38,2.41-2.87.45.37c.73.61,1.51,1.21,2.31,1.77l.48.34Zm-1.84-2.83c.51.41,1,.81,1.56,1.2l.81-1.15c-.5-.36-1-.74-1.46-1.12Z"></path> <path class="cls-9" d="M1491,1072l-1.48,2.11q1.3.92,2.69,1.71l1.29-2.23q-1.28-.75-2.49-1.59"></path> <path class="cls-13" d="M1492.39,1076.61l-.51-.29c-.94-.54-1.86-1.13-2.73-1.74l-.48-.34,2.15-3.07.48.34c.79.55,1.61,1.08,2.45,1.56l.51.29Zm-2.08-2.66c.54.37,1.09.72,1.66,1.06l.7-1.22q-.79-.48-1.55-1Z"></path> <path class="cls-9" d="M1496.09,1074.95l-1.09,2.34c1,.45,1.94.86,2.94,1.23l.88-2.42c-.93-.34-1.84-.72-2.73-1.14"></path> <path class="cls-13" d="M1498.29,1079.26l-.55-.2c-1-.35-1.95-.76-3-1.25l-.53-.25,1.58-3.39.53.25c.94.44,1.81.8,2.69,1.12l.55.2Zm-2.51-2.26c.62.28,1.22.53,1.81.76l.48-1.32c-.56-.21-1.12-.45-1.7-.71Z"></path> <path class="cls-9" d="M1507.47,1078l-.22,2.57c1,.09,2.11.14,3.18.14v-2.57c-1,0-2-.05-3-.14"></path> <path class="cls-13" d="M1511,1081.29h-.58c-1,0-2.07,0-3.23-.15l-.58,0,.33-3.73.58,0c1.05.09,2,.13,2.91.13h.58Zm-3.13-1.27c.69,0,1.34.08,2,.09v-1.41c-.59,0-1.2,0-1.84-.09Z"></path> <path class="cls-9" d="M1498.82,1076.09l-.88,2.42q1.49.54,3,1l.67-2.49q-1.44-.38-2.83-.89"></path> <path class="cls-13" d="M1501.39,1080.18l-.57-.15c-1.06-.28-2.1-.61-3.09-1l-.55-.2,1.28-3.52.55.2c.88.32,1.81.61,2.78.87l.57.15Zm-2.7-2c.61.21,1.24.41,1.88.59l.36-1.36c-.6-.17-1.19-.35-1.76-.55Z"></path> <path class="cls-9" d="M1504.53,1077.61l-.45,2.54c1,.18,2.09.32,3.16.41l.23-2.57q-1.49-.13-2.94-.38"></path> <path class="cls-13" d="M1507.78,1081.19l-.58,0c-1.06-.09-2.14-.23-3.21-.42l-.58-.1.65-3.69.57.1c1,.17,1.92.29,2.89.38l.58,0Zm-3-1.52c.65.1,1.3.19,1.95.25l.12-1.4c-.61-.06-1.22-.14-1.83-.24Z"></path> <path class="cls-9" d="M1484.44,1066l-2,1.66c.68.81,1.4,1.6,2.15,2.35l1.82-1.82q-1-1-2-2.19"></path> <path class="cls-13" d="M1484.61,1070.84l-.41-.41c-.72-.72-1.46-1.53-2.18-2.39l-.38-.45,2.87-2.41.38.45c.65.77,1.31,1.5,2,2.15l.41.41Zm-1.32-3.11q.66.76,1.32,1.45l1-1q-.62-.65-1.24-1.36Z"></path> <path class="cls-9" d="M1477.65,1053l-2.49.67c.28,1,.59,2,1,3l2.42-.88c-.34-.92-.63-1.87-.89-2.83"></path> <path class="cls-13" d="M1475.76,1057.43l-.2-.55c-.35-1-.68-2-1-3.09l-.15-.56,3.62-1,.15.57c.26,1,.55,1.9.87,2.78l.2.55Zm.12-3.38c.18.65.38,1.28.59,1.88l1.32-.48c-.2-.57-.38-1.16-.55-1.76Z"></path> <path class="cls-9" d="M1477,1050.09l-2.54.45c.18,1.05.41,2.09.68,3.11l2.49-.67q-.38-1.42-.63-2.89"></path> <path class="cls-13" d="M1474.75,1054.36l-.15-.56c-.27-1-.5-2.06-.69-3.16l-.1-.58,3.69-.65.1.58c.17,1,.38,1.92.62,2.84l.15.56Zm.41-3.35c.13.66.27,1.3.42,1.92l1.36-.37c-.15-.59-.28-1.19-.4-1.8Z"></path> <path class="cls-9" d="M1476.63,1047.15l-2.57.22q.14,1.6.41,3.16l2.54-.45q-.25-1.45-.38-2.94"></path> <path class="cls-13" d="M1474,1051.21l-.1-.58c-.19-1.06-.33-2.14-.42-3.21l-.05-.58,3.73-.33.05.58c.08,1,.21,1.93.38,2.88l.1.58Zm.7-3.31c.07.65.15,1.3.26,1.95l1.38-.24c-.1-.61-.18-1.22-.24-1.83Z"></path> <path class="cls-9" d="M1510.43,1078.13v2.58c1.07,0,2.13-.06,3.18-.15l-.23-2.57c-1,.09-2,.14-3,.14"></path> <path class="cls-13" d="M1510.43,1081.29h-.58v-3.75h.58c.92,0,1.87,0,2.91-.13l.58-.05.33,3.73-.58.05c-1.15.1-2.21.15-3.23.15m.58-2.58v1.41c.63,0,1.28,0,2-.09l-.12-1.4c-.64,0-1.25.08-1.84.09"></path> <path class="cls-9" d="M1486.43,1068.19l-1.82,1.82c.75.75,1.54,1.46,2.35,2.15l1.66-2c-.76-.63-1.49-1.3-2.19-2"></path> <path class="cls-13" d="M1487,1073l-.45-.38c-.85-.72-1.66-1.45-2.39-2.18l-.41-.41,2.65-2.65.41.41c.66.66,1.38,1.32,2.15,2l.45.37Zm-1.59-3c.46.45.95.89,1.45,1.32l.91-1.08c-.48-.41-.93-.83-1.36-1.24Z"></path> <path class="cls-9" d="M1482.63,1063.65l-2.11,1.48q.91,1.31,1.94,2.53l2-1.66q-1-1.13-1.8-2.35"></path> <path class="cls-13" d="M1482.39,1068.48l-.37-.45c-.68-.8-1.34-1.67-2-2.57l-.34-.48,3.07-2.15.34.48c.57.81,1.16,1.59,1.77,2.31l.38.45Zm-1-3.21c.39.54.79,1.06,1.2,1.56l1.08-.9q-.57-.71-1.12-1.46Z"></path> <path class="cls-9" d="M1481,1061.16l-2.23,1.29q.8,1.38,1.71,2.69l2.11-1.48q-.85-1.21-1.59-2.49"></path> <path class="cls-13" d="M1480.38,1065.95l-.34-.48c-.61-.88-1.2-1.79-1.74-2.73l-.29-.51,3.24-1.87.29.51c.49.84,1,1.67,1.57,2.45l.34.48Zm-.77-3.29c.34.56.69,1.12,1.06,1.66l1.15-.81c-.34-.51-.67-1-1-1.55Z"></path> <path class="cls-9" d="M1479.67,1058.54l-2.34,1.09c.45,1,.94,1.91,1.48,2.82l2.23-1.29q-.74-1.28-1.37-2.62"></path> <path class="cls-13" d="M1478.6,1063.25l-.29-.51c-.55-1-1.06-1.92-1.5-2.87l-.25-.53,3.4-1.58.25.53c.4.86.86,1.73,1.35,2.58l.29.51Zm-.48-3.34c.28.58.59,1.16.91,1.74l1.22-.7c-.3-.54-.58-1.09-.85-1.63Z"></path> <path class="cls-9" d="M1478.53,1055.8l-2.42.88c.37,1,.78,2,1.23,2.94l2.34-1.09c-.42-.89-.8-1.8-1.14-2.73"></path> <path class="cls-13" d="M1477.05,1060.4l-.25-.53c-.48-1-.89-2-1.25-3l-.2-.55,3.52-1.28.2.55c.32.87.68,1.75,1.12,2.69l.25.53Zm-.19-3.37c.23.59.48,1.19.76,1.81l1.28-.59c-.26-.58-.5-1.14-.71-1.7Z"></path> <path class="cls-9" d="M1501.64,1077l-.67,2.49q1.53.41,3.11.68l.45-2.54c-1-.17-1.94-.38-2.89-.63"></path> <path class="cls-13" d="M1504.56,1080.82l-.58-.1c-1.1-.19-2.16-.43-3.16-.69l-.57-.15,1-3.62.57.15c.91.24,1.86.45,2.84.62l.58.1Zm-2.87-1.78c.62.15,1.26.29,1.92.42l.24-1.38q-.92-.18-1.8-.39Z"></path> <path class="cls-9" d="M1542.32,1055.8l2.42.88c.36-1,.68-2,1-3l-2.49-.67q-.38,1.44-.89,2.83"></path> <path class="cls-13" d="M1545.09,1057.43l-3.52-1.28.2-.55c.32-.88.62-1.82.87-2.78l.15-.57,3.62,1-.15.57c-.29,1.07-.61,2.11-1,3.09Zm-2-2,1.32.48q.31-.91.59-1.88l-1.36-.37c-.17.6-.35,1.19-.55,1.76"></path> <path class="cls-9" d="M1541.18,1058.54l2.34,1.09c.45-1,.86-1.94,1.23-2.94l-2.42-.88c-.34.93-.72,1.84-1.14,2.73"></path> <path class="cls-13" d="M1543.8,1060.4l-3.4-1.58.25-.53c.43-.93.8-1.81,1.12-2.68l.2-.55,3.52,1.28-.2.55c-.35,1-.76,2-1.24,3Zm-1.84-2.15,1.28.59c.28-.62.53-1.22.76-1.81l-1.32-.48c-.22.56-.45,1.12-.71,1.7"></path> <path class="cls-9" d="M1539.81,1061.16l2.23,1.29q.8-1.38,1.48-2.82l-2.34-1.09c-.42.9-.88,1.77-1.37,2.62"></path> <path class="cls-13" d="M1542.26,1063.25l-3.24-1.87.29-.51c.49-.85.94-1.71,1.35-2.58l.25-.53,3.4,1.58-.25.53c-.45,1-1,1.92-1.5,2.87Zm-1.65-2.3,1.22.7c.32-.58.63-1.16.91-1.74l-1.28-.6c-.27.55-.55,1.09-.85,1.63"></path> <path class="cls-9" d="M1538.22,1063.65l2.11,1.48q.92-1.3,1.71-2.69l-2.23-1.29q-.75,1.28-1.59,2.49"></path> <path class="cls-13" d="M1540.47,1065.95l-3.07-2.15.34-.48c.55-.79,1.08-1.61,1.57-2.45l.29-.51,3.24,1.87-.29.51c-.54.94-1.13,1.85-1.74,2.73Zm-1.44-2.44,1.15.81c.37-.54.72-1.09,1.06-1.66l-1.22-.7c-.32.52-.65,1-1,1.55"></path> <path class="cls-9" d="M1543.21,1053l2.49.67c.27-1,.5-2.06.68-3.11l-2.54-.45q-.26,1.47-.63,2.89"></path> <path class="cls-13" d="M1546.11,1054.36l-3.62-1,.15-.56c.24-.91.45-1.87.62-2.84l.1-.58,3.69.65-.1.57c-.19,1.11-.43,2.17-.69,3.16Zm-2.19-1.8,1.36.36c.15-.62.29-1.26.42-1.92l-1.39-.25c-.12.61-.25,1.21-.39,1.8"></path> <path class="cls-9" d="M1476.49,1044.19h-2.58c0,1.07.06,2.13.15,3.18l2.57-.23c-.09-1-.14-2-.14-3"></path> <path class="cls-13" d="M1473.53,1048l-.05-.58c-.1-1.15-.15-2.2-.15-3.23v-.58h3.74v.58c0,.9,0,1.85.14,2.91l0,.58Zm1-3.23c0,.63,0,1.28.09,2l1.4-.12c0-.65-.08-1.25-.09-1.84Z"></path> <path class="cls-9" d="M1536.42,1066l2,1.66c.68-.81,1.33-1.66,1.94-2.53l-2.11-1.48q-.85,1.21-1.8,2.35"></path> <path class="cls-13" d="M1538.46,1068.48l-2.87-2.41.38-.45c.61-.73,1.2-1.5,1.77-2.31l.34-.48,3.07,2.15-.34.48c-.63.9-1.29,1.77-2,2.57Zm-1.23-2.55,1.08.91q.61-.75,1.2-1.56l-1.15-.81c-.36.5-.74,1-1.12,1.46"></path> <path class="cls-9" d="M1544.23,1047.15q-.13,1.49-.38,2.94l2.54.45q.27-1.56.41-3.16Z"></path> <path class="cls-13" d="M1546.85,1051.21l-3.69-.65.1-.57c.17-1,.29-1.93.38-2.88l0-.58,3.73.32,0,.58c-.09,1.06-.23,2.14-.42,3.21Zm-2.34-1.6,1.38.25c.1-.65.19-1.3.26-2l-1.4-.12c-.06.61-.14,1.22-.24,1.83"></path> <path class="cls-9" d="M1532.24,1070.19l1.66,2c.81-.68,1.6-1.4,2.35-2.15l-1.82-1.82q-1,1-2.19,2"></path> <path class="cls-13" d="M1533.82,1073l-2.41-2.87.45-.38c.76-.64,1.48-1.3,2.15-2l.41-.41,2.65,2.65-.41.41c-.73.73-1.51,1.45-2.39,2.18Zm-.76-2.73.91,1.08c.51-.45,1-.88,1.45-1.32l-1-1c-.43.42-.89.83-1.36,1.24"></path> <path class="cls-9" d="M1519.21,1077l.67,2.49c1-.28,2-.59,3-1l-.88-2.42c-.92.34-1.87.63-2.83.89"></path> <path class="cls-13" d="M1519.46,1080.18l-1-3.62.56-.15c1-.26,1.91-.55,2.78-.87l.55-.2,1.28,3.52-.55.2c-1,.35-2,.68-3.09,1Zm.46-2.8.36,1.36c.65-.18,1.28-.38,1.88-.59l-.48-1.32c-.57.19-1.15.38-1.76.55"></path> <path class="cls-9" d="M1522,1076.09l.88,2.42q1.5-.55,2.94-1.23l-1.09-2.34c-.89.42-1.8.8-2.73,1.14"></path> <path class="cls-13" d="M1522.57,1079.26l-1.28-3.52.55-.2c.87-.32,1.75-.68,2.68-1.12l.53-.25,1.58,3.39-.53.25c-1,.48-2,.89-3,1.25Zm.22-2.83.48,1.32c.6-.23,1.2-.48,1.81-.76l-.6-1.28c-.58.26-1.14.49-1.7.71"></path> <path class="cls-9" d="M1516.32,1077.61l.45,2.54c1.05-.18,2.09-.41,3.11-.68l-.67-2.49c-.95.25-1.91.46-2.89.63"></path> <path class="cls-13" d="M1516.29,1080.82l-.65-3.69.58-.1c1-.17,1.94-.38,2.84-.62l.57-.15,1,3.62-.57.15c-1,.27-2.06.5-3.16.69Zm.7-2.74.25,1.39c.66-.13,1.3-.27,1.92-.42l-.37-1.36c-.58.14-1.19.28-1.8.39"></path> <path class="cls-9" d="M1534.42,1068.19l1.82,1.82c.75-.75,1.46-1.54,2.15-2.35l-2-1.66c-.63.76-1.3,1.49-2,2.19"></path> <path class="cls-13" d="M1536.24,1070.84l-2.65-2.65.41-.41c.65-.65,1.31-1.38,2-2.15l.38-.45,2.87,2.41-.38.45c-.72.86-1.45,1.66-2.18,2.39Zm-1-2.65,1,1c.44-.46.89-.95,1.32-1.45l-1.08-.91c-.41.48-.83.93-1.24,1.36"></path> <path class="cls-9" d="M1524.77,1074.95l1.09,2.34c1-.45,1.91-.94,2.82-1.48l-1.29-2.23q-1.28.74-2.62,1.37"></path> <path class="cls-13" d="M1525.58,1078.06l-1.58-3.4.53-.25c.85-.4,1.72-.85,2.58-1.35l.51-.29,1.87,3.24-.51.29c-1,.55-1.92,1.06-2.87,1.5Zm0-2.83.6,1.28c.58-.28,1.16-.59,1.74-.91l-.71-1.22c-.54.3-1.09.59-1.63.85"></path> <path class="cls-9" d="M1513.38,1078l.22,2.57q1.6-.14,3.16-.41l-.45-2.54q-1.45.25-2.94.38"></path> <path class="cls-13" d="M1513.08,1081.19l-.33-3.73.58,0c1-.08,1.92-.21,2.88-.38l.58-.1.65,3.69-.58.1c-1.06.18-2.14.33-3.21.42Zm.94-2.67.12,1.4c.65-.07,1.3-.15,1.95-.26l-.25-1.38c-.61.1-1.22.18-1.83.24"></path> <path class="cls-9" d="M1527.39,1073.58l1.29,2.23q1.38-.8,2.69-1.71l-1.48-2.11q-1.21.85-2.49,1.59"></path> <path class="cls-13" d="M1528.47,1076.61l-1.87-3.24.51-.29c.84-.49,1.66-1,2.45-1.57l.48-.34,2.15,3.07-.48.34c-.88.61-1.79,1.2-2.73,1.74Zm-.28-2.82.7,1.22c.56-.34,1.12-.69,1.66-1.06l-.81-1.15c-.51.34-1,.67-1.55,1"></path> <path class="cls-9" d="M1529.89,1072l1.48,2.11q1.31-.92,2.53-1.94l-1.66-2q-1.13.95-2.35,1.8"></path> <path class="cls-13" d="M1531.22,1074.91l-2.15-3.07.48-.34c.8-.56,1.58-1.15,2.31-1.77l.45-.38,2.41,2.87-.45.38c-.8.67-1.66,1.33-2.57,2Zm-.52-2.78.81,1.15q.81-.59,1.56-1.2l-.91-1.08q-.71.57-1.46,1.12"></path> <path class="cls-9" d="M1522,1012.3l.88-2.42q-1.49-.54-3-1l-.67,2.49q1.44.38,2.83.89"></path> <path class="cls-13" d="M1522.39,1013l-.55-.2c-.89-.32-1.82-.62-2.78-.87l-.57-.15,1-3.62.56.15c1.06.28,2.1.61,3.09,1l.55.2Zm-2.46-2c.6.17,1.19.35,1.76.55l.48-1.32c-.61-.21-1.24-.41-1.88-.59Z"></path> <path class="cls-9" d="M1529.89,1016.4l1.48-2.11q-1.3-.92-2.69-1.71l-1.29,2.23q1.28.75,2.49,1.59"></path> <path class="cls-13" d="M1530,1017.22l-.48-.34c-.78-.55-1.61-1.08-2.45-1.57l-.5-.29,1.87-3.24.51.29c.94.54,1.85,1.13,2.73,1.74l.48.34Zm-1.84-2.62c.53.32,1,.65,1.55,1l.81-1.15c-.54-.37-1.09-.72-1.66-1.06Z"></path> <path class="cls-9" d="M1532.24,1018.2l1.66-2c-.81-.68-1.66-1.33-2.53-1.94l-1.48,2.11q1.21.85,2.35,1.8"></path> <path class="cls-13" d="M1532.31,1019l-.45-.38c-.72-.61-1.5-1.2-2.31-1.77l-.48-.34,2.15-3.07.48.34c.9.63,1.77,1.29,2.57,2l.45.38Zm-1.61-2.76c.5.36,1,.74,1.46,1.12l.91-1.08q-.75-.61-1.56-1.2Z"></path> <path class="cls-9" d="M1534.42,1020.2l1.82-1.82c-.75-.75-1.54-1.46-2.35-2.15l-1.66,2c.76.63,1.49,1.3,2.19,2"></path> <path class="cls-13" d="M1534.42,1021l-.41-.41c-.66-.66-1.36-1.3-2.15-2l-.45-.38,2.41-2.87.45.38c.85.71,1.66,1.45,2.39,2.18l.41.41Zm-1.37-2.89c.48.41.93.83,1.36,1.24l1-1c-.46-.45-.95-.89-1.45-1.33Z"></path> <path class="cls-9" d="M1536.42,1022.38l2-1.66c-.68-.81-1.4-1.6-2.15-2.35l-1.82,1.82q1,1,2,2.19"></path> <path class="cls-13" d="M1536.35,1023.21l-.38-.45c-.65-.77-1.31-1.5-2-2.15l-.41-.41,2.65-2.65.41.41c.73.73,1.46,1.53,2.18,2.39l.38.45Zm-1.1-3c.41.43.83.89,1.24,1.36l1.08-.9q-.66-.76-1.32-1.45Z"></path> <path class="cls-9" d="M1519.21,1011.41l.67-2.49q-1.53-.41-3.11-.68l-.45,2.54c1,.17,1.94.38,2.89.63"></path> <path class="cls-13" d="M1519.63,1012.13l-.57-.15c-.91-.24-1.86-.45-2.84-.62l-.58-.1.65-3.69.58.1c1.1.19,2.16.43,3.16.69l.57.15Zm-2.63-1.82c.61.12,1.21.25,1.8.39l.36-1.36q-.93-.23-1.92-.42Z"></path> <path class="cls-9" d="M1516.32,1010.78l.45-2.54c-1-.18-2.09-.32-3.16-.41l-.23,2.57q1.49.13,2.94.38"></path> <path class="cls-13" d="M1516.79,1011.46l-.58-.1c-1-.17-1.93-.3-2.88-.38l-.58,0,.33-3.73.58,0c1.06.09,2.14.23,3.21.42l.58.1Zm-2.78-1.59c.61.06,1.22.14,1.83.24l.25-1.38c-.65-.1-1.3-.19-1.95-.26Z"></path> <path class="cls-9" d="M1538.22,1024.73l2.11-1.48q-.92-1.31-1.94-2.53l-2,1.66q1,1.13,1.8,2.35"></path> <path class="cls-13" d="M1538.08,1025.55l-.34-.48c-.57-.81-1.16-1.58-1.77-2.31l-.38-.45,2.87-2.41.38.45c.67.8,1.33,1.66,2,2.57l.34.48Zm-.84-3.09c.38.47.76,1,1.12,1.46l1.15-.81c-.39-.54-.79-1.06-1.2-1.56Z"></path> <path class="cls-9" d="M1527.39,1014.81l1.29-2.23q-1.38-.8-2.82-1.48l-1.09,2.34c.9.42,1.77.88,2.62,1.37"></path> <path class="cls-13" d="M1527.61,1015.61l-.51-.29c-.85-.49-1.71-.94-2.58-1.35l-.53-.25,1.58-3.39.53.25c1,.45,1.92,1,2.87,1.5l.51.29Zm-2.06-2.45c.55.27,1.09.55,1.63.85l.7-1.22c-.57-.32-1.16-.63-1.74-.91Z"></path> <path class="cls-9" d="M1524.77,1013.44l1.09-2.34c-1-.45-1.94-.86-2.94-1.23l-.88,2.42c.93.34,1.84.72,2.73,1.14"></path> <path class="cls-13" d="M1525.05,1014.21l-.53-.25c-.93-.43-1.81-.8-2.68-1.12l-.55-.2,1.28-3.52.55.2c1,.35,1.95.76,3,1.25l.53.25Zm-2.27-2.26c.56.22,1.12.45,1.7.71l.6-1.28c-.62-.28-1.22-.53-1.81-.76Z"></path> <path class="cls-9" d="M1542.32,1032.58l2.42-.88c-.37-1-.78-2-1.23-2.94l-2.34,1.09c.42.89.8,1.8,1.14,2.73"></path> <path class="cls-13" d="M1542,1033.33l-.2-.55c-.32-.87-.69-1.78-1.12-2.69l-.25-.53,3.4-1.58.25.53c.48,1,.89,2,1.24,3l.2.55Zm0-3.2c.26.57.49,1.14.71,1.7l1.32-.48c-.23-.59-.48-1.19-.76-1.81Z"></path> <path class="cls-9" d="M1544.23,1041.24l2.57-.22q-.14-1.6-.41-3.16l-2.54.45q.25,1.45.38,2.94"></path> <path class="cls-13" d="M1543.69,1041.87l0-.58c-.08-1-.21-1.92-.38-2.88l-.1-.57,3.69-.65.1.58c.19,1.06.33,2.14.42,3.21l0,.58Zm.82-3.09c.1.61.18,1.22.24,1.83l1.4-.12c-.07-.65-.15-1.3-.26-2Z"></path> <path class="cls-9" d="M1539.81,1027.23l2.23-1.29q-.8-1.38-1.71-2.69l-2.11,1.48q.85,1.21,1.59,2.49"></path> <path class="cls-13" d="M1539.6,1028l-.29-.51c-.49-.84-1-1.66-1.57-2.45l-.34-.48,3.07-2.15.34.48c.61.88,1.2,1.8,1.74,2.73l.29.51Zm-.57-3.15q.51.76,1,1.55l1.22-.7c-.34-.56-.69-1.12-1.06-1.66Z"></path> <path class="cls-9" d="M1544.23,1047.15l2.57.22c.09-1,.14-2.11.14-3.18h-2.58c0,1-.05,2-.14,3"></path> <path class="cls-13" d="M1547.32,1048l-3.73-.32.05-.58c.09-1,.13-2,.13-2.91v-.58h3.75v.58c0,1,0,2.06-.15,3.23Zm-2.47-1.39,1.4.12c0-.69.08-1.34.09-2h-1.41c0,.59,0,1.2-.09,1.84"></path> <path class="cls-9" d="M1543.84,1038.3l2.54-.45c-.18-1.05-.41-2.09-.68-3.11l-2.49.67q.38,1.42.63,2.89"></path> <path class="cls-13" d="M1543.37,1039l-.1-.58c-.17-1-.38-1.93-.62-2.84l-.15-.56,3.62-1,.15.57c.27,1,.5,2.06.69,3.16l.1.57Zm.55-3.15c.15.59.28,1.19.39,1.8l1.39-.24q-.19-1-.42-1.92Z"></path> <path class="cls-9" d="M1544.36,1044.19h2.58c0-1.07-.06-2.13-.15-3.18l-2.57.23c.08,1,.14,2,.14,3"></path> <path class="cls-13" d="M1547.52,1044.78h-3.75v-.58c0-.91,0-1.87-.13-2.91l0-.58,3.73-.33,0,.58c.1,1.16.15,2.22.15,3.23Zm-2.58-1.17h1.41c0-.63,0-1.28-.09-2l-1.4.12c0,.64.08,1.25.09,1.84"></path> <path class="cls-9" d="M1541.18,1029.85l2.34-1.09c-.45-1-.94-1.91-1.48-2.82l-2.23,1.29q.74,1.28,1.37,2.62"></path> <path class="cls-13" d="M1540.9,1030.63l-.25-.53c-.41-.87-.86-1.74-1.35-2.58l-.29-.51,3.24-1.87.29.51c.55,1,1.06,1.92,1.5,2.87l.25.53Zm-.29-3.18c.3.54.58,1.08.85,1.63l1.28-.6c-.28-.58-.59-1.16-.91-1.74Z"></path> <path class="cls-9" d="M1476.63,1041.24l-2.57-.22c-.09,1-.15,2.11-.15,3.18h2.58c0-1,.05-2,.14-3"></path> <path class="cls-13" d="M1477.08,1044.78h-3.74v-.58c0-1,0-2.07.15-3.23l0-.58,3.73.33,0,.58c-.09,1-.14,2-.14,2.91Zm-2.57-1.17h1.41c0-.59,0-1.2.09-1.84l-1.4-.12c0,.69-.08,1.34-.09,2"></path> <path class="cls-9" d="M1513.38,1010.39l.22-2.57c-1-.09-2.11-.15-3.18-.15v2.58c1,0,2,.05,3,.14"></path> <path class="cls-13" d="M1513.92,1011l-.58,0c-1-.09-2-.14-2.91-.14h-.58v-3.74h.58c1,0,2.07,0,3.23.15l.58,0Zm-2.91-1.35c.59,0,1.2,0,1.84.09l.12-1.4c-.69,0-1.34-.08-2-.09Z"></path> <path class="cls-9" d="M1543.21,1035.41l2.49-.67c-.28-1-.59-2-1-3l-2.42.88c.34.92.63,1.87.89,2.83"></path> <path class="cls-13" d="M1542.79,1036.13l-.15-.57c-.26-1-.55-1.89-.87-2.78l-.2-.55,3.52-1.28.2.55c.35,1,.68,2,1,3.09l.15.56Zm.27-3.19c.2.57.38,1.16.55,1.76l1.36-.36c-.18-.65-.38-1.27-.59-1.88Z"></path> <path class="cls-9" d="M1486.43,1020.2l-1.82-1.82c-.75.75-1.47,1.54-2.15,2.35l2,1.66c.63-.76,1.3-1.49,2-2.19"></path> <path class="cls-13" d="M1484.51,1023.21l-2.87-2.41.38-.45c.72-.85,1.45-1.66,2.18-2.39l.41-.41,2.65,2.65-.41.41c-.65.65-1.31,1.38-2,2.15Zm-1.22-2.55,1.08.91c.41-.48.83-.93,1.24-1.36l-1-1q-.66.69-1.32,1.45"></path> <path class="cls-9" d="M1482.63,1024.73l-2.11-1.48q-.92,1.3-1.71,2.68l2.23,1.29q.75-1.28,1.59-2.49"></path> <path class="cls-13" d="M1481.25,1028l-3.24-1.87.29-.51c.54-.94,1.13-1.86,1.74-2.73l.34-.48,3.07,2.15-.34.48c-.55.78-1.08,1.61-1.57,2.45Zm-1.64-2.3,1.22.7c.32-.53.65-1,1-1.55l-1.15-.81c-.37.54-.72,1.09-1.06,1.66"></path> <path class="cls-9" d="M1479.67,1029.85l-2.34-1.09c-.45,1-.86,1.94-1.23,2.94l2.42.88c.34-.93.72-1.84,1.14-2.73"></path> <path class="cls-13" d="M1478.88,1033.33l-3.52-1.28.2-.55c.35-1,.76-1.95,1.25-3l.25-.53,3.4,1.58-.25.53c-.43.93-.8,1.81-1.12,2.69Zm-2-2,1.32.48c.22-.56.45-1.12.71-1.7l-1.28-.59c-.28.62-.53,1.22-.76,1.81"></path> <path class="cls-9" d="M1484.44,1022.38l-2-1.66c-.68.81-1.33,1.66-1.94,2.53l2.11,1.48q.85-1.21,1.8-2.35"></path> <path class="cls-13" d="M1482.78,1025.55l-3.07-2.15.34-.48c.63-.9,1.29-1.76,2-2.57l.38-.45,2.87,2.41-.38.45c-.6.72-1.2,1.49-1.77,2.31Zm-1.43-2.43,1.15.81q.55-.76,1.12-1.46l-1.08-.9c-.41.5-.81,1-1.2,1.56"></path> <path class="cls-9" d="M1481,1027.23l-2.23-1.29q-.8,1.38-1.48,2.82l2.34,1.09c.42-.9.88-1.77,1.37-2.62"></path> <path class="cls-13" d="M1480,1030.63l-3.4-1.58.25-.53c.45-1,1-1.92,1.5-2.87l.29-.51,3.24,1.87-.29.51c-.49.85-.94,1.72-1.35,2.58Zm-1.84-2.15,1.28.59c.27-.55.55-1.09.85-1.63l-1.22-.7c-.32.58-.63,1.16-.91,1.74"></path> <path class="cls-9" d="M1477,1038.3l-2.54-.45q-.27,1.56-.41,3.16l2.57.23q.13-1.49.38-2.94"></path> <path class="cls-13" d="M1477.16,1041.87l-3.73-.33.05-.58c.09-1.07.23-2.15.42-3.21l.1-.58,3.69.65-.1.58c-.17.95-.29,1.92-.38,2.88Zm-2.46-1.39,1.4.12c.06-.61.14-1.22.24-1.83l-1.39-.24c-.1.65-.19,1.3-.25,1.95"></path> <path class="cls-9" d="M1477.65,1035.41l-2.49-.67c-.27,1-.5,2.06-.68,3.11l2.54.45q.26-1.47.63-2.89"></path> <path class="cls-13" d="M1477.49,1039l-3.69-.65.1-.58c.19-1.1.43-2.17.69-3.16l.15-.57,3.61,1-.15.56c-.25.92-.46,1.88-.62,2.84Zm-2.33-1.6,1.38.24c.12-.61.25-1.21.4-1.8l-1.36-.36c-.15.62-.29,1.26-.42,1.92"></path> <path class="cls-9" d="M1478.53,1032.58l-2.42-.88c-.36,1-.68,2-1,3l2.49.67q.38-1.44.89-2.83"></path> <path class="cls-13" d="M1478.06,1036.13l-3.61-1,.15-.56c.29-1.08.61-2.12,1-3.09l.2-.55,3.52,1.28-.2.55c-.32.88-.61,1.81-.87,2.78Zm-2.18-1.8,1.36.37c.17-.6.35-1.19.55-1.76l-1.32-.48c-.21.6-.4,1.23-.59,1.88"></path> <path class="cls-9" d="M1491,1016.4l-1.48-2.11q-1.31.92-2.53,1.94l1.66,2q1.13-.95,2.35-1.8"></path> <path class="cls-13" d="M1488.54,1019l-2.41-2.87.45-.38c.8-.67,1.66-1.33,2.57-2l.48-.34,2.15,3.07-.48.34c-.8.56-1.58,1.16-2.31,1.77Zm-.76-2.72.91,1.08c.47-.38,1-.76,1.46-1.12l-.81-1.15q-.81.59-1.56,1.2"></path> <path class="cls-9" d="M1501.64,1011.41l-.67-2.49c-1,.28-2,.59-3,1l.88,2.42c.92-.34,1.87-.63,2.83-.89"></path> <path class="cls-13" d="M1498.47,1013l-1.28-3.52.55-.2c1-.35,2-.68,3.09-1l.57-.15,1,3.62-.57.15c-1,.26-1.91.55-2.78.87Zm.22-2.82.48,1.32c.57-.19,1.15-.38,1.76-.55l-.36-1.36c-.65.18-1.28.38-1.88.59"></path> <path class="cls-9" d="M1504.53,1010.78l-.45-2.54c-1.05.18-2.09.41-3.11.68l.67,2.49c.95-.25,1.91-.46,2.89-.63"></path> <path class="cls-13" d="M1501.23,1012.13l-1-3.62.56-.15c1-.27,2.06-.5,3.16-.69l.57-.1.65,3.69-.58.1c-1,.17-1.94.38-2.84.62Zm.46-2.78.37,1.36c.58-.14,1.18-.28,1.8-.39l-.25-1.38q-1,.19-1.92.42"></path> <path class="cls-9" d="M1488.62,1018.2l-1.66-2c-.81.68-1.6,1.4-2.35,2.15l1.82,1.82q1-1,2.19-2"></path> <path class="cls-13" d="M1486.43,1021l-2.65-2.65.41-.41c.73-.73,1.51-1.45,2.39-2.18l.45-.38,2.41,2.87-.45.37c-.77.65-1.49,1.31-2.15,2Zm-1-2.64,1,1c.43-.41.89-.83,1.36-1.24l-.91-1.08c-.51.45-1,.88-1.45,1.32"></path> <path class="cls-9" d="M1498.82,1012.3l-.88-2.42q-1.5.55-2.94,1.23l1.09,2.34c.89-.42,1.8-.8,2.73-1.14"></path> <path class="cls-13" d="M1495.8,1014.21l-1.58-3.39.53-.25c1-.48,2-.89,3-1.25l.55-.2,1.28,3.52-.55.2c-.87.32-1.75.68-2.69,1.12Zm0-2.83.6,1.28c.58-.26,1.14-.5,1.7-.71l-.48-1.32c-.6.23-1.2.48-1.81.76"></path> <path class="cls-9" d="M1507.47,1010.39l-.22-2.57q-1.6.14-3.16.41l.45,2.54q1.45-.25,2.94-.38"></path> <path class="cls-13" d="M1504.06,1011.45l-.65-3.69.58-.1c1.06-.19,2.14-.33,3.21-.42l.58,0,.33,3.73-.58,0c-.95.08-1.92.21-2.89.38Zm.71-2.73.25,1.38c.61-.1,1.22-.18,1.83-.24l-.12-1.4c-.65.07-1.3.15-1.95.26"></path> <path class="cls-9" d="M1510.43,1010.26v-2.58c-1.07,0-2.13.06-3.18.15l.23,2.57c1-.09,2-.14,3-.14"></path> <path class="cls-13" d="M1506.94,1011l-.32-3.73.58-.05c1.15-.1,2.21-.15,3.23-.15h.58v3.75h-.58c-.92,0-1.87,0-2.91.13Zm.94-2.66.12,1.4c.64,0,1.25-.08,1.84-.09v-1.41c-.63,0-1.28,0-2,.09"></path> <path class="cls-9" d="M1493.46,1014.81l-1.29-2.23q-1.38.8-2.69,1.71l1.48,2.11q1.21-.85,2.49-1.59"></path> <path class="cls-13" d="M1490.82,1017.22l-2.15-3.07.48-.34c.88-.62,1.8-1.2,2.73-1.74l.51-.29,1.87,3.24-.51.29c-.85.49-1.67,1-2.45,1.57Zm-.52-2.78.81,1.15c.51-.34,1-.67,1.55-1l-.71-1.22c-.56.34-1.11.69-1.66,1.06"></path> <path class="cls-9" d="M1496.09,1013.44l-1.09-2.34c-1,.45-1.91.94-2.82,1.48l1.29,2.23q1.28-.74,2.62-1.37"></path> <path class="cls-13" d="M1493.25,1015.61l-1.87-3.24.51-.29c.95-.55,1.91-1.05,2.87-1.5l.53-.25,1.58,3.39-.53.25c-.85.4-1.72.85-2.58,1.35Zm-.28-2.81.7,1.22c.54-.3,1.09-.59,1.63-.85l-.6-1.28c-.58.28-1.16.59-1.74.91"></path> <polyline class="cls-14" points="1549.21 864.69 1569.66 850.28 1578.65 853.03 1589.79 844.68 1598.78 843.65 1611.54 827.15"></polyline> <polyline class="cls-15" points="1549.21 868.9 1569.77 858.55 1585.4 862.7 1597.36 835.58 1611.54 833.27"></polyline> <path class="cls-9" d="M1605.92,875.9H1555a7,7,0,0,1-7-7V828.51a7,7,0,0,1,7-7h50.93a7,7,0,0,1,7,7V868.9a7,7,0,0,1-7,7M1555,824a4.56,4.56,0,0,0-4.56,4.56V868.9a4.56,4.56,0,0,0,4.56,4.56h50.93a4.56,4.56,0,0,0,4.56-4.56V828.51a4.56,4.56,0,0,0-4.56-4.56Z"></path> <path class="cls-16" d="M1836.9,931c0-184.08,149.22-333.3,333.3-333.3S2503.5,747,2503.5,931s-149.22,333.3-333.3,333.3S1836.9,1115.12,1836.9,931"></path> <path class="cls-6" d="M2003.92,845.87a21.38,21.38,0,0,0-15.54,32.42L2023.5,854a21.37,21.37,0,0,0-19.58-8.11"></path> <path class="cls-17" d="M2027.86,864.41A21.27,21.27,0,0,0,2023.5,854l-35.12,24.31a21.4,21.4,0,0,0,39.47-13.88"></path> <path class="cls-18" d="M2186,835.11l-19.27-61a9.84,9.84,0,0,0-9.57-6.87l25,79a9.84,9.84,0,0,0,3.89-11.12"></path> <path class="cls-19" d="M2154.34,767.72l-6.17,1.95a9.84,9.84,0,0,0-6.42,12.35L2161,843a9.84,9.84,0,0,0,12.35,6.42l6.17-1.95a9.83,9.83,0,0,0,2.53-1.23l-25-79a9.8,9.8,0,0,0-2.77.45"></path> <path class="cls-20" d="M2002.49,854l8.3,26.27a7.51,7.51,0,0,0,9.42,4.9l66.68-21.07a7.51,7.51,0,0,0,4.9-9.42l-8.3-26.27a7.51,7.51,0,0,0-9.42-4.9l-66.68,21.07a7.51,7.51,0,0,0-4.9,9.42"></path> <path class="cls-9" d="M2111.44,942.64h.11a7.51,7.51,0,0,0,7.51-7.51V886.31a7.51,7.51,0,0,0-7.51-7.51h-.11a7.51,7.51,0,0,0-7.51,7.51v48.82a7.51,7.51,0,0,0,7.51,7.51"></path> <path class="cls-21" d="M2104.92,917.39v229.2c2.19,0,4.38.08,6.58.08q10.83,0,21.46-.8V917.39Z"></path> <path class="cls-9" d="M2090,917.39v228.49q7.39.54,14.88.71V917.39Z"></path> <path class="cls-22" d="M2079.57,918.23v.11a7.51,7.51,0,0,0,7.51,7.51h48.82a7.51,7.51,0,0,0,7.51-7.51v-.11a7.51,7.51,0,0,0-7.51-7.51h-48.82a7.51,7.51,0,0,0-7.51,7.51"></path> <path class="cls-9" d="M2111.55,857.39a21.41,21.41,0,0,0-15.14,36.54l30.27-30.27a21.34,21.34,0,0,0-15.14-6.27"></path> <path class="cls-21" d="M2096.41,893.94a21.41,21.41,0,0,0,30.27-30.27Z"></path> <path class="cls-18" d="M2142.07,761.4l-145.49,46a5.5,5.5,0,0,0-3.59,6.91l57.93,78.25a5.48,5.48,0,0,0,4,3.68l91.29-134.48a5.47,5.47,0,0,0-4.12-.34"></path> <path class="cls-20" d="M2176.72,852.78,2149,765a5.48,5.48,0,0,0-2.78-3.25L2054.9,896.21a5.45,5.45,0,0,0,2.93-.09l115.3-36.44a5.5,5.5,0,0,0,3.59-6.91"></path> <path class="cls-5" d="M2302.38,1017.67a129.86,129.86,0,0,1-20.29-1.58c-46.13-7.3-80.84-39-80.84-77,0-15.81,6-30.53,16.36-42.85,0,0-6.2-27.13-25.39-39.92,29.39,0,46.47,21.76,46.47,21.76,17.39-11,39.55-17.54,63.7-17.54,29.85,0,56.67,10,75.18,26,16.13,13.92,25.95,32.33,25.95,52.53,0,43.38-45.28,78.55-101.13,78.55"></path> <path class="cls-23" d="M2277.67,941.23a13.36,13.36,0,1,0-13.36,13.36,13.36,13.36,0,0,0,13.36-13.36"></path> <path class="cls-23" d="M2315.44,941.23a13.36,13.36,0,1,0-13.36,13.36,13.36,13.36,0,0,0,13.36-13.36"></path> <path class="cls-23" d="M2353.21,941.23a13.36,13.36,0,1,0-13.36,13.36,13.36,13.36,0,0,0,13.36-13.36"></path> <polygon class="cls-19" points="2001.46 813.48 2142.56 768.88 2169.23 853.27 2057.15 888.69 2001.46 813.48"></polygon> <path class="cls-18" d="M1992.08,846.1l14.71,46.55a7.51,7.51,0,0,0,9.42,4.9L1997,836.68a7.51,7.51,0,0,0-4.9,9.42"></path> <path class="cls-19" d="M2021.21,888.1l-14.71-46.55a7.51,7.51,0,0,0-9.42-4.9l-.1,0,19.24,60.88.1,0a7.51,7.51,0,0,0,4.9-9.42"></path> <path class="cls-22" d="M2097.24,792.06a5.7,5.7,0,0,0-3.72,7.16l0,.08a5.7,5.7,0,0,0,7.16,3.72l25.63-8.1,4.82-13.57Z"></path> <path class="cls-21" d="M2139.77,784.68l0-.08a5.7,5.7,0,0,0-7.16-3.72l-1.43.45-4.82,13.57,9.71-3.07a5.7,5.7,0,0,0,3.72-7.16"></path> <path class="cls-21" d="M2144.34,799.17l0-.08a5.7,5.7,0,0,0-7.16-3.72l-12.39,3.92L2120,812.86l20.67-6.53a5.7,5.7,0,0,0,3.72-7.16"></path> <path class="cls-22" d="M2101.82,806.54a5.7,5.7,0,0,0-3.72,7.16l0,.08a5.7,5.7,0,0,0,7.16,3.72l14.67-4.64,4.82-13.57Z"></path> <path class="cls-22" d="M2106.4,821a5.7,5.7,0,0,0-3.72,7.16l0,.08a5.7,5.7,0,0,0,7.16,3.72l3.72-1.17,4.82-13.57Z"></path> <path class="cls-21" d="M2148.92,813.66l0-.08a5.7,5.7,0,0,0-7.15-3.72l-23.35,7.38-4.82,13.57,31.62-10a5.7,5.7,0,0,0,3.72-7.16"></path> <path class="cls-24" d="M2023.5,825.85a5.93,5.93,0,1,0,8.39-8.39Z"></path> <path class="cls-23" d="M2027.69,815.73a5.93,5.93,0,0,0-4.19,10.12l8.39-8.39a5.92,5.92,0,0,0-4.19-1.74"></path> <circle class="cls-25" cx="2027.69" cy="821.66" r="8.75"></circle> <line class="cls-25" x1="2172.13" y1="838.26" x2="2182.07" y2="835.05"></line> <line class="cls-25" x1="2170.65" y1="833.58" x2="2180.59" y2="830.37"></line> <line class="cls-25" x1="2169.18" y1="828.9" x2="2179.11" y2="825.69"></line> <line class="cls-25" x1="2167.7" y1="824.22" x2="2177.64" y2="821.01"></line> <line class="cls-25" x1="2166.22" y1="819.53" x2="2176.16" y2="816.33"></line> <line class="cls-25" x1="2164.75" y1="814.85" x2="2174.68" y2="811.65"></line> <line class="cls-25" x1="2163.27" y1="810.17" x2="2173.21" y2="806.97"></line> <line class="cls-26" x1="2103.11" y1="881.7" x2="2095.67" y2="858.86"></line> <line class="cls-26" x1="2098.43" y1="883.17" x2="2090.99" y2="860.34"></line> <line class="cls-26" x1="2093.75" y1="884.65" x2="2086.31" y2="861.82"></line> <line class="cls-26" x1="2089.07" y1="886.13" x2="2081.63" y2="863.29"></line> <line class="cls-26" x1="2084.39" y1="887.61" x2="2076.94" y2="864.77"></line> <line class="cls-26" x1="2079.71" y1="889.08" x2="2072.26" y2="866.25"></line> <line class="cls-26" x1="2075.02" y1="890.56" x2="2067.58" y2="867.72"></line> <g class="cls-27"> <polygon class="cls-28" points="520.05 959.04 442.24 959.04 463.05 923.23 539.41 923.23 520.05 959.04"></polygon> <polygon class="cls-29" points="597.86 959.04 520.05 959.04 539.41 923.23 615.76 923.23 597.86 959.04"></polygon> <polygon class="cls-28" points="675.67 959.04 597.86 959.04 615.76 923.23 692.12 923.23 675.67 959.04"></polygon> <polygon class="cls-29" points="499.93 996.24 420.61 996.24 442.24 959.04 520.05 959.04 499.93 996.24"></polygon> <polygon class="cls-28" points="579.26 996.24 499.93 996.24 520.05 959.04 597.86 959.04 579.26 996.24"></polygon> <polygon class="cls-29" points="658.58 996.24 579.26 996.24 597.86 959.04 675.67 959.04 658.58 996.24"></polygon> <polygon class="cls-28" points="479.02 1034.92 398.12 1034.92 420.61 996.24 499.93 996.24 479.02 1034.92"></polygon> <polygon class="cls-29" points="559.92 1034.92 479.02 1034.92 499.93 996.24 579.26 996.24 559.92 1034.92"></polygon> <polygon class="cls-28" points="640.82 1034.92 559.92 1034.92 579.26 996.24 658.58 996.24 640.82 1034.92"></polygon> <polygon class="cls-29" points="753.48 959.04 675.67 959.04 692.12 923.23 768.47 923.23 753.48 959.04"></polygon> <polygon class="cls-28" points="737.91 996.24 658.58 996.24 675.67 959.04 753.48 959.04 737.91 996.24"></polygon> <polygon class="cls-29" points="457.26 1075.17 374.73 1075.17 398.13 1034.92 479.02 1034.92 457.26 1075.17"></polygon> <polygon class="cls-28" points="539.8 1075.17 457.26 1075.17 479.02 1034.92 559.92 1034.92 539.8 1075.17"></polygon> <polygon class="cls-29" points="622.33 1075.17 539.8 1075.17 559.92 1034.92 640.82 1034.92 622.33 1075.17"></polygon> <polygon class="cls-28" points="704.87 1075.17 622.33 1075.17 640.82 1034.92 721.71 1034.92 704.87 1075.17"></polygon> <polygon class="cls-29" points="721.71 1034.92 640.82 1034.92 658.58 996.24 737.9 996.24 721.71 1034.92"></polygon> <path class="cls-30" d="M487.23,931.57a16.9,16.9,0,1,1-16.9-16.9,16.9,16.9,0,0,1,16.9,16.9"></path> <path class="cls-31" d="M739,894.24a16.9,16.9,0,1,1-16.9-16.9,16.9,16.9,0,0,1,16.9,16.9"></path> <path class="cls-32" d="M628.13,968.41a16.9,16.9,0,1,1-16.9-16.9,16.9,16.9,0,0,1,16.9,16.9"></path> <path class="cls-32" d="M636.93,1020.36H585.54c-2.8,0-4.79-3.21-4-6.43,3.07-13,15.21-22.63,29.72-22.63s26.65,9.68,29.72,22.63c.76,3.22-1.22,6.43-4,6.43"></path> <path class="cls-30" d="M500,977.09a29.14,29.14,0,0,0-13-17.88l-6,6-10.72-10.72-10.72,10.72-6-6a29.14,29.14,0,0,0-13,17.88c-.76,3.22,1.22,6.43,4,6.43H496c2.8,0,4.79-3.21,4-6.43"></path> <path class="cls-11" d="M470.33,954.45a31.38,31.38,0,0,0-16.69,4.75l6,6Z"></path> <path class="cls-11" d="M487,959.2a31.38,31.38,0,0,0-16.69-4.75L481,965.17Z"></path> <path class="cls-31" d="M751.79,939.76a29.14,29.14,0,0,0-13-17.88l-6,6-10.72-10.72-10.72,10.72-6-6a29.14,29.14,0,0,0-13,17.88c-.76,3.22,1.22,6.43,4,6.43h51.39c2.8,0,4.79-3.21,4-6.43"></path> <path class="cls-20" d="M722.07,917.13a31.38,31.38,0,0,0-16.69,4.75l6,6Z"></path> <path class="cls-20" d="M738.76,921.88a31.38,31.38,0,0,0-16.69-4.75l10.72,10.72Z"></path> <rect class="cls-11" x="467.14" y="957.96" width="6.37" height="6.37" transform="translate(-541.88 614.09) rotate(-45)"></rect> <polygon class="cls-20" points="740.31 939.6 735.8 942.46 731.29 939.6 735.8 933.45 740.31 939.6"></polygon> <polygon class="cls-11" points="474.83 976.74 470.33 981.24 465.82 976.74 469.57 964.87 471.02 964.87 474.83 976.74"></polygon> <rect class="cls-20" x="731.3" y="933.52" width="9.09" height="6.08"></rect> <path class="cls-12" d="M661.44,876.77a16.9,16.9,0,1,1-11.25-21.09,16.9,16.9,0,0,1,11.25,21.09"></path> <path class="cls-17" d="M525.67,1005.88a16.9,16.9,0,1,1-16.9-16.9,16.9,16.9,0,0,1,16.9,16.9"></path> <path class="cls-12" d="M660.46,924a29.14,29.14,0,0,0-7.26-20.9l-7.45,4-7.14-13.38-13.38,7.14-4-7.45a29.14,29.14,0,0,0-17.67,13.32c-1.67,2.86-.7,6.51,2,7.32l49.17,15c2.68.82,5.51-1.68,5.72-5"></path> <path class="cls-9" d="M638.62,893.74a31.38,31.38,0,0,0-17.35-.31l4,7.45Z"></path> <path class="cls-9" d="M653.2,903.14a31.38,31.38,0,0,0-14.58-9.4l7.14,13.38Z"></path> <path class="cls-17" d="M538.49,1051.39a29.14,29.14,0,0,0-13-17.88l-6,6-10.72-10.72L498,1039.48l-6-6a29.14,29.14,0,0,0-13,17.88c-.76,3.22,1.22,6.43,4,6.43h51.39c2.8,0,4.79-3.21,4-6.43"></path> <path class="cls-33" d="M508.77,1028.76a31.38,31.38,0,0,0-16.69,4.75l6,6Z"></path> <path class="cls-33" d="M525.46,1033.51a31.38,31.38,0,0,0-16.69-4.75l10.72,10.72Z"></path> <rect class="cls-9" x="633.48" y="896.96" width="6.37" height="6.37" transform="translate(-348.73 405.58) rotate(-28.08)"></rect> <polygon class="cls-33" points="527 1051.23 522.5 1054.09 517.99 1051.23 522.5 1045.08 527 1051.23"></polygon> <polygon class="cls-9" points="636.44 916.37 630.82 919.37 627.82 913.75 634.87 903.49 636.25 903.91 636.44 916.37"></polygon> <rect class="cls-33" x="517.99" y="1045.15" width="9.09" height="6.08"></rect> <polygon class="cls-34" points="629.28 965.78 593.19 965.78 589.84 965.78 589.84 968.8 593.01 968.8 629.46 968.8 632.9 968.8 632.9 965.78 629.28 965.78"></polygon> <path class="cls-34" d="M611.23,950.18a18.24,18.24,0,0,0-17.78,14.19H629a18.24,18.24,0,0,0-17.78-14.19"></path> <path class="cls-35" d="M629.28,965.79c-.07-.48-.16-1-.27-1.42H593.46c-.11.47-.2.94-.27,1.42Z"></path> <rect class="cls-35" x="609.51" y="949.03" width="3.44" height="16.7"></rect> <path class="cls-36" d="M582,858.71l-.13-.06a13.88,13.88,0,0,1-6.93-18.37l12.76-28.2c4.6-10.41,19.9-32.73,41.43-35.19L669,771.27a13.88,13.88,0,0,1,3.88,27.5l-40.52,5.71c-11,1.2-19.21,18.71-19.27,18.85l-.06.14-12.79,28.27a13.88,13.88,0,0,1-18.24,7"></path> <path class="cls-36" d="M573.12,837.18l-.22-.1a12.79,12.79,0,0,1-6.23-17l13.78-29.75c1.21-2.66,13.19-27.47,38.88-30.25l.84-.09,92.42,2.18a12.79,12.79,0,1,1-.6,25.57l-90.62-2.13c-11,1.7-17.22,14.42-17.61,15.24l-.07.16,0,0-13.79,29.79a12.79,12.79,0,0,1-16.76,6.33"></path> <path class="cls-36" d="M567.11,822.16l0,0a11,11,0,0,1-5.56-14.47l12-27.06c.45-1,11.93-26.55,37.47-29.31l.72-.08L704,753.4a11,11,0,0,1-.52,21.92l-90.77-2.14c-12.43,1.8-19.11,16.21-19.18,16.36l-12,27a11,11,0,0,1-14.43,5.58"></path> <path class="cls-37" d="M607.79,751.84l1.41-.18c-24.67,4-35.09,28-35.54,29l-12,27.06a11,11,0,0,0,2.89,12.78,10.92,10.92,0,0,1,.28-8.19l12-27.06c.45-1,11.93-26.55,37.47-29.31l-1.66.3"></path> <path class="cls-37" d="M619,761.81c-25.54,2.76-39.8,31.57-40.26,32.61l-12,27.06a11,11,0,0,0,2.6,12.52,10.9,10.9,0,0,1,.61-7.11l12-27.06c.45-1,15.52-33.52,42.23-33.73"></path> <path class="cls-36" d="M748.52,792.42q.1-.49.18-1l62.41-142.31-57.63-43.56s-51.84,121.52-57.9,136.11c-5.69,13.7-38,10.63-38,10.63l33.05,16.34-28,23.11-18.55,2.62c-21.84,2.5-34.77,19.77-37.6,31.09l-1.45,29.08a14.91,14.91,0,0,0,13.88,15.87l.53,0a14.91,14.91,0,0,0,15.34-13.9l.55-23.52.06-.26c0-.14,1.68-7.63,12.16-8.77l18.92-2.66,18-2.13s14.17-3.53,16.82,9.53c0,0,2.68,8-3.17,13.52l-28.3,4.37a14.91,14.91,0,1,0,4.49,29.47L720.39,869c.85-.13,16.94-16.93,27.08-39.93,6.6-15,0-28.16,1.05-36.64"></path> <path class="cls-37" d="M811,649.09l-17.69,0S770,707.26,746,765.33c-13.05,31.61-6.8,45.46-11.15,57.76-5.4,15.25-15.39,28.88-24.74,30.21l-46.08,7.08a14.85,14.85,0,0,1-6.92-.59,14.89,14.89,0,0,0,17,16.62s38.38-5.47,46.08-7.08c13-2.71,23.21-23.6,29-39.31,5.48-14.94-.95-28.67,11.23-58.75C786,708.3,811,649.09,811,649.09"></path> <g class="cls-38"> <g class="cls-39"> <path class="cls-40" d="M610.43,844.51a27.16,27.16,0,0,0,17.79,3.86l-.39,12.28s-11,8.91-18.19-2.77Z"></path> </g> </g> <path class="cls-36" d="M695.58,741.68c-5.69,13.7-38,10.63-38,10.63l33.05,16.34-28,23.11-18.55,2.62c-21.84,2.5-34.77,19.77-37.6,31.08l-1.45,29.08a14.91,14.91,0,0,0,13.88,15.87l.53,0a14.91,14.91,0,0,0,15.34-13.9l.55-23.52.06-.26c0-.14,1.68-7.63,12.16-8.77l18.92-2.67,18-2.13s14.17-3.53,16.82,9.53"></path> <path class="cls-37" d="M660.18,791.82l-16.23,2.41c-21.84,2.5-34.79,19.8-37.62,31.12l-1.47,29.12a14.9,14.9,0,0,0,10.65,15.28,14.88,14.88,0,0,1-6-12.94l.89-28.21c2.82-11.32,15.14-27.95,37-30.45L666,795.54"></path> <path class="cls-37" d="M630.87,776.47l-1.46.15c-25.7,2.78-39.52,31.78-40.73,34.45l-13.78,29.75a12.78,12.78,0,0,0,4.18,15.78c-1.52-3.29-3-7.79-1.34-11.33l13.78-29.75c1.21-2.66,15-31.67,40.73-34.45l4.71-.58"></path> <path class="cls-41" d="M610.37,841.28s4.65,6.23,15.18,4.62l-.47,14.84s-9,6.11-15.6-3.47Z"></path> <path class="cls-41" d="M681,851.39s-2,7.07,1.93,17l-13.55,2.05s-10-6.91-2.23-16.61Z"></path> <path class="cls-41" d="M584.94,831.83s1,5.85,9.44,7.85l-6.27,14.23s-8,2.18-10.11-7.11Z"></path> <path class="cls-41" d="M577.07,810.78s.34,5.67,7.87,7.45l-5.57,12.64s-6.62,1.48-8.47-6.79Z"></path> <path class="cls-41" d="M569.78,801.24s-.81,3.11,3.93,4.23l-3.84,8.71s-3.14,1.38-4.31-3.82Z"></path> <rect class="cls-12" x="374.73" y="1075.17" width="330.65" height="5.12"></rect> <polygon class="cls-9" points="768.47 929.18 705.38 1080.29 704.87 1075.17 768.47 923.23 768.47 929.18"></polygon> </g> </svg>